<svg width="138" height="40" viewBox="0 0 138 40" fill="none" xmlns="http://www.w3.org/2000/svg">
<path d="M29.0508 26.6892H25.3381L21.0736 14.6052L18.6789 21.2152H22.3646L23.3771 24.0921H17.7795L16.8108 26.6925H13.0981L19.0215 11.339H23.124L29.0508 26.6892ZM95.2458 26.6892V23.8123H88.7453V11.3407H85.4495V26.6942L95.2458 26.6892ZM114.243 26.6892V23.8123H107.746V11.3407H104.445V26.6942L114.243 26.6892ZM67.195 14.0878C66.2174 14.0878 65.2617 14.3774 64.4488 14.9198C63.636 15.4622 63.0024 16.2331 62.6283 17.1352C62.2542 18.0372 62.1563 19.0297 62.347 19.9873C62.5378 20.9448 63.0085 21.8244 63.6998 22.5148C64.3911 23.2051 65.2718 23.6753 66.2307 23.8657C67.1895 24.0562 68.1833 23.9585 69.0865 23.5848C69.9897 23.2112 70.7617 22.5785 71.3049 21.7667C71.848 20.9549 72.1379 20.0005 72.1379 19.0242C72.1365 17.7154 71.6153 16.4606 70.6887 15.5352C69.762 14.6097 68.5055 14.0892 67.195 14.0878V14.0878ZM67.195 11.0829C68.7678 11.0825 70.3053 11.548 71.6132 12.4204C72.9211 13.2928 73.9406 14.533 74.5427 15.984C75.1448 17.4351 75.3026 19.0319 74.9959 20.5725C74.6893 22.113 73.9321 23.5282 72.8201 24.639C71.708 25.7498 70.2912 26.5063 68.7486 26.8129C67.2061 27.1194 65.6071 26.9622 64.154 26.3612C62.7009 25.7602 61.4589 24.7424 60.5851 23.4364C59.7112 22.1304 59.2448 20.5949 59.2448 19.0242C59.2448 16.918 60.0826 14.8981 61.5739 13.4088C63.0651 11.9195 65.0877 11.0829 67.1967 11.0829H67.195ZM129.394 14.0878C128.416 14.0878 127.461 14.3774 126.648 14.9198C125.835 15.4622 125.201 16.2331 124.827 17.1352C124.453 18.0372 124.355 19.0297 124.546 19.9873C124.737 20.9448 125.207 21.8244 125.899 22.5148C126.59 23.2051 127.471 23.6753 128.43 23.8657C129.388 24.0562 130.382 23.9585 131.285 23.5848C132.189 23.2112 132.961 22.5785 133.504 21.7667C134.047 20.9549 134.337 20.0005 134.337 19.0242C134.335 17.7154 133.814 16.4606 132.888 15.5352C131.961 14.6097 130.704 14.0892 129.394 14.0878ZM129.394 11.0829C130.967 11.0829 132.504 11.5486 133.812 12.4212C135.119 13.2938 136.139 14.5341 136.74 15.9852C137.342 17.4363 137.5 19.033 137.193 20.5735C136.886 22.114 136.129 23.529 135.017 24.6396C133.905 25.7502 132.488 26.5066 130.945 26.813C129.403 27.1194 127.804 26.9621 126.351 26.3611C124.898 25.76 123.656 24.7421 122.782 23.4362C121.908 22.1302 121.442 20.5949 121.442 19.0242C121.442 16.918 122.28 14.8981 123.771 13.4088C125.262 11.9195 127.285 11.0829 129.394 11.0829V11.0829ZM50.7529 16.3715C50.7529 19.1001 48.5389 21.4056 45.805 21.4056H41.9134V26.6892H38.6395V11.3357H45.8117C48.5405 11.3357 50.7546 13.6412 50.7546 16.3698L50.7529 16.3715ZM47.744 16.3715C47.744 15.3047 46.8749 14.3491 45.805 14.3491H41.9134V18.4006H45.8117C46.8766 18.4006 47.7474 17.4383 47.7474 16.3698L47.744 16.3715ZM35.8112 31.3491C35.6759 31.3491 35.5425 31.3815 35.4224 31.4437C35.3023 31.5059 35.1989 31.596 35.121 31.7064C35.121 31.7064 34.3835 32.5491 33.9852 32.9452C31.4786 35.4521 28.298 37.1794 24.8286 37.9181C21.3591 38.6567 17.7497 38.375 14.4373 37.107C11.1248 35.839 8.25161 33.6391 6.16547 30.7737C4.07933 27.9083 2.86979 24.5003 2.6833 20.9625C2.49682 17.4247 3.3414 13.9087 5.11477 10.8404C6.88814 7.77213 9.51422 5.28311 12.675 3.67478C15.8358 2.06645 19.3957 1.4078 22.9236 1.77859C26.4516 2.14938 29.7962 3.5337 32.5525 5.76392C32.3985 6.21062 32.4026 6.69654 32.5641 7.14059C32.7255 7.58464 33.0346 7.95995 33.4397 8.20389C33.8448 8.44784 34.3214 8.54565 34.79 8.48102C35.2586 8.41638 35.6908 8.19321 36.0146 7.84873C36.3383 7.50426 36.5339 7.05933 36.5688 6.5882C36.6037 6.11707 36.4758 5.64823 36.2063 5.25993C35.9369 4.87164 35.5423 4.58737 35.0883 4.45458C34.6343 4.32178 34.1485 4.34849 33.7118 4.53025C30.6531 2.02745 26.921 0.48497 22.9858 0.0972512C19.0506 -0.290467 15.0886 0.493929 11.5992 2.35156C8.10971 4.2092 5.24902 7.05692 3.37769 10.5358C1.50636 14.0146 0.708154 17.9688 1.0837 21.9C1.45924 25.8312 2.99172 29.5634 5.48796 32.6261C7.98419 35.6889 11.3325 37.945 15.1107 39.1102C18.8889 40.2754 22.928 40.2975 26.7187 39.1737C30.5095 38.0498 33.8823 35.8304 36.412 32.7952C36.5315 32.6774 36.6132 32.5267 36.6465 32.3623C36.6798 32.1979 36.6632 32.0273 36.5989 31.8724C36.5346 31.7174 36.4254 31.5852 36.2854 31.4926C36.1453 31.4 35.9808 31.3512 35.8129 31.3525L35.8112 31.3491Z" fill="#9BABFF"/>
</svg>
