<svg width="458" height="281" viewBox="0 0 458 281" fill="none" xmlns="http://www.w3.org/2000/svg">
<path d="M18.7531 224.657C21.7448 224.657 23.474 224.456 27.2656 223.659L28.1959 230.041C25.2703 230.841 22.012 231.239 18.7531 231.239C4.18959 231.239 0 222.129 0 211.488C0.132813 201.115 6.38385 192.337 18.686 192.337C21.9448 192.337 24.7375 192.736 28.1292 193.601L26.8656 199.917C23.2755 199.121 21.1469 198.987 18.886 198.987C11.1719 199.121 7.38125 204.84 7.24844 211.488C7.24844 218.073 9.70833 224.657 18.7531 224.657" fill="#9BABFF"/>
<path d="M48.5448 192.337C60.5151 192.402 65.8355 201.315 65.8355 211.755C65.8355 221.929 61.2469 231.04 48.4787 231.107C35.9765 230.973 31.1885 221.929 31.1885 211.755C31.1885 201.315 36.5751 192.469 48.5448 192.337ZM48.5448 224.723C56.1927 224.657 58.6531 218.471 58.6531 211.755C58.5864 205.637 55.9927 198.72 48.4787 198.72C41.1625 198.788 38.3041 205.572 38.3041 211.755C38.3041 218.737 41.3625 224.723 48.5448 224.723" fill="#9BABFF"/>
<path d="M115.377 230.441V206.501C115.377 200.449 113.116 198.788 109.325 198.788C106.732 198.788 103.805 200.249 101.146 202.444C101.279 203.241 101.344 204.84 101.344 205.305V230.441H93.8969V206.236C93.8969 200.184 92.1016 198.72 88.3104 198.72C85.9167 198.72 82.5917 200.317 79.7323 202.444V230.441H72.3511V193.001H79.7323V196.194C81.9932 194.399 85.5844 192.337 89.5079 192.271C94.6948 192.202 97.6875 193.999 99.3505 196.794C102.409 193.933 106.931 192.337 110.39 192.271C122.558 192.072 122.758 201.848 122.758 205.968V230.441H115.377" fill="#9BABFF"/>
<path d="M173.896 230.441V206.501C173.896 200.449 171.635 198.788 167.844 198.788C165.251 198.788 162.324 200.249 159.665 202.444C159.797 203.241 159.863 204.84 159.863 205.305V230.441H152.416V206.236C152.416 200.184 150.621 198.72 146.831 198.72C144.436 198.72 141.111 200.317 138.251 202.444V230.441H130.87V193.001H138.251V196.194C140.512 194.399 144.104 192.337 148.027 192.271C153.213 192.202 156.207 193.999 157.869 196.794C160.928 193.933 165.449 192.337 168.908 192.271C181.079 192.072 181.277 201.848 181.277 205.968V230.441H173.896Z" fill="#9BABFF"/>
<path d="M215.723 223.592L216.853 229.644C213.528 230.773 208.94 231.305 205.348 231.305C190.585 231.305 186.995 221.399 186.995 211.488C186.995 201.58 191.384 192.402 203.752 192.402C211.4 192.402 217.784 197.125 217.849 209.161L217.784 213.085H194.244C194.376 220.4 198.299 224.856 205.681 224.856C208.607 224.856 211.665 224.523 215.723 223.592V223.592ZM194.575 207.366H211.001C210.735 199.787 206.944 198.255 203.42 198.255C197.833 198.188 195.241 201.978 194.575 207.366" fill="#9BABFF"/>
<path d="M244.981 199.852C243.052 199.387 241.389 199.321 240.193 199.321C235.605 199.252 233.212 201.513 231.481 203.311V230.441H224.101V193.001H231.481V196.327C233.409 194.332 236.336 192.603 240.127 192.537C241.656 192.469 244.183 192.736 246.311 193.535L244.981 199.852Z" fill="#9BABFF"/>
<path d="M266.593 224.657C269.584 224.657 271.313 224.456 275.105 223.659L276.036 230.041C273.109 230.841 269.851 231.239 266.593 231.239C252.028 231.239 247.839 222.129 247.839 211.488C247.972 201.115 254.223 192.337 266.525 192.337C269.784 192.337 272.577 192.736 275.969 193.601L274.705 199.917C271.115 199.121 268.987 198.987 266.724 198.987C259.011 199.121 255.22 204.84 255.089 211.488C255.089 218.073 257.548 224.657 266.593 224.657Z" fill="#9BABFF"/>
<path d="M307.756 223.592L308.887 229.644C305.561 230.773 300.973 231.305 297.383 231.305C282.617 231.305 279.028 221.399 279.028 211.488C279.028 201.58 283.417 192.402 295.785 192.402C303.435 192.402 309.817 197.125 309.884 209.161L309.817 213.085H286.276C286.409 220.4 290.332 224.856 297.715 224.856C300.64 224.856 303.701 224.523 307.756 223.592V223.592ZM286.609 207.366H303.035C302.768 199.787 298.979 198.255 295.455 198.255C289.867 198.188 287.275 201.978 286.609 207.366" fill="#9BABFF"/>
<path d="M334.887 199.121H324.713V217.275C324.713 221.065 325.179 223.725 329.036 224.256C331.163 224.456 333.356 224.256 335.487 223.99L335.951 230.376C333.756 230.773 330.629 230.841 329.367 230.841C320.655 230.508 317.396 226.052 317.396 219.072V199.121H312.009V193.999L317.396 193.401V184.689H324.713V193.001H334.887V199.121Z" fill="#9BABFF"/>
<path d="M356.367 192.337C368.336 192.402 373.656 201.315 373.656 211.755C373.656 221.929 369.068 231.04 356.3 231.107C343.797 230.973 339.009 221.929 339.009 211.755C339.009 201.315 344.395 192.469 356.367 192.337ZM356.367 224.723C364.015 224.657 366.476 218.471 366.476 211.755C366.407 205.637 363.815 198.72 356.3 198.72C348.987 198.788 346.124 205.572 346.124 211.755C346.124 218.737 349.184 224.723 356.367 224.723Z" fill="#9BABFF"/>
<path d="M396.132 192.337C408.103 192.402 413.423 201.315 413.423 211.755C413.423 221.929 408.833 231.04 396.065 231.107C383.564 230.973 378.776 221.929 378.776 211.755C378.776 201.315 384.161 192.469 396.132 192.337ZM396.132 224.723C403.78 224.657 406.241 218.471 406.241 211.755C406.172 205.637 403.58 198.72 396.065 198.72C388.752 198.788 385.891 205.572 385.891 211.755C385.891 218.737 388.951 224.723 396.132 224.723Z" fill="#9BABFF"/>
<path d="M59.8203 272.575H57.0344L49.9552 253.752H49.8625C49.5339 256.02 49.1541 258.165 48.7235 260.187L46.076 272.575H43.5833L48.3385 250.075H51.1093L58.1735 268.852H58.2656C58.5735 266.553 58.9427 264.475 59.3735 262.619L62.0516 250.075H64.5755L59.8203 272.575Z" fill="#9BABFF"/>
<path d="M74.1333 257.6C73.076 257.6 72.0833 258.083 71.1547 259.047C70.2265 260.012 69.5161 261.351 69.0235 263.064H69.2084C71.5473 263.064 73.3407 262.759 74.5869 262.148C75.8339 261.537 76.4568 260.653 76.4568 259.494C76.4568 258.951 76.2693 258.499 75.8953 258.139C75.5208 257.78 74.9339 257.6 74.1333 257.6V257.6ZM71.9943 272.883C70.1063 272.883 68.6235 272.324 67.5464 271.206C66.4688 270.087 65.9303 268.537 65.9303 266.557C65.9303 264.629 66.3125 262.78 67.0765 261.009C67.8412 259.24 68.8541 257.861 70.1167 256.877C71.3781 255.892 72.7683 255.4 74.2869 255.4C75.8568 255.4 77.0364 255.741 77.8265 256.423C78.6167 257.105 79.012 258.057 79.012 259.278C79.012 261.125 78.1599 262.575 76.4568 263.627C74.7536 264.678 72.3172 265.202 69.1464 265.202H68.6385L68.5776 266.435C68.5776 267.778 68.8927 268.828 69.524 269.582C70.1547 270.336 71.1323 270.713 72.4557 270.713C73.1021 270.713 73.7661 270.621 74.4484 270.436C75.1307 270.251 75.9797 269.912 76.9959 269.42V271.668C76.0312 272.119 75.1797 272.435 74.4407 272.615C73.7027 272.794 72.8864 272.883 71.9943 272.883" fill="#9BABFF"/>
<path d="M87.1536 265.896L81.8281 272.575H78.8276L86.1375 263.88L82.4593 255.707H85.0755L87.7536 262.048L92.8328 255.707H95.8183L88.8156 264.002L92.6937 272.575H90.1088L87.1536 265.896" fill="#9BABFF"/>
<path d="M101.113 270.775C101.677 270.775 102.415 270.641 103.329 270.375V272.36C102.98 272.504 102.549 272.627 102.036 272.729C101.523 272.832 101.113 272.883 100.805 272.883C99.5224 272.883 98.5396 272.577 97.8573 271.966C97.1751 271.356 96.8339 270.447 96.8339 269.236C96.8339 268.559 96.9265 267.789 97.1104 266.927L99.0656 257.663H96.4188L96.6344 256.539L99.4812 255.339L101.405 251.829H102.913L102.066 255.707H106.284L105.883 257.663H101.682L99.6964 266.959C99.512 267.851 99.4193 268.527 99.4193 268.989C99.4193 269.564 99.5683 270.006 99.8656 270.312C100.164 270.621 100.579 270.775 101.113 270.775" fill="#9BABFF"/>
<path d="M118.257 262.111C118.257 262.982 118.488 263.647 118.95 264.103C119.411 264.56 120.053 264.788 120.873 264.788C121.684 264.788 122.392 264.573 122.997 264.141C123.603 263.711 124.067 263.119 124.391 262.364C124.714 261.609 124.875 260.792 124.875 259.908C124.875 259.068 124.649 258.427 124.198 257.985C123.746 257.544 123.101 257.324 122.259 257.324C121.458 257.324 120.758 257.531 120.158 257.947C119.558 258.361 119.091 258.943 118.757 259.687C118.424 260.429 118.257 261.239 118.257 262.111V262.111ZM113.979 275.576C113.979 276.366 114.312 276.992 114.979 277.454C115.646 277.915 116.636 278.147 117.949 278.147C119.817 278.147 121.276 277.821 122.328 277.169C123.38 276.519 123.906 275.597 123.906 274.408C123.906 273.771 123.628 273.268 123.074 272.899C122.52 272.529 121.576 272.273 120.243 272.129L117.795 271.883C116.565 272.139 115.62 272.59 114.964 273.237C114.307 273.884 113.979 274.663 113.979 275.576V275.576ZM130.37 255.707L129.985 257.353L126.737 257.724C127.158 258.36 127.368 259.171 127.368 260.155C127.368 262.116 126.771 263.677 125.575 264.843C124.38 266.007 122.782 266.588 120.781 266.588C120.217 266.588 119.786 266.548 119.488 266.465C118.063 267.009 117.349 267.682 117.349 268.482C117.349 268.902 117.519 269.183 117.857 269.32C118.196 269.459 118.688 269.569 119.334 269.651L121.135 269.866C122.992 270.092 124.339 270.544 125.175 271.221C126.012 271.899 126.43 272.894 126.43 274.207C126.43 276.095 125.68 277.557 124.182 278.594C122.684 279.629 120.576 280.147 117.857 280.147C115.867 280.147 114.307 279.771 113.179 279.018C112.05 278.261 111.485 277.197 111.485 275.823C111.485 274.745 111.855 273.811 112.594 273.021C113.333 272.232 114.527 271.56 116.18 271.006C115.38 270.584 114.979 269.964 114.979 269.142C114.979 268.435 115.241 267.828 115.764 267.32C116.287 266.811 117.016 266.337 117.949 265.896C117.303 265.568 116.775 265.083 116.365 264.441C115.954 263.8 115.748 263.055 115.748 262.201C115.748 260.212 116.361 258.58 117.588 257.308C118.814 256.036 120.381 255.4 122.29 255.4C123.09 255.4 123.88 255.502 124.659 255.707H130.37Z" fill="#9BABFF"/>
<path d="M138.943 257.6C137.885 257.6 136.892 258.083 135.964 259.047C135.035 260.012 134.325 261.351 133.832 263.064H134.017C136.356 263.064 138.149 262.759 139.396 262.148C140.643 261.537 141.265 260.653 141.265 259.494C141.265 258.951 141.079 258.499 140.704 258.139C140.329 257.78 139.743 257.6 138.943 257.6V257.6ZM136.803 272.883C134.915 272.883 133.432 272.324 132.355 271.206C131.277 270.087 130.739 268.537 130.739 266.557C130.739 264.629 131.121 262.78 131.885 261.009C132.649 259.24 133.663 257.861 134.925 256.877C136.187 255.892 137.577 255.4 139.096 255.4C140.665 255.4 141.845 255.741 142.636 256.423C143.425 257.105 143.82 258.057 143.82 259.278C143.82 261.125 142.969 262.575 141.265 263.627C139.563 264.678 137.125 265.202 133.955 265.202H133.447L133.387 266.435C133.387 267.778 133.701 268.828 134.332 269.582C134.964 270.336 135.941 270.713 137.264 270.713C137.911 270.713 138.575 270.621 139.257 270.436C139.94 270.251 140.788 269.912 141.804 269.42V271.668C140.84 272.119 139.988 272.435 139.249 272.615C138.511 272.794 137.695 272.883 136.803 272.883" fill="#9BABFF"/>
<path d="M155.995 272.575L158.272 261.925C158.477 260.857 158.58 260.12 158.58 259.709C158.58 259.063 158.397 258.544 158.033 258.155C157.669 257.764 157.087 257.571 156.287 257.571C155.373 257.571 154.484 257.877 153.616 258.494C152.749 259.109 151.985 259.985 151.324 261.125C150.661 262.264 150.161 263.644 149.823 265.265L148.268 272.575H145.683L149.284 255.707H151.423L151.084 258.832H151.239C152.224 257.58 153.175 256.695 154.093 256.177C155.012 255.659 155.964 255.4 156.948 255.4C158.251 255.4 159.28 255.756 160.035 256.469C160.788 257.183 161.165 258.182 161.165 259.464C161.165 260.273 161.048 261.196 160.811 262.233L158.611 272.575H155.995" fill="#9BABFF"/>
<path d="M172.677 257.6C171.62 257.6 170.628 258.083 169.699 259.047C168.771 260.012 168.06 261.351 167.568 263.064H167.752C170.092 263.064 171.885 262.759 173.132 262.148C174.379 261.537 175.001 260.653 175.001 259.494C175.001 258.951 174.813 258.499 174.44 258.139C174.065 257.78 173.477 257.6 172.677 257.6ZM170.539 272.883C168.651 272.883 167.168 272.324 166.091 271.206C165.013 270.087 164.475 268.537 164.475 266.557C164.475 264.629 164.857 262.78 165.621 261.009C166.385 259.24 167.399 257.861 168.661 256.877C169.923 255.892 171.312 255.4 172.832 255.4C174.401 255.4 175.581 255.741 176.371 256.423C177.161 257.105 177.556 258.057 177.556 259.278C177.556 261.125 176.704 262.575 175.001 263.627C173.299 264.678 170.861 265.202 167.691 265.202H167.183L167.121 266.435C167.121 267.778 167.437 268.828 168.068 269.582C168.699 270.336 169.676 270.713 171 270.713C171.647 270.713 172.311 270.621 172.993 270.436C173.675 270.251 174.524 269.912 175.54 269.42V271.668C174.576 272.119 173.724 272.435 172.985 272.615C172.247 272.794 171.431 272.883 170.539 272.883" fill="#9BABFF"/>
<path d="M190.084 255.4C190.792 255.4 191.408 255.471 191.931 255.616L191.377 257.924C190.832 257.79 190.295 257.724 189.761 257.724C188.827 257.724 187.952 258.031 187.137 258.647C186.321 259.263 185.608 260.117 184.997 261.209C184.387 262.301 183.939 263.516 183.651 264.849L182.004 272.575H179.419L183.02 255.707H185.159L184.82 258.832H184.975C185.713 257.856 186.324 257.157 186.805 256.732C187.288 256.305 187.793 255.976 188.321 255.745C188.851 255.516 189.437 255.4 190.084 255.4" fill="#9BABFF"/>
<path d="M197.903 270.742C198.897 270.742 199.888 270.27 200.873 269.32C201.859 268.371 202.659 267.135 203.273 265.612C203.889 264.087 204.197 262.561 204.197 261.032C204.197 259.976 203.909 259.133 203.335 258.509C202.76 257.883 202.007 257.571 201.073 257.571C200.005 257.571 199.013 258.012 198.095 258.894C197.176 259.776 196.456 260.971 195.932 262.478C195.409 263.988 195.148 265.577 195.148 267.249C195.148 268.42 195.388 269.296 195.871 269.875C196.353 270.454 197.029 270.742 197.903 270.742ZM200.827 255.4C201.771 255.4 202.612 255.653 203.351 256.161C204.089 256.669 204.664 257.401 205.075 258.353H205.244L206.275 255.707H208.229L204.643 272.575H202.596L202.997 269.359H202.873C201.037 271.708 199.103 272.883 197.072 272.883C195.645 272.883 194.527 272.375 193.716 271.359C192.905 270.344 192.5 268.953 192.5 267.188C192.5 265.055 192.864 263.075 193.593 261.248C194.321 259.421 195.327 257.99 196.609 256.955C197.892 255.917 199.297 255.4 200.827 255.4" fill="#9BABFF"/>
<path d="M214.879 270.775C215.443 270.775 216.181 270.641 217.095 270.375V272.36C216.745 272.504 216.315 272.627 215.801 272.729C215.288 272.832 214.879 272.883 214.571 272.883C213.288 272.883 212.305 272.577 211.623 271.966C210.941 271.356 210.6 270.447 210.6 269.236C210.6 268.559 210.692 267.789 210.876 266.927L212.832 257.663H210.184L210.4 256.539L213.247 255.339L215.171 251.829H216.679L215.832 255.707H220.049L219.649 257.663H215.447L213.463 266.959C213.277 267.851 213.185 268.527 213.185 268.989C213.185 269.564 213.333 270.006 213.632 270.312C213.929 270.621 214.344 270.775 214.879 270.775" fill="#9BABFF"/>
<path d="M224.251 251.399C224.251 250.824 224.415 250.353 224.744 249.989C225.072 249.627 225.497 249.444 226.021 249.444C226.924 249.444 227.375 249.905 227.375 250.829C227.375 251.394 227.203 251.869 226.86 252.26C226.516 252.649 226.119 252.845 225.667 252.845C225.256 252.845 224.917 252.72 224.651 252.466C224.384 252.216 224.251 251.86 224.251 251.399V251.399ZM222.512 272.575H219.927L223.527 255.707H226.113L222.512 272.575Z" fill="#9BABFF"/>
<path d="M240.551 261.632C240.551 260.453 240.229 259.496 239.589 258.763C238.945 258.028 238.079 257.663 236.98 257.663C235.86 257.663 234.857 258.041 233.972 258.8C233.084 259.56 232.396 260.615 231.909 261.964C231.42 263.313 231.177 264.813 231.177 266.465C231.177 267.809 231.503 268.849 232.155 269.582C232.805 270.316 233.743 270.683 234.964 270.683C236.029 270.683 236.991 270.308 237.841 269.559C238.693 268.809 239.357 267.745 239.833 266.365C240.311 264.985 240.551 263.408 240.551 261.632V261.632ZM236.917 255.492C238.868 255.492 240.407 256.069 241.535 257.224C242.665 258.377 243.227 259.965 243.227 261.987C243.227 263.916 242.86 265.737 242.12 267.451C241.381 269.164 240.381 270.488 239.117 271.421C237.857 272.354 236.431 272.821 234.839 272.821C232.871 272.821 231.327 272.241 230.209 271.082C229.088 269.923 228.528 268.339 228.528 266.327C228.528 264.377 228.904 262.544 229.653 260.825C230.401 259.107 231.415 257.788 232.685 256.869C233.959 255.952 235.368 255.492 236.917 255.492" fill="#9BABFF"/>
<path d="M255.925 272.575L258.203 261.925C258.408 260.857 258.509 260.12 258.509 259.709C258.509 259.063 258.328 258.544 257.964 258.155C257.6 257.764 257.017 257.571 256.217 257.571C255.304 257.571 254.413 257.877 253.547 258.494C252.68 259.109 251.916 259.985 251.253 261.125C250.592 262.264 250.092 263.644 249.753 265.265L248.199 272.575H245.612L249.215 255.707H251.353L251.015 258.832H251.168C252.155 257.58 253.107 256.695 254.024 256.177C254.943 255.659 255.893 255.4 256.879 255.4C258.181 255.4 259.211 255.756 259.964 256.469C260.72 257.183 261.096 258.182 261.096 259.464C261.096 260.273 260.977 261.196 260.741 262.233L258.541 272.575H255.925" fill="#9BABFF"/>
<path d="M278.872 272.883C276.881 272.883 275.336 272.335 274.239 271.237C273.141 270.139 272.592 268.589 272.592 266.588C272.592 264.536 272.972 262.643 273.731 260.909C274.491 259.176 275.54 257.824 276.879 256.853C278.217 255.884 279.723 255.4 281.395 255.4C282.801 255.4 284.176 255.661 285.52 256.185L284.796 258.353C283.565 257.832 282.443 257.571 281.427 257.571C280.276 257.571 279.228 257.963 278.279 258.747C277.331 259.532 276.587 260.625 276.048 262.025C275.508 263.425 275.239 264.947 275.239 266.588C275.239 267.902 275.58 268.923 276.263 269.651C276.944 270.38 277.887 270.742 279.087 270.742C279.827 270.742 280.523 270.641 281.18 270.436C281.836 270.232 282.483 269.989 283.119 269.713V271.913C281.847 272.56 280.432 272.883 278.872 272.883" fill="#9BABFF"/>
<path d="M298.803 261.632C298.803 260.453 298.481 259.496 297.84 258.763C297.199 258.028 296.331 257.663 295.231 257.663C294.112 257.663 293.109 258.041 292.223 258.8C291.335 259.56 290.648 260.615 290.161 261.964C289.672 263.313 289.429 264.813 289.429 266.465C289.429 267.809 289.755 268.849 290.407 269.582C291.057 270.316 291.995 270.683 293.216 270.683C294.281 270.683 295.241 270.308 296.093 269.559C296.944 268.809 297.609 267.745 298.087 266.365C298.563 264.985 298.803 263.408 298.803 261.632V261.632ZM295.169 255.492C297.119 255.492 298.659 256.069 299.787 257.224C300.916 258.377 301.48 259.965 301.48 261.987C301.48 263.916 301.111 265.737 300.372 267.451C299.633 269.164 298.633 270.488 297.371 271.421C296.109 272.354 294.683 272.821 293.092 272.821C291.123 272.821 289.577 272.241 288.46 271.082C287.341 269.923 286.781 268.339 286.781 266.327C286.781 264.377 287.157 262.544 287.905 260.825C288.655 259.107 289.665 257.788 290.939 256.869C292.211 255.952 293.62 255.492 295.169 255.492" fill="#9BABFF"/>
<path d="M313.669 272.575L315.947 261.925C316.132 260.961 316.224 260.268 316.224 259.848C316.224 259.131 316.064 258.571 315.747 258.171C315.429 257.77 314.885 257.571 314.115 257.571C313.253 257.571 312.415 257.877 311.6 258.494C310.783 259.109 310.065 259.988 309.444 261.132C308.824 262.277 308.344 263.655 308.005 265.265L306.451 272.575H303.865L307.467 255.707H309.607L309.268 258.832H309.421C310.315 257.611 311.204 256.735 312.092 256.2C312.98 255.666 313.895 255.4 314.839 255.4C315.999 255.4 316.891 255.733 317.517 256.4C318.143 257.068 318.512 257.996 318.625 259.187H318.748C319.631 257.904 320.569 256.952 321.564 256.331C322.559 255.711 323.565 255.4 324.581 255.4C325.884 255.4 326.892 255.748 327.605 256.447C328.319 257.144 328.675 258.16 328.675 259.494C328.675 260.19 328.561 261.104 328.336 262.233L326.12 272.575H323.503L325.781 261.925C325.987 260.857 326.089 260.109 326.089 259.678C326.089 259.043 325.912 258.531 325.557 258.147C325.205 257.761 324.648 257.571 323.888 257.571C323.057 257.571 322.236 257.866 321.427 258.463C320.615 259.057 319.904 259.901 319.295 260.995C318.684 262.087 318.22 263.383 317.901 264.88L316.255 272.575H313.669" fill="#9BABFF"/>
<path d="M341.157 272.575L343.435 261.925C343.619 260.961 343.712 260.268 343.712 259.848C343.712 259.131 343.552 258.571 343.233 258.171C342.916 257.77 342.372 257.571 341.603 257.571C340.74 257.571 339.901 257.877 339.087 258.494C338.271 259.109 337.553 259.988 336.932 261.132C336.311 262.277 335.832 263.655 335.493 265.265L333.939 272.575H331.352L334.953 255.707H337.093L336.755 258.832H336.908C337.801 257.611 338.691 256.735 339.579 256.2C340.467 255.666 341.383 255.4 342.327 255.4C343.485 255.4 344.379 255.733 345.004 256.4C345.629 257.068 345.999 257.996 346.112 259.187H346.235C347.117 257.904 348.056 256.952 349.052 256.331C350.047 255.711 351.053 255.4 352.068 255.4C353.371 255.4 354.38 255.748 355.092 256.447C355.805 257.144 356.163 258.16 356.163 259.494C356.163 260.19 356.049 261.104 355.824 262.233L353.608 272.575H350.991L353.269 261.925C353.473 260.857 353.576 260.109 353.576 259.678C353.576 259.043 353.399 258.531 353.045 258.147C352.692 257.761 352.135 257.571 351.376 257.571C350.545 257.571 349.723 257.866 348.913 258.463C348.103 259.057 347.391 259.901 346.781 260.995C346.171 262.087 345.707 263.383 345.388 264.88L343.741 272.575H341.157" fill="#9BABFF"/>
<path d="M367.643 257.6C366.587 257.6 365.593 258.083 364.665 259.047C363.736 260.012 363.025 261.351 362.533 263.064H362.719C365.057 263.064 366.851 262.759 368.097 262.148C369.343 261.537 369.967 260.653 369.967 259.494C369.967 258.951 369.779 258.499 369.405 258.139C369.031 257.78 368.443 257.6 367.643 257.6V257.6ZM365.503 272.883C363.615 272.883 362.133 272.324 361.055 271.206C359.979 270.087 359.44 268.537 359.44 266.557C359.44 264.629 359.823 262.78 360.587 261.009C361.351 259.24 362.364 257.861 363.625 256.877C364.888 255.892 366.277 255.4 367.797 255.4C369.367 255.4 370.547 255.741 371.336 256.423C372.127 257.105 372.521 258.057 372.521 259.278C372.521 261.125 371.669 262.575 369.967 263.627C368.264 264.678 365.828 265.202 362.657 265.202H362.149L362.087 266.435C362.087 267.778 362.403 268.828 363.033 269.582C363.665 270.336 364.641 270.713 365.965 270.713C366.611 270.713 367.276 270.621 367.959 270.436C368.641 270.251 369.491 269.912 370.505 269.42V271.668C369.541 272.119 368.689 272.435 367.951 272.615C367.212 272.794 366.396 272.883 365.503 272.883" fill="#9BABFF"/>
<path d="M385.051 255.4C385.757 255.4 386.373 255.471 386.896 255.616L386.341 257.924C385.799 257.79 385.26 257.724 384.725 257.724C383.792 257.724 382.917 258.031 382.103 258.647C381.287 259.263 380.573 260.117 379.963 261.209C379.352 262.301 378.903 263.516 378.616 264.849L376.969 272.575H374.384L377.985 255.707H380.124L379.785 258.832H379.94C380.679 257.856 381.288 257.157 381.772 256.732C382.253 256.305 382.759 255.976 383.287 255.745C383.816 255.516 384.403 255.4 385.051 255.4" fill="#9BABFF"/>
<path d="M393.745 272.883C391.755 272.883 390.211 272.335 389.112 271.237C388.015 270.139 387.465 268.589 387.465 266.588C387.465 264.536 387.845 262.643 388.605 260.909C389.364 259.176 390.413 257.824 391.752 256.853C393.091 255.884 394.597 255.4 396.269 255.4C397.675 255.4 399.051 255.661 400.393 256.185L399.669 258.353C398.44 257.832 397.316 257.571 396.3 257.571C395.151 257.571 394.103 257.963 393.153 258.747C392.204 259.532 391.46 260.625 390.921 262.025C390.383 263.425 390.112 264.947 390.112 266.588C390.112 267.902 390.453 268.923 391.136 269.651C391.819 270.38 392.76 270.742 393.96 270.742C394.7 270.742 395.396 270.641 396.053 270.436C396.711 270.232 397.356 269.989 397.993 269.713V271.913C396.72 272.56 395.305 272.883 393.745 272.883" fill="#9BABFF"/>
<path d="M409.859 257.6C408.803 257.6 407.809 258.083 406.881 259.047C405.952 260.012 405.241 261.351 404.749 263.064H404.935C407.275 263.064 409.067 262.759 410.313 262.148C411.559 261.537 412.183 260.653 412.183 259.494C412.183 258.951 411.996 258.499 411.621 258.139C411.247 257.78 410.66 257.6 409.859 257.6V257.6ZM407.72 272.883C405.832 272.883 404.349 272.324 403.272 271.206C402.195 270.087 401.656 268.537 401.656 266.557C401.656 264.629 402.039 262.78 402.803 261.009C403.567 259.24 404.58 257.861 405.841 256.877C407.105 255.892 408.495 255.4 410.013 255.4C411.583 255.4 412.763 255.741 413.553 256.423C414.343 257.105 414.737 258.057 414.737 259.278C414.737 261.125 413.887 262.575 412.183 263.627C410.48 264.678 408.044 265.202 404.873 265.202H404.365L404.303 266.435C404.303 267.778 404.619 268.828 405.249 269.582C405.881 270.336 406.857 270.713 408.181 270.713C408.828 270.713 409.492 270.621 410.175 270.436C410.857 270.251 411.707 269.912 412.721 269.42V271.668C411.757 272.119 410.905 272.435 410.167 272.615C409.428 272.794 408.612 272.883 407.72 272.883" fill="#9BABFF"/>
<path d="M419.272 230.441V179.636H426.387V230.441H419.272Z" fill="#9BABFF"/>
<path d="M433.903 223.192C438.092 224.256 442.015 224.788 444.476 224.788C447.401 224.788 450.393 224.19 450.595 220.665C450.792 216.941 446.937 215.812 442.548 213.949C437.559 211.888 432.172 209.096 432.305 202.178C432.441 198.72 434.501 191.937 445.54 192.271C448.864 192.337 452.853 192.868 456.18 193.733L454.915 199.852C450.993 198.92 448.067 198.521 445.208 198.455C442.015 198.455 439.555 199.452 439.423 202.444C439.355 204.972 441.349 206.302 446.272 208.297C451.26 210.359 458.308 213.019 457.976 220.865C457.776 225.853 454.517 231.305 444.476 231.173C441.283 231.107 436.164 230.708 432.372 229.377L433.903 223.192" fill="#9BABFF"/>
<path d="M294.016 126.655L231.003 156.152C231 156.152 230.999 156.153 230.999 156.153V95.0107L294.011 124.383C294.451 124.588 294.735 125.033 294.735 125.521C294.737 126.004 294.455 126.449 294.016 126.655ZM163.969 126.564C163.531 126.359 163.248 125.913 163.249 125.424C163.249 125.303 163.267 125.184 163.301 125.072C163.401 124.732 163.644 124.444 163.975 124.292L226.983 95.004V156.065L163.969 126.564ZM163.975 34.912L227.08 5.58002C227.685 5.30002 228.335 5.1587 228.984 5.1587C229.636 5.1587 230.285 5.30002 230.891 5.58269L294.011 35.004C294.451 35.208 294.735 35.6533 294.735 36.1427C294.737 36.6253 294.455 37.0707 294.016 37.276L262.109 52.212C237.228 63.86 237.228 63.86 233 65.8227L230.623 66.928C230.448 66.992 230.271 67.0333 230.092 67.0747C230.011 67.0947 229.932 67.124 229.849 67.1387C229.583 67.1853 229.309 67.2067 229.019 67.1987C228.371 67.1893 227.749 67.0493 227.168 66.7733L163.969 37.1854C163.86 37.1334 163.763 37.0693 163.676 36.996C163.416 36.7653 163.259 36.428 163.249 36.0507C163.253 35.5614 163.537 35.116 163.975 34.912ZM163.249 120.2L163.245 41.2827L225.461 70.408C225.977 70.652 226.513 70.836 227.061 70.9694C227.081 70.9734 227.097 70.984 227.116 70.9893C227.017 71.572 226.983 72.2134 226.983 72.9187V90.524V90.76C226.943 90.7693 226.905 90.7893 226.865 90.8C226.363 90.9293 225.868 91.0947 225.391 91.316L163.249 120.2ZM295.708 120.744L232.589 91.3227C232.081 91.0853 231.545 90.9067 230.999 90.7733V90.524V72.9187C230.999 71.1774 231.06 71.148 232.184 70.6293L232.181 70.6253L234.692 69.464C238.921 67.5 238.921 67.5 263.811 55.8494L295.719 40.9107C297.564 40.0467 298.756 38.172 298.751 36.1374C298.751 34.1 297.556 32.2254 295.708 31.3654L232.588 1.94401C230.303 0.878682 227.68 0.878675 225.391 1.93734L162.284 31.2707C160.445 32.1227 159.252 33.984 159.236 36.0187H159.231L159.235 125.424C159.231 127.46 160.42 129.333 162.267 130.2L225.461 159.787C225.712 159.905 227.395 160.589 229.109 160.59C230.755 160.59 232.435 159.913 232.703 159.789L295.719 130.291C297.564 129.427 298.756 127.551 298.751 125.516C298.751 123.479 297.556 121.604 295.708 120.744" fill="#9BABFF"/>
<path d="M228.984 6.1587C228.471 6.1587 227.971 6.26936 227.499 6.48802L164.396 35.82C164.309 35.86 164.251 35.956 164.249 36.0587C164.252 36.12 164.283 36.1987 164.339 36.2467L227.592 65.868C228.043 66.0814 228.527 66.192 229.032 66.1987C229.264 66.2013 229.475 66.188 229.679 66.1534L229.856 66.1027C230.003 66.068 230.144 66.0387 230.279 65.988L232.579 64.916C236.807 62.9533 236.807 62.9533 261.684 51.3067L293.592 36.3707C293.679 36.3294 293.735 36.24 293.735 36.148C293.735 36.0427 293.677 35.952 293.589 35.9107L230.469 6.48936C229.999 6.27069 229.5 6.1587 228.984 6.1587V6.1587ZM229.135 68.2C229.087 68.2 229.039 68.2 228.992 68.1987C228.211 68.188 227.449 68.0133 226.741 67.6773L163.545 38.0907C163.359 38.0027 163.185 37.892 163.028 37.7587C162.544 37.3293 162.265 36.7213 162.249 36.0747C162.257 35.1693 162.768 34.3707 163.553 34.0053L226.659 4.67334C228.139 3.98934 229.847 3.99201 231.315 4.67601L294.433 34.0973C295.224 34.4653 295.735 35.268 295.735 36.1427C295.74 37.0093 295.231 37.812 294.44 38.1827L262.533 53.1174C237.651 64.7667 237.651 64.7667 233.421 66.7293L231.045 67.8347C230.753 67.944 230.537 67.9973 230.32 68.0493C230.195 68.0853 230.109 68.108 230.021 68.1227C229.723 68.1747 229.432 68.2 229.135 68.2V68.2ZM164.245 42.856L164.249 118.632L224.969 90.4093C225.288 90.2613 225.624 90.1293 225.983 90.0147V72.9187C225.983 72.472 225.996 72.0733 226.024 71.7107C225.699 71.6013 225.36 71.4653 225.035 71.3133L164.245 42.856ZM162.249 121.768L162.245 39.7107L225.885 69.5027C226.327 69.7107 226.801 69.8773 227.299 69.9973L228.383 70.2747L228.103 71.156C228.021 71.636 227.983 72.196 227.983 72.9187V91.5467L227.219 91.732C226.625 91.8947 226.199 92.0427 225.812 92.2227L162.249 121.768ZM164.393 125.659L225.983 154.494V96.572L164.396 125.199C164.329 125.229 164.28 125.287 164.26 125.355C164.249 125.527 164.305 125.617 164.395 125.659H164.393ZM227.983 157.637L163.544 127.469C162.755 127.099 162.247 126.295 162.249 125.421C162.249 125.207 162.28 124.991 162.343 124.784C162.525 124.167 162.968 123.656 163.555 123.384L227.983 93.4374V157.637ZM231.999 96.5813V154.582L293.593 125.749C293.679 125.708 293.735 125.62 293.735 125.527C293.735 125.421 293.677 125.331 293.589 125.289L231.999 96.5813ZM229.999 157.952V93.4413L294.433 123.476C295.224 123.844 295.735 124.648 295.735 125.521C295.74 126.388 295.231 127.191 294.44 127.561L231.475 157.035L229.999 157.952ZM160.231 36.6694L160.235 125.424C160.232 127.073 161.196 128.593 162.692 129.295L225.885 158.882C225.903 158.889 227.488 159.589 229.111 159.59H229.112C230.475 159.59 231.959 159.032 232.281 158.882L295.293 129.385C296.791 128.685 297.755 127.167 297.751 125.519C297.751 123.865 296.783 122.348 295.285 121.651L232.167 92.2293C231.743 92.0307 231.271 91.868 230.763 91.7453L229.999 91.56V72.9187C229.999 71.4414 230.084 70.7987 230.817 70.252L230.776 70.1787L234.273 68.556C238.499 66.5933 238.499 66.5933 263.387 54.9427L295.293 40.0053C296.791 39.3053 297.755 37.788 297.751 36.14C297.751 34.4867 296.783 32.968 295.285 32.272L232.165 2.84935C230.149 1.91202 227.833 1.91068 225.811 2.84401L162.705 32.1773C161.219 32.8667 160.248 34.3773 160.236 36.0253L160.231 36.6694ZM229.112 161.59C229.111 161.59 229.111 161.59 229.109 161.59C226.999 161.589 225.053 160.7 225.035 160.69L161.843 131.105C159.645 130.075 158.231 127.844 158.235 125.421L158.231 35.0187H158.323C158.665 33 159.981 31.2347 161.863 30.364L224.969 1.03067C227.531 -0.153331 230.461 -0.150658 233.009 1.03734L296.129 30.4587C298.329 31.4827 299.751 33.7107 299.751 36.1374C299.757 38.5574 298.34 40.788 296.141 41.8174L264.235 56.7547C239.343 68.4067 239.343 68.4067 235.112 70.3707L232.604 71.5374C232.359 71.6507 232.081 71.7787 232.015 71.8374C231.999 71.9267 231.999 72.572 231.999 72.9187V90.0187C232.353 90.1334 232.692 90.268 233.012 90.416L296.129 119.837C298.331 120.861 299.751 123.091 299.751 125.516C299.757 127.937 298.34 130.167 296.143 131.196L233.127 160.695C233.104 160.705 231.137 161.59 229.112 161.59" fill="#9BABFF"/>
</svg>
