<?xml version="1.0" encoding="UTF-8"?>
<svg width="173px" height="99px" viewBox="0 0 173 99" version="1.1" xmlns="http://www.w3.org/2000/svg" xmlns:xlink="http://www.w3.org/1999/xlink">
    <!-- Generator: Sketch 52.6 (67491) - http://www.bohemiancoding.com/sketch -->
    <title>commercetools</title>
    <desc>Created with Sketch.</desc>
    <g id="GraphQL-Conf-2019" stroke="none" stroke-width="1" fill="none" fill-rule="evenodd">
        <g id="Landingpage-Copy" transform="translate(-381.000000, -3790.000000)">
            <g id="commercetools" transform="translate(381.000000, 3790.000000)">
                <path d="M7.04653,96.4414 C8.16565,96.4414 8.81546,96.3667 10.2595,96.0681 L10.6205,98.5316 C9.53748,98.8302 8.31005,98.9795 7.08263,98.9795 C1.59532,98.9795 0.042984,95.4336 0.042984,91.2905 C0.0790848,87.2594 2.46173,83.8628 7.08263,83.8628 C8.31005,83.8628 9.35698,84.0121 10.6205,84.348 L10.1512,86.8115 C8.81546,86.5129 7.98515,86.4383 7.15483,86.4383 C4.26677,86.4756 2.82274,88.7151 2.78664,91.2905 C2.78664,93.866 3.72526,96.4041 7.11873,96.4041 L7.04653,96.4414 Z" id="Path" fill="#9BABFF"></path>
                <path d="M18.275,83.8628 C22.7876,83.9001 24.7731,87.3714 24.7731,91.4025 C24.7731,95.359 23.0403,98.9048 18.2389,98.9422 C13.5458,98.9048 11.7408,95.359 11.7408,91.4025 C11.7408,87.3341 13.7624,83.9001 18.275,83.8628 Z M18.275,96.4414 C21.1631,96.4041 22.0656,94.0153 22.0656,91.4025 C22.0295,89.0137 21.0548,86.3263 18.2389,86.3263 C15.4952,86.3636 14.4122,88.9764 14.4122,91.4025 C14.4122,94.1272 15.5674,96.4414 18.275,96.4414 Z" id="Shape" fill="#9BABFF" fill-rule="nonzero"></path>
                <path d="M43.4011,98.6809 L43.4011,89.3869 C43.4011,87.0354 42.5347,86.4009 41.1268,86.4009 C40.1521,86.4009 39.033,86.9608 38.0582,87.8192 C38.0943,88.1178 38.1304,88.7524 38.1304,88.939 L38.1304,98.7182 L35.3146,98.7182 L35.3146,89.3122 C35.3146,86.9608 34.6287,86.4009 33.2207,86.4009 C32.3182,86.4009 31.0547,87.0354 30.0078,87.8566 L30.0078,98.7555 L27.228,98.7555 L27.228,84.1987 L30.0078,84.1987 L30.0078,85.4304 C30.8742,84.7212 32.2099,83.9374 33.69,83.9001 C35.6395,83.8628 36.7586,84.5719 37.4084,85.6544 C38.5636,84.5346 40.2604,83.9374 41.56,83.9001 C46.1448,83.8254 46.217,87.6326 46.217,89.2376 L46.217,98.7555 L43.4372,98.7555 L43.4011,98.6809 Z" id="Path" fill="#9BABFF"></path>
                <path d="M65.3865,98.6809 L65.3865,89.3869 C65.3865,87.0354 64.5201,86.4009 63.1122,86.4009 C62.1374,86.4009 61.0183,86.9608 60.0436,87.8192 C60.0797,88.1178 60.1158,88.7524 60.1158,88.939 L60.1158,98.7182 L57.2999,98.7182 L57.2999,89.3122 C57.2999,86.9608 56.614,86.4009 55.2061,86.4009 C54.3036,86.4009 53.04,87.0354 51.9931,87.8566 L51.9931,98.7555 L49.2134,98.7555 L49.2134,84.1987 L51.9931,84.1987 L51.9931,85.4304 C52.8595,84.7212 54.1953,83.9374 55.6754,83.9001 C57.6248,83.8628 58.744,84.5719 59.3938,85.6544 C60.549,84.5346 62.2457,83.9374 63.5454,83.9001 C68.1302,83.8254 68.2024,87.6326 68.2024,89.2376 L68.2024,98.7555 L65.4226,98.7555 L65.3865,98.6809 Z" id="Path" fill="#9BABFF"></path>
                <path d="M81.1264,96.0308 L81.5596,98.3823 C80.2961,98.8302 78.5994,99.0168 77.2276,99.0168 C71.668,99.0168 70.3323,95.1723 70.3323,91.3278 C70.3323,87.4833 71.9929,83.9001 76.6499,83.9001 C79.538,83.9001 81.9206,85.729 81.9567,90.432 L81.9206,91.9623 L73.076,91.9623 C73.1121,94.799 74.5922,96.5533 77.372,96.5533 C78.455,96.5533 79.6102,96.4414 81.1625,96.0681 L81.1264,96.0308 Z M73.1843,89.7228 L79.3575,89.7228 C79.2492,86.7741 77.8413,86.1769 76.5055,86.1769 C74.4117,86.1396 73.437,87.6326 73.1843,89.7228 Z" id="Shape" fill="#9BABFF" fill-rule="nonzero"></path>
                <path d="M92.1371,86.7742 C91.4151,86.5876 90.8014,86.5502 90.3321,86.5502 C88.5993,86.5129 87.6968,87.4087 87.0469,88.1179 L87.0469,98.6809 L84.2672,98.6809 L84.2672,84.1241 L87.0469,84.1241 L87.0469,85.4305 C87.769,84.6466 88.8881,83.9748 90.296,83.9748 C90.8736,83.9375 91.8122,84.0494 92.6064,84.348 L92.101,86.8115 L92.1371,86.7742 Z" id="Path" fill="#9BABFF"></path>
                <path d="M100.26,96.4414 C101.379,96.4414 102.029,96.3667 103.473,96.0681 L103.834,98.5316 C102.751,98.8302 101.523,98.9795 100.296,98.9795 C94.8086,98.9795 93.2563,95.4336 93.2563,91.2905 C93.2924,87.2594 95.675,83.8628 100.296,83.8628 C101.523,83.8628 102.57,84.0121 103.834,84.348 L103.364,86.8115 C102.029,86.5129 101.198,86.4383 100.368,86.4383 C97.4801,86.4756 96.036,88.7151 95.9999,91.2905 C95.9999,93.866 96.9386,96.4041 100.332,96.4041 L100.26,96.4414 Z" id="Path" fill="#9BABFF"></path>
                <path d="M115.747,96.0308 L116.18,98.3823 C114.917,98.8302 113.22,99.0168 111.848,99.0168 C106.289,99.0168 104.953,95.1723 104.953,91.3278 C104.953,87.4833 106.614,83.9001 111.271,83.9001 C114.159,83.9001 116.541,85.729 116.577,90.432 L116.541,91.9623 L107.697,91.9623 C107.733,94.799 109.213,96.5533 111.993,96.5533 C113.076,96.5533 114.231,96.4414 115.783,96.0681 L115.747,96.0308 Z M107.805,89.7228 L113.978,89.7228 C113.87,86.7741 112.462,86.1769 111.126,86.1769 C109.032,86.1396 108.058,87.6326 107.805,89.7228 Z" id="Shape" fill="#9BABFF" fill-rule="nonzero"></path>
                <path d="M125.927,86.513 L122.101,86.513 L122.101,93.5674 C122.101,95.0231 122.281,96.0682 123.725,96.2921 C124.52,96.3668 125.35,96.2921 126.144,96.1802 L126.325,98.681 C125.494,98.8303 124.339,98.8676 123.834,98.8676 C120.548,98.7556 119.321,97.0013 119.321,94.2766 L119.321,86.513 L117.299,86.513 L117.299,84.5347 L119.321,84.3108 L119.321,80.9142 L122.065,80.9142 L122.065,84.1615 L125.891,84.1615 L125.891,86.5503 L125.927,86.513 Z" id="Path" fill="#9BABFF"></path>
                <path d="M134.014,83.8628 C138.527,83.9001 140.512,87.3714 140.512,91.4025 C140.512,95.359 138.779,98.9048 133.978,98.9422 C129.285,98.9048 127.48,95.359 127.48,91.4025 C127.48,87.3341 129.501,83.9001 134.014,83.8628 Z M134.014,96.4414 C136.902,96.4041 137.805,94.0153 137.805,91.4025 C137.769,89.0137 136.794,86.3263 133.978,86.3263 C131.234,86.3636 130.151,88.9764 130.151,91.4025 C130.151,94.1272 131.306,96.4414 134.014,96.4414 Z" id="Shape" fill="#9BABFF" fill-rule="nonzero"></path>
                <path d="M148.96,83.8628 C153.472,83.9001 155.458,87.3714 155.458,91.4025 C155.458,95.359 153.725,98.9048 148.924,98.9422 C144.231,98.9048 142.425,95.359 142.425,91.4025 C142.425,87.3341 144.447,83.9001 148.96,83.8628 Z M148.96,96.4414 C151.848,96.4041 152.75,94.0153 152.75,91.4025 C152.714,89.0137 151.739,86.3263 148.924,86.3263 C146.18,86.3636 145.097,88.9764 145.097,91.4025 C145.097,94.1272 146.252,96.4414 148.96,96.4414 Z" id="Shape" fill="#9BABFF" fill-rule="nonzero"></path>
                <polygon id="Path" fill="#9BABFF" points="157.66 98.681 157.66 78.936 160.368 78.936 160.368 98.681"></polygon>
                <path d="M163.183,95.8443 C164.772,96.2548 166.252,96.4788 167.154,96.4788 C168.237,96.4788 169.393,96.2548 169.465,94.8738 C169.537,93.4181 168.093,92.9702 166.432,92.261 C164.555,91.4772 162.534,90.3575 162.57,87.6701 C162.606,86.3263 163.4,83.6763 167.552,83.8256 C168.815,83.8629 170.295,84.0495 171.559,84.3854 L171.089,86.7743 C169.609,86.401 168.526,86.2517 167.443,86.2144 C166.252,86.2144 165.313,86.5876 165.277,87.782 C165.241,88.7525 165.999,89.275 167.84,90.0589 C169.645,90.8427 172.172,91.8131 172.245,94.6125 L172.245,94.8738 L172.245,94.9485 C172.172,96.8894 170.945,99.0169 167.154,98.9422 C165.963,98.9049 164.014,98.7556 162.606,98.2331 L163.183,95.8443 Z" id="Path" fill="#9BABFF"></path>
                <path d="M61.21,53.4715 C60.7138,53.7257 60.383,54.2343 60.383,54.7852 C60.383,55.3361 60.7138,55.8447 61.21,56.0989 L88.5017,69.194 C88.8739,69.3635 89.2461,69.4483 89.6596,69.4483 L89.6596,40.2069 C89.2461,40.2069 88.8326,40.2917 88.4604,40.4612 L61.1687,53.4715 L61.21,53.4715 Z" id="Path" fill-opacity="0.87" fill="#8795E0"></path>
                <path d="M89.6596,39.4483 L89.6596,69.4483 C90.0827,69.4483 90.5058,69.3613 90.929,69.1874 L118.813,55.7961 C119.321,55.5352 119.66,55.0135 119.66,54.4483 C119.66,53.8831 119.321,53.3613 118.813,53.1004 L90.8867,39.7526 C90.5058,39.5787 90.0827,39.4918 89.6596,39.4918 L89.6596,39.4483 Z" id="Path" fill="#9BABFF"></path>
                <path d="M60,14.9565 C60,15.5217 60.3387,16.0435 60.8469,16.3043 L88.7932,29.7391 C89.1743,29.913 89.5554,30 89.9788,30 C90.3176,30 90.6987,29.9565 91.0374,29.8261 C91.2915,29.6957 91.2491,29.7391 91.8419,29.4348 C94.7212,28.0435 92.8158,28.9565 119.153,16.3043 C119.661,16.0435 120,15.5217 120,14.9565 C120,14.3913 119.661,13.8696 119.153,13.6087 L91.2068,0.26087 C90.8257,0.0869565 90.4023,0 90.0212,0 L89.9788,0 C89.5554,0 89.1743,0.0869565 88.7932,0.26087 L60.8469,13.6087 C60.3387,13.8696 60,14.3913 60,14.9565 Z" id="Path" fill-opacity="0.72" fill="#9BABFF"></path>
                <path d="M90.4299,31.2003 L90.4299,40.0229 C90.0061,40.0229 89.5823,40.1089 89.2009,40.2811 L61.2306,53.4934 C60.722,53.7517 60.383,54.2681 60.383,54.8276 L60.383,15.6209 C60.383,15.6209 60.383,14.502 60.383,14.6311 C60.383,15.1905 60.722,15.707 61.2306,15.9652 L89.2433,29.2636 C89.6247,29.4358 90.0061,29.5219 90.4299,29.5219 C90.7689,29.5219 91.1503,29.4788 91.4894,29.3497 L91.447,29.3927 C90.557,29.7801 90.4299,30.2104 90.4299,31.2433 L90.4299,31.2003 Z" id="Path" fill-opacity="0.37" fill="#9BABFF"></path>
                <path d="M61.0042,53.0476 C60.963,53.0686 60.9226,53.0908 60.883,53.1143 L60.883,16.3443 C60.9226,16.3678 60.963,16.3901 61.0042,16.411 L61.0041,16.4112 L61.0161,16.4169 L89.0288,29.7153 L89.0288,29.7154 L89.0376,29.7194 C89.3781,29.873 89.7232,29.9691 90.0903,30.0054 C89.9543,30.3615 89.9313,30.7674 89.93,31.2003 L89.9299,31.2003 L89.9299,31.2433 L89.9299,39.5576 C89.6083,39.6025 89.2921,39.6913 88.9952,39.8254 L88.9952,39.8253 L88.9873,39.829 L61.017,53.0413 L61.0106,53.0444 L61.0042,53.0476 Z" id="Path" stroke-opacity="0.722741168" stroke="#9BABFF"></path>
            </g>
        </g>
    </g>
</svg>