<svg width="345" height="49" viewBox="0 0 345 49" fill="none" xmlns="http://www.w3.org/2000/svg">
<path d="M173.045 16.1165C173.255 12.0745 174.704 8.77143 176.969 6.19461V2.76098H173.959C167.875 2.76098 162.725 5.09254 159.731 10.3608H159.556V3.34068H143.952V46.1528H159.559V28.8699C159.559 21.5345 161.706 15.9413 170.366 15.9413C171.309 15.9476 172.191 16.0018 173.045 16.1165Z" fill="#9BABFF"/>
<path d="M291.212 15.9604C292.509 12.1764 294.611 8.80646 297.344 6.10224V2.7578H294.34C288.253 2.7578 283.109 5.08935 280.099 10.3545H279.93V3.34068H264.316V46.1528H279.93V28.8699C279.93 21.5345 282.083 15.9413 290.744 15.9413L291.212 15.9604Z" fill="#9BABFF"/>
<path d="M204.741 14.3551C202.333 13.1033 198.982 12.2688 196.316 12.2688C194.526 12.2688 191.433 13.0141 191.433 15.1896C191.433 18.1136 196.316 18.5276 198.476 18.9545C205.751 20.3687 211.255 23.7099 211.255 31.6283C211.255 42.8911 200.702 47.5797 190.487 47.5797C184.222 47.5797 178.058 45.8247 172.733 42.6522L178.393 32.0456C181.562 34.2242 186.881 36.387 190.742 36.387C192.717 36.387 195.631 35.4728 195.631 33.1349C195.631 29.7968 190.742 29.6216 185.846 28.3731C180.963 27.1213 176.08 24.7897 176.08 17.1102C176.08 6.59276 185.846 1.92646 195.472 1.92646C200.447 1.92646 205.426 2.67498 209.961 4.67846L204.741 14.3551Z" fill="#9BABFF"/>
<path d="M344.15 46.1528H328.543V41.3909H328.371C325.625 45.6463 320.21 47.5638 315.072 47.5638C302.026 47.5638 292.856 36.9635 292.856 24.6942C292.856 12.4376 301.863 1.91691 314.897 1.91691C319.955 1.91691 325.281 3.75157 328.539 7.50372V3.34068H344.144L344.15 46.1528ZM308.982 24.7865C308.982 30.2077 312.677 34.3803 319.016 34.3803C325.361 34.3803 329.039 30.2141 329.039 24.7865C329.039 19.5278 325.361 15.1068 319.016 15.1068C312.677 15.1099 308.982 19.5278 308.982 24.7865Z" fill="#9BABFF"/>
<path d="M261.854 27.2965H228.993C228.993 33.4662 232.347 36.8011 238.778 36.8011C242.122 36.8011 244.521 35.7213 246.241 32.8801H261.256C258.768 42.9803 248.9 47.5702 238.867 47.5702C224.295 47.5702 213.401 39.5531 213.401 24.7897C213.401 10.5201 223.425 1.92646 237.749 1.92646C253.015 1.92646 261.861 11.1094 261.861 25.7071L261.854 27.2965ZM247.355 18.5276C246.581 14.4379 242.721 11.7687 238.523 11.7687C233.971 11.7687 230.213 14.0971 229.254 18.5276H247.355Z" fill="#9BABFF"/>
<path d="M94.3072 24.0412C94.2913 23.6717 94.2658 23.3118 94.2371 22.9455V22.9328C93.8868 18.9608 92.5745 15.2437 90.348 11.8865C89.3543 10.3895 88.2172 9.02942 86.9463 7.8095C85.0893 6.02261 82.9393 4.54468 80.5154 3.37572C76.8683 1.63343 72.8391 0.754314 68.5391 0.754314C68.1186 0.754314 67.6791 0.760685 67.2363 0.776611C64.2168 0.913574 61.296 1.48691 58.5503 2.49661C55.7824 3.49676 53.3712 4.81861 51.3996 6.40483C50.9983 6.72335 50.5619 7.11513 50.0937 7.54513L49.756 7.87639L49.2942 8.36691H49.3006L49.084 8.58031L48.9789 8.69498L48.4278 9.27468C48.0201 9.73335 47.6315 10.192 47.2684 10.6411L47.2652 10.6348L47.2525 10.622C46.4976 11.5394 45.8 12.4885 45.2872 13.3422C44.94 13.89 44.5992 14.4538 44.2743 15.0176L39.7737 24.1176L39.78 24.124L39.5443 24.5859L39.0475 25.5924C38.06 27.5895 37.0026 29.5802 35.8209 31.2238C33.1867 34.1128 30.2086 35.527 26.38 35.527C26.1124 35.527 25.8385 35.5142 25.5582 35.4983C23.2521 35.4059 21.2741 34.8613 19.5191 33.8229C19.3312 33.7114 19.1496 33.5968 18.9744 33.4789C17.5411 32.5265 16.4422 31.3034 15.6204 29.7777C14.6935 28.0482 14.2826 26.2804 14.34 24.4075C14.3432 24.3565 14.3463 24.3119 14.3463 24.2705C14.4706 21.2892 15.6077 18.9704 17.8978 16.9669C18.4552 16.4859 19.0381 16.0782 19.6465 15.7151C19.7325 15.6642 19.8185 15.6164 19.9045 15.5718C21.6054 14.6449 23.542 14.1831 25.762 14.1831L26.4532 14.2022C29.9792 14.3359 32.6994 15.438 34.8685 17.588L41.672 5.37283C40.0444 4.2835 38.2066 3.34705 36.1808 2.5858C36.1043 2.55713 36.0247 2.52528 35.9451 2.4998C35.703 2.4138 35.4641 2.32461 35.2157 2.24498C33.0625 1.52513 30.8042 1.08239 28.479 0.881722C28.4217 0.872166 28.358 0.865796 28.3006 0.859425C27.9439 0.837129 27.5808 0.792537 27.224 0.776611C26.8355 0.760685 26.4437 0.754314 26.0615 0.751129H25.8417C21.564 0.767055 17.5889 1.64298 13.9546 3.37891C9.88389 5.34098 6.58404 8.19809 4.13782 11.8802C1.69797 15.5622 0.366559 19.6488 0.175448 24.0348C0.159522 24.4107 0.149967 24.7833 0.149967 25.1496C0.146782 31.2843 2.38278 36.68 6.8293 41.2094C11.4701 45.9616 17.506 48.5225 24.7523 48.8251C25.2174 48.8442 25.676 48.857 26.1347 48.857C30.234 48.857 34.0276 48.1276 37.4294 46.6688C38.2798 46.3056 39.1048 45.8788 39.9489 45.4042C40.4075 45.1399 40.8407 44.8596 41.2707 44.5602L41.5892 44.3468L42.1243 43.9805C42.7677 43.5186 43.3697 43.0185 43.9558 42.4866L44.1597 42.2923C44.5037 41.9642 44.8477 41.633 45.1726 41.2922L46.3925 39.913L46.8575 39.3301L47.0741 39.0116L47.2907 38.6994C49.1031 35.6544 55.002 24.5731 55.002 24.5731V24.5508L55.3524 23.8756L55.6455 23.3468C56.515 21.7638 57.1425 20.6394 57.9738 19.4577L57.9961 19.4227C59.9359 16.6102 63.2708 14.6067 67.2013 14.2691C73.7946 13.7021 79.5726 18.0339 80.1045 23.9456C80.6332 29.8573 75.7153 35.1097 69.122 35.6799C67.7492 35.7977 66.4146 35.7053 65.1564 35.4282L65.1246 35.441C60.2863 34.4345 57.2062 30.9053 55.6869 29.3286L49.342 40.9959C49.342 40.9959 51.3136 42.9835 52.6641 43.9773C54.0178 44.9679 55.7665 45.9425 57.1616 46.5477C60.5474 47.9938 64.2295 48.8602 68.297 48.8602C68.7684 48.8602 68.6729 48.8602 69.1634 48.8411C76.4033 48.5385 82.8565 45.7642 87.51 41.0119C91.9183 36.4985 94.3104 31.3448 94.3327 25.2452V25.0636C94.3295 24.726 94.32 24.3852 94.3072 24.0412Z" fill="#9BABFF"/>
<path d="M118.578 47.5988C115.288 47.5988 112.304 47.2166 109.625 46.4522C106.946 45.6877 104.659 44.4805 102.764 42.8242C100.862 41.1679 99.3972 39.0593 98.3652 36.5016C97.3332 33.9439 96.8172 30.8607 96.8172 27.2678V3.33113H111.874V27.0767C111.874 29.7682 112.517 31.7175 113.801 32.9342C115.087 34.1542 116.721 34.7625 118.703 34.7625C120.728 34.7625 122.372 34.1956 123.64 33.0585C124.901 31.9213 125.538 30.0357 125.538 27.3856V3.33113H140.594V26.9525C140.594 30.6728 140.066 33.8356 139.011 36.4379C137.957 39.0434 136.47 41.1711 134.555 42.8274C132.631 44.4837 130.316 45.6877 127.592 46.4553C124.869 47.2166 121.865 47.5988 118.578 47.5988Z" fill="#9BABFF"/>
</svg>
