<svg width="359" height="64" viewBox="0 0 359 64" fill="none" xmlns="http://www.w3.org/2000/svg">
<path d="M303.317 43.5096C307.961 43.5096 311.741 39.5952 311.741 34.754C311.741 29.8451 307.961 25.9311 303.317 25.9311C298.674 25.9311 294.894 29.8451 294.894 34.754C294.894 39.5952 298.74 43.5096 303.317 43.5096ZM289.985 21.5527C293.565 17.971 298.275 15.9811 303.118 15.9811C308.292 15.9811 312.736 17.7726 316.319 21.1548C320.098 24.7366 322.157 29.6457 322.157 34.4879C322.157 39.861 320.366 44.3059 316.783 47.8875C313.135 51.536 308.623 53.4591 303.252 53.4591C297.812 53.4591 293.434 51.6022 289.786 47.7549C286.335 44.1728 284.546 39.5952 284.546 34.6211C284.546 29.6457 286.468 25.069 289.985 21.5527Z" fill="#9BABFF"/>
<path d="M226.527 43.5096C231.17 43.5096 234.951 39.5952 234.951 34.754C234.951 29.8451 231.17 25.9311 226.527 25.9311C221.884 25.9311 218.103 29.8451 218.103 34.754C218.103 39.5952 221.951 43.5096 226.527 43.5096ZM213.194 21.5527C216.776 17.971 221.485 15.9811 226.328 15.9811C231.503 15.9811 235.947 17.7726 239.528 21.1548C243.309 24.7366 245.367 29.6457 245.367 34.4879C245.367 39.861 243.575 44.3059 239.994 47.8875C236.344 51.536 231.834 53.4591 226.461 53.4591C221.021 53.4591 216.644 51.6022 212.995 47.7549C209.546 44.1728 207.755 39.5952 207.755 34.6211C207.755 29.6457 209.679 25.069 213.194 21.5527Z" fill="#9BABFF"/>
<path d="M99.1798 52.4622H109.594V3.12422L99.1798 5.29596V52.4622Z" fill="#9BABFF"/>
<path d="M83.2793 52.4584H93.6935V16.8376H83.2793V52.4584Z" fill="#9BABFF"/>
<path d="M88.4866 0C84.9579 0 82.0969 2.86071 82.0969 6.38941C82.0969 9.91812 84.9579 12.7786 88.4866 12.7786C92.015 12.7786 94.876 9.91812 94.876 6.38941C94.876 2.86071 92.015 0 88.4866 0Z" fill="#9BABFF"/>
<path d="M131.249 37.6L124.55 16.8378H112.942L126.01 50.2695L120.947 64H131.493L150.088 16.8378H138.811L131.249 37.6Z" fill="#9BABFF"/>
<path d="M19.8508 43.0743C14.4778 43.0743 10.6306 39.293 10.6306 34.3182C10.6306 29.5424 14.4778 25.496 19.4528 25.496C24.3615 25.496 28.1424 29.3433 28.1424 34.4508C28.1424 39.3597 24.3615 43.0743 19.8508 43.0743ZM35.4342 34.5117C35.4342 30.5808 36.389 26.8936 38.225 23.605V3.0267L27.7445 5.19819V20.7202C25.3564 17.6688 22.0398 16.2095 17.7281 16.2095C13.2175 16.2095 9.17119 17.8676 5.85463 21.1179C2.14004 24.6999 0.149963 29.2771 0.149963 34.3849C0.149963 39.9567 2.27258 44.7325 6.38519 48.381C9.50279 51.1669 13.2175 52.5594 17.5291 52.5594C21.7744 52.5594 24.9585 51.4319 28.0759 48.381V52.3606H38.225V45.6163C36.3983 42.304 35.4342 38.5639 35.4342 34.5117Z" fill="#9BABFF"/>
<path d="M205.765 24.6704C205.322 22.7707 204.573 21.2675 203.434 19.9355C201.454 17.6203 198.665 16.5309 195.306 16.2431C192.577 16.0092 190.225 16.3591 187.958 17.5556C185.505 18.8507 182.719 21.8789 182.719 21.8789C182.719 21.8789 179.951 16.1751 173.025 16.1751C168.137 16.1751 165.155 18.2494 163.151 21.6139V16.8378H153.666V52.4584H163.616V33.7042C163.616 29.8011 164.524 25.927 169.794 25.927C174.339 25.927 174.693 29.6293 174.693 32.7035V52.4584H184.975V33.5824C184.975 27.5672 187.59 25.9285 191.194 25.9285C194.101 25.9285 196.052 27.2426 196.052 32.7035V52.4584H206.268V45.6696C204.441 42.3235 203.478 38.5661 203.478 34.5486C203.478 31.0722 204.284 27.7203 205.765 24.6704Z" fill="#9BABFF"/>
<path d="M262.465 3.12422L251.851 5.29596V17.0192H247.341V27.3284H251.851V52.4584H262.465V27.3284H267.174V17.0192H262.465V3.12422Z" fill="#9BABFF"/>
<path d="M276.984 12.7786C280.514 12.7786 283.374 9.91812 283.374 6.38941C283.374 2.86071 280.514 0 276.984 0C273.455 0 270.595 2.86071 270.595 6.38941C270.595 9.91812 273.455 12.7786 276.984 12.7786Z" fill="#9BABFF"/>
<path d="M282.191 25.5086V16.8378H271.777V52.4584H282.191V43.9611C280.936 41.0795 280.269 37.9411 280.269 34.6206C280.269 31.4339 280.941 28.3504 282.191 25.5086Z" fill="#9BABFF"/>
<path d="M346.093 16.1746C341.381 16.1746 338.066 18.0318 335.876 21.6139L336.01 16.8378H326.058V52.4584H336.341V33.1555C336.341 28.3795 338.529 25.9253 342.642 25.9253C346.689 25.9253 347.75 28.1806 347.75 33.1555V52.4584H358.23V28.9765C358.23 20.8178 353.455 16.1746 346.093 16.1746Z" fill="#9BABFF"/>
<path d="M59.4129 43.1726C63.9228 43.1726 67.7039 39.4569 67.7039 34.5491C67.7039 29.4408 63.9228 25.5945 59.0147 25.5945C54.0398 25.5945 50.1923 29.6402 50.1923 34.4164C50.1923 39.3913 54.0398 43.1726 59.4129 43.1726ZM67.6375 48.4793C64.5201 51.5302 61.336 52.6577 57.0908 52.6577C52.7791 52.6577 49.0645 51.2641 45.9473 48.4793C41.835 44.8295 39.7123 40.054 39.7123 34.4824C39.7123 29.3756 41.7019 24.7979 45.4165 21.2167C48.7333 17.9659 52.7791 16.3078 57.2901 16.3078C61.6013 16.3078 64.9183 17.7666 67.3063 20.8188V16.8383H77.7863V52.4584H67.6375V48.4793Z" fill="#9BABFF"/>
</svg>
