<?xml version="1.0" encoding="UTF-8"?>
<svg width="199px" height="54px" viewBox="0 0 199 54" version="1.1" xmlns="http://www.w3.org/2000/svg" xmlns:xlink="http://www.w3.org/1999/xlink">
    <!-- Generator: Sketch 52.6 (67491) - http://www.bohemiancoding.com/sketch -->
    <title>Group</title>
    <desc>Created with Sketch.</desc>
    <g id="GraphQL-Conf-2019" stroke="none" stroke-width="1" fill="none" fill-rule="evenodd">
        <g id="Landingpage-Copy" transform="translate(-596.000000, -3735.000000)" fill="#9BABFF">
            <g id="Group" transform="translate(596.000000, 3735.000000)">
                <path d="M38.6351354,23.1362449 L21.9966464,23.1362449 C21.5673122,23.1362449 21.219337,23.4850408 21.219337,23.9159388 L21.219337,32.0699388 C21.219337,32.4997347 21.5673122,32.8501837 21.9966464,32.8501837 L28.4872348,32.8501837 L28.4872348,42.9806939 C28.4872348,42.9806939 27.0299171,43.4788163 23.000442,43.4788163 C18.2469807,43.4788163 11.6063177,41.7381429 11.6063177,27.1008367 C11.6063177,12.4607755 18.5212928,10.5344082 25.0129807,10.5344082 C30.6328066,10.5344082 33.0532403,11.5256939 34.594116,12.0039796 C35.0784227,12.1522041 35.5258978,11.6695102 35.5258978,11.2386122 L37.3817652,3.36067347 C37.3817652,3.159 37.3135994,2.916 37.0849144,2.75179592 C36.4593287,2.30436735 32.6425967,0.163653061 23.000442,0.163653061 C11.8932735,0.163653061 0.499149171,4.90022449 0.499149171,27.6716939 C0.499149171,50.4431633 13.5440939,53.8363469 24.5369199,53.8363469 C33.6386961,53.8363469 39.1601215,49.9378776 39.1601215,49.9378776 C39.3877072,49.8116939 39.4124448,49.4932041 39.4124448,49.3471837 L39.4124448,23.9159388 C39.4124448,23.4850408 39.0644696,23.1362449 38.6351354,23.1362449" id="Fill-11"></path>
                <path d="M124.383246,2.8917551 C124.383246,2.45810204 124.040218,2.10820408 123.610334,2.10820408 L114.241942,2.10820408 C113.814257,2.10820408 113.466282,2.45810204 113.466282,2.8917551 C113.466282,2.89395918 113.46903,21.0396122 113.46903,21.0396122 L98.8656188,21.0396122 L98.8656188,2.8917551 C98.8656188,2.45810204 98.5214917,2.10820408 98.0927072,2.10820408 L88.7248646,2.10820408 C88.2988287,2.10820408 87.9508536,2.45810204 87.9508536,2.8917551 L87.9508536,52.0306531 C87.9508536,52.4643061 88.2988287,52.8169592 88.7248646,52.8169592 L98.0927072,52.8169592 C98.5214917,52.8169592 98.8656188,52.4643061 98.8656188,52.0306531 L98.8656188,31.0125306 L113.46903,31.0125306 C113.46903,31.0125306 113.443193,52.029 113.443193,52.0306531 C113.443193,52.4643061 113.790619,52.8169592 114.219403,52.8169592 L123.609785,52.8169592 C124.039119,52.8169592 124.382146,52.4643061 124.383246,52.0306531 L124.383246,2.8917551" id="Fill-13"></path>
                <path d="M56.3137017,9.34034694 C56.3137017,5.95873469 53.6096105,3.22622449 50.2727873,3.22622449 C46.9392624,3.22622449 44.2324227,5.95873469 44.2324227,9.34034694 C44.2324227,12.718102 46.9392624,15.4577755 50.2727873,15.4577755 C53.6096105,15.4577755 56.3137017,12.718102 56.3137017,9.34034694" id="Fill-14"></path>
                <path d="M55.6441381,41.6654082 C55.6441381,40.4057755 55.6441381,18.9826531 55.6441381,18.9826531 C55.6441381,18.5517551 55.2972624,18.1996531 54.8690276,18.1996531 L45.5297707,18.1996531 C45.1015359,18.1996531 44.7183785,18.6426735 44.7183785,19.0735714 C44.7183785,19.0735714 44.7183785,46.3678163 44.7183785,51.570551 C44.7183785,52.5254694 45.3120801,52.8097959 46.0800442,52.8097959 C46.0800442,52.8097959 50.0666409,52.8097959 54.494116,52.8097959 C55.4176519,52.8097959 55.6441381,52.3552041 55.6441381,51.5551224 C55.6441381,49.8133469 55.6441381,42.9895102 55.6441381,41.6654082" id="Fill-15"></path>
                <path d="M159.987204,18.2740408 L150.690826,18.2740408 C150.26479,18.2740408 149.917365,18.6261429 149.917365,19.0592449 L149.917365,43.1537143 C149.917365,43.1537143 147.555202,44.8855714 144.202986,44.8855714 C140.85132,44.8855714 139.961867,43.360898 139.961867,40.0713061 C139.961867,36.7773061 139.961867,19.0592449 139.961867,19.0592449 C139.961867,18.6261429 139.615541,18.2740408 139.188406,18.2740408 L129.752948,18.2740408 C129.327461,18.2740408 128.978387,18.6261429 128.978387,19.0592449 C128.978387,19.0592449 128.978387,31.8903061 128.978387,41.662102 C128.978387,51.434449 134.411856,53.8253265 141.88645,53.8253265 C148.019169,53.8253265 152.963384,50.4293878 152.963384,50.4293878 C152.963384,50.4293878 153.198666,52.219102 153.305312,52.4312449 C153.411409,52.6428367 153.689019,52.8566327 153.989169,52.8566327 L159.991602,52.8296327 C160.417088,52.8296327 160.766163,52.4769796 160.766163,52.0455306 L160.762865,19.0592449 C160.762865,18.6261429 160.415989,18.2740408 159.987204,18.2740408" id="Fill-16"></path>
                <path d="M181.729878,44.8558163 C178.505199,44.7577347 176.317848,43.2909184 176.317848,43.2909184 L176.317848,27.729551 C176.317848,27.729551 178.475514,26.4037959 181.122983,26.1668571 C184.470801,25.866551 187.69658,26.8798776 187.69658,34.885102 C187.69658,43.3261837 186.240912,44.9924694 181.729878,44.8558163 Z M185.396536,17.1697959 C180.116439,17.1697959 176.525094,19.5314694 176.525094,19.5314694 L176.525094,2.8917551 C176.525094,2.45810204 176.178768,2.10820408 175.752182,2.10820408 L166.356854,2.10820408 C165.929718,2.10820408 165.582843,2.45810204 165.582843,2.8917551 L165.582843,52.0306531 C165.582843,52.4643061 165.929718,52.8169592 166.357953,52.8169592 C166.359052,52.8169592 172.874378,52.8169592 172.876577,52.8169592 C173.17013,52.8169592 173.392218,52.6654286 173.556586,52.3998367 C173.718754,52.135898 173.952387,50.1340408 173.952387,50.1340408 C173.952387,50.1340408 177.793856,53.782898 185.066152,53.782898 C193.604461,53.782898 198.500851,49.4419592 198.500851,34.2960612 C198.500851,19.1490612 190.680481,17.1697959 185.396536,17.1697959 Z" id="Fill-17"></path>
                <path d="M82.5696077,18.1952449 L75.5419392,18.1952449 C75.5419392,18.1952449 75.5314945,8.89126531 75.5314945,8.88961224 C75.5314945,8.53695918 75.3500856,8.36118367 74.9438398,8.36118367 L65.3676519,8.36118367 C64.9949392,8.36118367 64.7953895,8.52538776 64.7953895,8.88410204 L64.7953895,18.5005102 C64.7953895,18.5005102 59.9963011,19.6620612 59.6714144,19.7557347 C59.3487265,19.8494082 59.1106961,20.1480612 59.1106961,20.5045714 L59.1106961,26.5476122 C59.1106961,26.9823673 59.4570221,27.3328163 59.8852569,27.3328163 L64.7953895,27.3328163 C64.7953895,27.3328163 64.7953895,33.6535714 64.7953895,41.8709388 C64.7953895,52.6692857 72.3518923,53.73 77.4505801,53.73 C79.7808591,53.73 82.5679586,52.9800612 83.0280773,52.8097959 C83.3062376,52.7073061 83.4678564,52.4180204 83.4678564,52.1050408 L83.4761022,45.4575306 C83.4761022,45.0238776 83.1105359,44.6728776 82.6993425,44.6728776 C82.2892486,44.6728776 81.2420249,44.8398367 80.1634669,44.8398367 C76.7112017,44.8398367 75.5419392,43.2308571 75.5419392,41.148551 C75.5419392,39.067898 75.5413895,27.3328163 75.5413895,27.3328163 L82.5696077,27.3328163 C82.9978425,27.3328163 83.3447182,26.9823673 83.3447182,26.5476122 L83.3447182,18.9782449 C83.3447182,18.5445918 82.9978425,18.1952449 82.5696077,18.1952449" id="Fill-18"></path>
            </g>
        </g>
    </g>
</svg>