<svg width="345" height="54" viewBox="0 0 345 54" fill="none" xmlns="http://www.w3.org/2000/svg">
<path d="M231.12 1.05213C234.379 0.715271 237.633 0.32202 240.895 0C240.889 17.7972 240.893 35.5929 240.892 53.3901C237.636 53.4064 234.38 53.4005 231.126 53.3931C231.132 35.9461 231.145 18.4991 231.12 1.05213Z" fill="#9BABFF"/>
<path d="M4.76057 4.52758C8.7094 4.44893 12.6612 4.53945 16.61 4.47712C16.8118 4.52461 16.8386 4.76353 16.9454 4.90747C17.0715 5.21317 17.2125 5.51145 17.3565 5.80972C17.7245 6.66449 18.1682 7.48512 18.5466 8.33543C19.1758 9.67842 19.8302 11.0066 20.4312 12.3614C20.6405 12.7547 20.8349 13.1568 21.0159 13.5634C21.24 13.9968 21.4314 14.4449 21.6422 14.8857C21.8276 15.2863 22.0117 15.6885 22.2046 16.0862C22.6409 17.0285 23.1083 17.9545 23.5342 18.9013C23.6455 19.1417 23.7583 19.3806 23.8785 19.618C24.1308 20.1686 24.3994 20.7102 24.6591 21.2578C24.8089 21.6184 24.984 21.9686 25.1517 22.3218C25.4426 22.9733 25.7928 23.5965 26.0718 24.2539C26.1831 24.4869 26.2914 24.7214 26.4042 24.9558C26.6357 25.5123 26.9176 26.0451 27.1714 26.5912C27.2545 26.793 27.3421 26.9933 27.4296 27.1951C27.8733 28.0855 28.3304 28.9714 28.7132 29.89C28.8839 30.2298 29.0516 30.5697 29.2222 30.9095C29.4879 31.515 29.7728 32.113 30.0592 32.7096C30.4168 33.4471 30.7611 34.1906 31.1069 34.9325C31.6752 36.1123 32.2184 37.3024 32.7882 38.4822C33.0687 39.0728 33.3373 39.6708 33.6252 40.26C33.7379 40.5078 33.8507 40.7571 33.9724 41.002C34.2469 41.5822 34.5408 42.1565 34.7559 42.7634C34.6387 42.9652 34.5245 43.1715 34.4132 43.3778C33.7676 44.6184 33.1577 45.8768 32.5063 47.1129C32.3297 47.4498 32.1709 47.7941 31.9973 48.1309C31.65 48.7705 31.3413 49.4294 31.006 50.0749C30.6528 50.811 30.2521 51.5233 29.8945 52.2578C29.6096 52.8292 29.2979 53.3886 29.0367 53.9733C28.7741 53.9822 28.5114 53.9896 28.2502 54C28.0202 53.4762 27.7709 52.9612 27.5201 52.4493C27.0289 51.2843 26.4176 50.1758 25.9041 49.0228C25.5212 48.1769 25.1102 47.3459 24.7229 46.503C24.5359 46.0964 24.3489 45.6913 24.1441 45.2936C23.8547 44.7 23.5758 44.102 23.3072 43.498C22.8931 42.6744 22.4954 41.8434 22.1141 41.0049C22.0176 40.7942 21.9226 40.5835 21.8306 40.3713C21.3988 39.5046 20.9877 38.6276 20.5767 37.7491C20.2621 37.0398 19.897 36.3557 19.5854 35.6463C19.4681 35.4015 19.3494 35.1581 19.2292 34.9162C18.8093 34.0243 18.3789 33.1384 17.9693 32.2436C17.8106 31.8874 17.6399 31.5372 17.4425 31.2004C17.4218 31.1276 17.3817 30.9807 17.3609 30.9065C17.2021 30.6172 17.0552 30.3204 16.9157 30.0221C16.4008 28.8661 15.8072 27.7457 15.2952 26.5867C14.9198 25.8136 14.5651 25.0315 14.1882 24.2584C14.0977 24.0521 14.0042 23.8458 13.9092 23.641C13.7193 23.2448 13.5219 22.8501 13.3349 22.4524C13.0856 21.9553 12.8615 21.4463 12.6196 20.9447C12.2234 20.1033 11.8035 19.2723 11.434 18.4175C11.3642 18.281 11.2945 18.1459 11.2262 18.0094C10.925 17.3683 10.6326 16.7243 10.3165 16.0906C10.1815 15.7864 10.042 15.4867 9.89657 15.1884C9.61017 14.5889 9.32525 13.9879 9.04923 13.3839C8.24344 11.707 7.45248 10.0227 6.66153 8.33988C6.26828 7.5237 5.88987 6.70159 5.49513 5.88689C5.26512 5.42686 5.1004 4.9238 4.76057 4.52758Z" fill="#9BABFF"/>
<path d="M46.2671 16.0699C46.2804 12.2056 46.2404 8.33988 46.2878 4.47564C50.0393 4.53351 53.7908 4.47119 57.5422 4.5068C57.5437 20.8067 57.5378 37.108 57.5452 53.4079C53.7789 53.3812 50.0126 53.4138 46.2463 53.3916C46.2938 40.9515 46.2537 28.5114 46.2671 16.0699Z" fill="#9BABFF"/>
<path d="M149.455 53.4005C149.453 37.0873 149.44 20.774 149.461 4.4608C153.203 4.535 156.949 4.49345 160.691 4.48306C160.664 20.7903 160.673 37.0991 160.687 53.4079C156.943 53.3871 153.199 53.402 149.455 53.4005Z" fill="#9BABFF"/>
<path d="M75.3602 19.3583C78.0002 18.6193 80.7811 18.3581 83.5101 18.6505C84.868 18.7751 86.2243 19.0378 87.505 19.5201C89.6048 20.2665 91.436 21.8262 92.3145 23.8993C92.3991 24.1604 92.4911 24.4186 92.5905 24.6754C92.9125 25.8343 93.0609 27.0364 93.0491 28.2384C93.0535 36.5827 93.0491 44.927 93.052 53.2729C89.765 53.2773 86.4796 53.2847 83.1941 53.2699C83.2519 47.2509 83.203 41.229 83.2193 35.2086C83.1985 32.7823 83.2816 30.353 83.1258 27.9312C82.9833 26.3819 82.5352 24.7926 81.4756 23.6114C81.3717 23.5134 81.2693 23.414 81.1699 23.3161C80.6891 22.8664 80.1222 22.5325 79.5287 22.258C79.4515 22.2402 79.2972 22.2046 79.22 22.1853C77.9942 21.7015 76.6587 21.5991 75.3543 21.5947C73.9638 21.5665 72.5689 21.7089 71.2155 22.022C70.8415 22.1111 70.4958 22.2921 70.1203 22.3708C70.0966 22.1274 70.101 21.8825 70.0995 21.6392C71.5479 20.6256 73.2129 19.9771 74.8898 19.4459C75.0456 19.4162 75.2029 19.388 75.3602 19.3583Z" fill="#9BABFF"/>
<path d="M206.98 19.342C208.218 18.9918 209.482 18.6905 210.773 18.6401C210.766 18.8894 210.76 19.1402 210.759 19.3895C209.542 19.6967 208.412 20.3288 207.547 21.2415C207.029 21.7772 206.608 22.3945 206.268 23.0549C206.074 23.4303 205.905 23.8176 205.753 24.2109C205.057 26.1178 204.79 28.1478 204.657 30.1631C204.452 33.5287 204.572 37.0116 205.838 40.1813C206.82 42.6937 208.766 44.8484 211.287 45.8738C211.432 45.9257 211.579 45.9777 211.731 46.0281C213.011 46.4852 214.372 46.7033 215.731 46.7078C217.859 46.7627 219.996 46.4021 221.988 45.6512C222.138 45.5919 222.292 45.5355 222.449 45.482C223.659 44.8988 224.953 44.3527 225.892 43.3615C225.917 43.8586 225.978 44.375 225.813 44.8573C224.634 47.4067 222.795 49.6416 220.505 51.268C219.183 52.1851 217.699 52.844 216.163 53.3055C212.983 54.1543 209.595 54.0965 206.411 53.2981C203.978 52.608 201.656 51.406 199.848 49.6179C198.259 48.122 197.05 46.2582 196.174 44.2682C194.861 41.186 194.425 37.7817 194.607 34.4517C194.721 33.1043 194.996 31.7702 195.426 30.4866C196.87 26.0911 200.228 22.4301 204.357 20.3912C204.775 20.1745 205.209 19.9846 205.649 19.808C205.9 19.7145 206.155 19.6225 206.409 19.5245C206.595 19.4607 206.788 19.4014 206.98 19.342Z" fill="#9BABFF"/>
<path d="M251.823 21.004C253.997 19.6314 256.518 18.8182 259.081 18.6401C259.084 18.9265 259.088 19.2114 259.096 19.4978C258.023 19.5557 257.011 20.0009 256.101 20.5485C255.191 21.1643 254.547 22.1155 254.28 23.178C254.104 24.5151 254.274 25.9323 255.015 27.0853C255.751 28.0751 256.787 28.786 257.889 29.3128C258.483 29.5932 259.075 29.8781 259.683 30.1319C260.118 30.3441 260.56 30.5459 261.012 30.7314C261.455 30.9303 261.899 31.1351 262.352 31.322C262.792 31.5268 263.232 31.7376 263.674 31.9438C264.014 32.1026 264.364 32.2466 264.711 32.4009C267.188 33.6014 269.584 35.3258 270.822 37.8589C271.141 38.5297 271.395 39.2286 271.58 39.9483C272.119 43.0483 271.659 46.457 269.757 49.0347C269.216 49.8137 268.507 50.4474 267.796 51.0632C267.191 51.5084 266.545 51.8943 265.888 52.2578C265.645 52.3691 265.403 52.4804 265.165 52.5977C265.014 52.654 264.867 52.7119 264.723 52.7728C264.328 52.9123 263.937 53.0607 263.546 53.2061C262.012 53.6097 260.448 53.9288 258.858 53.9955C258.846 53.7551 258.838 53.5162 258.832 53.2788C259.315 53.166 259.793 53.0221 260.277 52.8974C260.563 52.7772 260.853 52.66 261.141 52.5353C262.082 52.0887 262.988 51.4817 263.574 50.6017C264.502 49.419 264.744 47.8178 264.517 46.362C264.306 45.0027 263.422 43.8274 262.277 43.0988L262.279 43.038C261.602 42.6595 260.955 42.2292 260.252 41.9042C259.848 41.7172 259.443 41.5317 259.042 41.3433C258.697 41.1874 258.349 41.0376 258.001 40.8936C257.52 40.6681 257.041 40.4425 256.551 40.2436C255.669 39.8252 254.773 39.4423 253.887 39.0402C253.436 38.8146 252.989 38.5831 252.543 38.3546C250.535 37.2075 248.702 35.6048 247.757 33.4515C246.387 30.4109 246.728 26.6505 248.72 23.9601C249.318 23.1884 249.946 22.4212 250.734 21.8351C251.082 21.5398 251.45 21.2697 251.823 21.004Z" fill="#9BABFF"/>
<path d="M260.969 19.2248C260.97 18.9858 261.004 18.7484 261.032 18.511C261.752 18.6609 262.493 18.6401 263.22 18.7514C265.349 18.9755 267.483 19.2708 269.55 19.8465C269.553 21.8529 269.568 23.8592 269.55 25.8655C269.104 25.3372 268.644 24.8178 268.147 24.3355C266.52 22.6112 264.659 21.0693 262.518 20.0291C262.313 19.9341 262.114 19.8376 261.917 19.7397C261.601 19.5809 261.123 19.5854 260.969 19.2248Z" fill="#9BABFF"/>
<path d="M311.987 19.5913C315.291 19.3049 318.586 18.922 321.89 18.6431C321.893 30.2254 321.884 41.8077 321.888 53.3901C318.591 53.4064 315.294 53.396 311.996 53.396C311.99 42.1283 312.007 30.8605 311.987 19.5913Z" fill="#9BABFF"/>
<path d="M212.977 19.3598C212.965 19.1179 212.956 18.876 212.953 18.6341C214.448 18.7291 215.933 19.0229 217.347 19.5171C217.767 19.6714 218.177 19.854 218.581 20.0528C221.275 21.329 223.369 23.7152 224.456 26.4739C224.528 26.6579 224.597 26.8434 224.674 27.0289C225.312 28.878 225.613 30.8323 225.612 32.7852C219.418 32.8016 213.222 32.7912 207.028 32.7912C207.025 32.5181 207.023 32.2466 207.029 31.975C210.351 31.6737 213.672 31.377 216.994 31.0891C216.984 28.1731 216.758 25.2037 215.743 22.4465C215.678 22.304 215.614 22.16 215.552 22.0191C215.421 21.7609 215.291 21.5041 215.166 21.2459C214.67 20.3971 213.942 19.6462 212.977 19.3598Z" fill="#9BABFF"/>
<path d="M287.248 19.5958C288.728 19.112 290.252 18.7351 291.81 18.6252C291.804 18.876 291.813 19.1268 291.814 19.3776C291.469 19.483 291.13 19.6017 290.792 19.7189C289.24 20.3867 287.995 21.6629 287.279 23.1855C287.178 23.3858 287.083 23.5861 286.99 23.7865C286.923 23.9378 286.861 24.0907 286.804 24.2435C285.715 27.4296 285.605 30.8427 285.691 34.1787C285.8 36.3735 286.211 38.5682 287.082 40.5953C287.147 40.7259 287.217 40.8565 287.29 40.9886C287.407 41.2424 287.533 41.4946 287.662 41.7484C288.165 42.5705 288.765 43.3273 289.465 43.9936C289.848 44.3572 290.259 44.6911 290.706 44.9775C290.982 45.1585 291.267 45.3262 291.547 45.5058C292.126 45.7729 292.721 46.0044 293.325 46.2166C296.599 47.0966 300.135 46.779 303.287 45.5755C304.639 45.0428 305.891 44.2815 307.05 43.4089C307.04 43.8675 307.112 44.3542 306.902 44.7816C306.592 45.4731 306.228 46.1394 305.841 46.7894C304.234 49.327 301.905 51.3971 299.155 52.6229C295.683 54.1083 291.742 54.2359 288.082 53.442C286.036 53.0072 284.107 52.1124 282.398 50.9134C281.418 50.1758 280.515 49.3329 279.729 48.3906C278.895 47.3964 278.197 46.2953 277.639 45.1244C277.568 44.9938 277.501 44.8632 277.436 44.7341C277.289 44.3824 277.142 44.0307 277.001 43.6805C276.948 43.5351 276.894 43.3897 276.843 43.2472C276.751 42.9949 276.662 42.7397 276.587 42.4844C275.35 38.2952 275.207 33.6771 276.814 29.565C277.758 27.3391 279.117 25.2942 280.858 23.6099C282.378 22.1437 284.153 20.9402 286.086 20.0884C286.473 19.9252 286.861 19.762 287.248 19.5958Z" fill="#9BABFF"/>
<path d="M293.878 18.646C295.735 18.7247 297.579 19.1565 299.28 19.9104C300.087 20.2947 300.869 20.7399 301.574 21.2949C303.227 22.5711 304.527 24.2925 305.321 26.2231C305.336 26.2276 305.366 26.235 305.379 26.238C305.557 26.8138 305.783 27.3732 305.946 27.9534C306.413 29.519 306.563 31.1603 306.618 32.7867C300.414 32.7956 294.211 32.8001 288.006 32.7838C288.012 32.5003 288.026 32.2169 288.051 31.9334C291.368 31.7198 294.672 31.3532 297.986 31.0831C297.996 29.4344 297.87 27.7858 297.652 26.1519C297.372 24.3623 296.95 22.5503 295.995 20.9892C295.49 20.2324 294.788 19.5928 293.896 19.342C293.886 19.109 293.88 18.8775 293.878 18.646Z" fill="#9BABFF"/>
<path d="M325.431 22.3396C327.551 20.4936 330.157 19.1639 332.951 18.7514C335.559 18.4412 338.372 18.7202 340.62 20.1804C342.505 21.4314 343.642 23.5461 344.051 25.7334C344.391 27.2901 344.277 28.8869 344.296 30.4673C344.286 38.1097 344.315 45.7521 344.281 53.3931C341.037 53.4049 337.793 53.3975 334.551 53.396C334.564 45.4034 334.532 37.4093 334.569 29.4166C334.731 28.1375 334.367 26.8049 333.69 25.7141C333.46 25.453 333.229 25.1933 333 24.9351C331.547 23.7523 329.577 23.4941 327.765 23.6678C326.836 23.7301 325.947 24.0269 325.082 24.3504C324.46 24.6027 323.88 24.941 323.276 25.2274C323.32 24.9499 323.285 24.6234 323.485 24.3949C324.089 23.6707 324.7 22.9436 325.431 22.3396Z" fill="#9BABFF"/>
<path d="M96.6032 19.2693C100.307 19.2396 104.014 19.25 107.72 19.2619C109.131 21.421 110.552 23.5713 111.995 25.7097C112.142 25.9338 112.286 26.1593 112.424 26.3908C114.432 29.3632 116.405 32.3593 118.377 35.3569C122.108 40.9411 125.809 46.5431 129.513 52.1465C129.734 52.4849 129.96 52.8232 130.212 53.1423C130.211 53.209 130.208 53.3441 130.206 53.4109C126.581 53.3886 122.955 53.3931 119.33 53.4064C118.462 52.1005 117.579 50.8035 116.726 49.4887C115.95 48.2882 115.117 47.1263 114.354 45.9183C113.563 44.7312 112.753 43.5559 111.977 42.3598C111.345 41.4056 110.704 40.4559 110.06 39.5106C109.917 39.2657 109.766 39.0268 109.607 38.7938C108.966 37.8456 108.331 36.8943 107.688 35.9476C107.543 35.7042 107.39 35.4668 107.231 35.2353C106.555 34.2158 105.866 33.2037 105.207 32.1738C104.809 31.5817 104.409 30.9926 104.027 30.3916C103.195 29.2311 102.446 28.0158 101.652 26.8286C101.235 26.2513 100.832 25.6622 100.461 25.0538C100.064 24.4617 99.6616 23.8725 99.2787 23.2701C98.3468 21.9642 97.5099 20.593 96.6032 19.2693Z" fill="#9BABFF"/>
<path d="M122.926 19.2604C125.53 19.25 128.136 19.247 130.742 19.2678C127.516 22.5444 124.43 25.9545 121.365 29.381C121.231 29.194 121.093 29.01 120.954 28.8305C120.961 28.0647 121.195 27.3317 121.327 26.5837C121.885 24.1486 122.524 21.7297 122.926 19.2604Z" fill="#9BABFF"/>
<path d="M168.378 26.7247C169.764 25.4693 171.229 24.3029 172.584 23.0148C173.09 23.7583 173.567 24.5225 174.048 25.2838C175.276 27.2055 176.515 29.1184 177.737 31.0431C178.724 32.5404 179.698 34.0466 180.719 35.5217C181.354 36.4165 181.952 37.3366 182.617 38.2106C182.762 38.4258 182.911 38.6395 183.059 38.8547C185.58 42.664 188.235 46.3813 190.915 50.0794C191.455 50.8258 191.966 51.596 192.547 52.3112C192.788 52.6214 192.74 53.028 192.769 53.396C188.653 53.3945 184.537 53.4109 180.422 53.3871C179.388 51.8928 178.318 50.4207 177.267 48.9367C175.08 45.8159 172.886 42.6981 170.773 39.5254C168.725 36.4966 166.75 33.4174 164.785 30.3367C164.716 30.1972 164.652 29.9805 164.811 29.8737C165.09 29.5932 165.398 29.3454 165.704 29.0961C166.582 28.2918 167.48 27.5083 168.378 26.7247Z" fill="#9BABFF"/>
<path d="M66.3199 25.5776C66.8408 24.619 67.9151 24.0862 68.9658 23.9556C70.0966 23.8562 71.3565 24.0476 72.1949 24.8802C73.0289 25.6518 73.3509 26.839 73.2233 27.9475C73.2099 29.0293 72.5956 30.0444 71.7171 30.6528C70.5744 31.3057 69.135 31.3844 67.9003 30.96C66.9966 30.6468 66.36 29.8544 66.0097 28.9922C65.7011 27.8733 65.71 26.5956 66.3199 25.5776Z" fill="#9BABFF"/>
<path d="M69.9897 37.246C73.7293 36.0796 77.5876 35.3614 81.3851 34.4146C81.3851 34.6862 81.3821 34.9578 81.3821 35.2293C80.1178 35.5335 78.9143 36.044 77.7034 36.507C77.0608 36.8053 76.4108 37.0873 75.7772 37.4033C75.1732 37.7224 74.734 38.2447 74.3407 38.7879C73.8688 39.4972 73.5809 40.3045 73.4028 41.1325C73.0868 43.1448 73.0244 45.2594 73.5869 47.2331C73.6581 47.4869 73.7338 47.7391 73.8109 47.9914C74.1122 48.4767 74.3808 49.0124 74.8571 49.3537C75.6199 49.9547 76.632 50.1224 77.5802 50.0586C79.0182 49.9977 80.3671 49.3196 81.4489 48.3995C81.5068 48.3802 81.624 48.3431 81.6834 48.3238C81.67 48.5301 81.676 48.7408 81.6374 48.9456C80.4101 51.4342 77.9408 53.2387 75.2133 53.7151C72.9977 54.0935 70.656 53.9659 68.5473 53.1512C68.1348 52.9761 67.7356 52.7742 67.3438 52.5591C66.6538 52.0827 66.0083 51.5411 65.434 50.9297C64.965 50.2693 64.5183 49.5837 64.2587 48.8106L64.1993 48.7913C63.3163 45.945 63.4351 42.5126 65.4458 40.1561C65.5452 40.0552 65.6447 39.9543 65.7456 39.8563C65.8702 39.7257 65.9979 39.5981 66.124 39.469C67.2488 38.4718 68.6334 37.8559 69.9897 37.246Z" fill="#9BABFF"/>
<path d="M105.752 44.2504C106.063 43.8853 106.378 43.5232 106.682 43.1537C106.801 43.3155 106.923 43.4757 107.049 43.6345C107.05 44.004 106.946 44.3602 106.837 44.7089C106.427 46.1676 106.103 47.6486 105.741 49.1192C105.465 50.5527 105.088 51.964 104.802 53.396C102.22 53.4079 99.6393 53.3856 97.0572 53.4094C97.0736 53.3471 97.1032 53.2239 97.1181 53.163C98.7846 51.596 100.378 49.9503 101.938 48.2778C102.569 47.6264 103.204 46.9794 103.832 46.3249C104.085 46.0341 104.345 45.7462 104.609 45.4642C104.982 45.0517 105.375 44.6584 105.752 44.2504Z" fill="#9BABFF"/>
<path d="M247.233 45.8783C248.852 47.6709 250.628 49.3211 252.504 50.8421C252.819 51.0647 253.138 51.2873 253.445 51.5247C254.064 51.9477 254.699 52.3483 255.367 52.6911C255.739 52.8811 256.138 53.0206 256.505 53.2283C256.67 53.4346 256.564 53.7418 256.618 53.9881C253.464 53.7566 250.311 53.4138 247.22 52.7401C247.18 50.4548 247.16 48.1636 247.233 45.8783Z" fill="#9BABFF"/>
<path d="M179.48 4.55132C180.925 4.39847 182.385 4.52461 183.837 4.48306C185.963 4.48454 188.088 4.48158 190.215 4.48454C190.952 4.489 191.7 4.39847 192.429 4.56765C188.079 8.1351 183.793 11.7812 179.582 15.5119C179.515 13.1242 179.567 10.7365 179.551 8.35027C179.526 7.08297 179.615 5.81269 179.48 4.55132Z" fill="#9BABFF"/>
<path d="M9.09374 42.6862C9.671 41.9591 10.3492 41.3151 10.8567 40.533C10.8997 44.8172 10.8671 49.1059 10.87 53.3916C7.2462 53.3634 3.62236 53.3931 0 53.3753C0.0163236 53.3218 0.0474869 53.2165 0.0623265 53.163C1.00019 52.3498 1.67985 51.2932 2.55539 50.4177C4.7472 47.8505 6.96425 45.3054 9.09374 42.6862Z" fill="#9BABFF"/>
</svg>
