<?xml version="1.0" encoding="UTF-8"?>
<svg width="340px" height="97px" viewBox="0 0 340 97" version="1.1" xmlns="http://www.w3.org/2000/svg" xmlns:xlink="http://www.w3.org/1999/xlink">
    <!-- Generator: Sketch 52.6 (67491) - http://www.bohemiancoding.com/sketch -->
    <title>shopify_logo_whitebg</title>
    <desc>Created with Sketch.</desc>
    <g id="Sponsors" stroke="none" stroke-width="1" fill="none" fill-rule="evenodd">
        <g id="1200x628-shopify" transform="translate(-429.000000, -265.000000)">
            <g id="shopify_logo_whitebg" transform="translate(429.000000, 265.000000)">
                <g id="Group">
                    <path d="M73.0109153,18.3623568 C72.942935,17.8880524 72.5350528,17.6170213 72.1951509,17.6170213 C71.8552491,17.6170213 65.1251926,17.4815057 65.1251926,17.4815057 C65.1251926,17.4815057 59.4828221,12.0608838 58.9389791,11.4510638 C58.3951362,10.9090016 57.3074503,11.0445172 56.8995681,11.1800327 C56.8995681,11.1800327 55.8118822,11.5188216 54.0443926,12.0608838 C53.7724712,11.112275 53.2966086,9.9603928 52.6847853,8.74075286 C50.7133546,4.94631751 47.7222184,2.91358429 44.1872393,2.91358429 C44.1872393,2.91358429 44.1872393,2.91358429 44.1872393,2.91358429 C43.9153178,2.91358429 43.7113767,2.91358429 43.4394552,2.98134206 C43.3034945,2.84582651 43.2355141,2.71031097 43.0995534,2.64255319 C41.5360049,1.01636661 39.5645742,0.203273322 37.1852613,0.271031097 C32.6305767,0.406546645 28.075892,3.72667758 24.3369718,9.55384615 C21.7537178,13.6870704 19.7822871,18.8366612 19.1704638,22.8343699 C13.9359755,24.4605565 10.2650356,25.6124386 10.1290748,25.6124386 C7.47784049,26.4255319 7.40986012,26.4932897 7.06995828,29.0003273 C6.93399755,30.897545 0,84.3584288 0,84.3584288 L58.1911951,94.3865794 L83.4119117,88.1528642 C83.3439313,88.1528642 73.0788957,18.8366612 73.0109153,18.3623568 Z M51.1212368,13.0094926 C49.7616294,13.4160393 48.2660613,13.8903437 46.6345325,14.4324059 C46.6345325,12.1286416 46.2946307,8.87626841 45.2749252,6.16595745 C48.7419239,6.70801964 50.4414331,10.6379705 51.1212368,13.0094926 Z M43.575416,15.313257 C40.5162994,16.2618658 37.1852613,17.2782324 33.8542233,18.294599 C34.8059485,14.703437 36.573438,11.1800327 38.7488098,8.80851064 C39.5645742,7.92765957 40.7202405,6.97905074 42.0118675,6.43698854 C43.3714748,9.07954173 43.6433963,12.8062193 43.575416,15.313257 Z M37.3212221,3.32013093 C38.408908,3.32013093 39.2926528,3.52340426 40.0404368,4.06546645 C38.8167902,4.67528642 37.5931436,5.62389525 36.5054577,6.84353519 C33.5823018,9.9603928 31.3389497,14.7711948 30.4552049,19.4464812 C27.6680098,20.3273322 24.9487951,21.1404255 22.5015018,21.885761 C24.1330307,14.5001637 30.3192442,3.52340426 37.3212221,3.32013093 Z" id="Shape" fill="#9BABFF" fill-rule="nonzero"></path>
                    <g transform="translate(14.955681, 10.841244)" id="Path">
                        <path d="M57.2394699,6.77577741 C56.8995681,6.77577741 50.1695117,6.64026187 50.1695117,6.64026187 C50.1695117,6.64026187 44.5271411,1.21963993 43.9832982,0.609819967 C43.7793571,0.406546645 43.5074356,0.271031097 43.2355141,0.271031097 L43.2355141,83.5453355 L68.4562307,77.3116203 C68.4562307,77.3116203 58.1911951,7.99541735 58.1232147,7.52111293 C57.987254,7.04680851 57.5793718,6.77577741 57.2394699,6.77577741 Z" fill="#707BB8"></path>
                        <path d="M29.2315583,19.7175123 L26.3084025,30.6265139 C26.3084025,30.6265139 23.0453448,29.1358429 19.1704638,29.406874 C13.4601129,29.7456628 13.4601129,33.3368249 13.4601129,34.2176759 C13.8000147,39.0962357 26.6483043,40.1803601 27.3960883,51.6314239 C27.9399313,60.6432079 22.6374626,66.8091653 14.8877006,67.2834697 C5.64237055,67.7577741 0.543842945,62.3371522 0.543842945,62.3371522 L2.51527362,54.002946 C2.51527362,54.002946 7.6817816,57.8651391 11.7606037,57.594108 C14.411838,57.4585925 15.4315436,55.2225859 15.2955828,53.7319149 C14.8877006,47.3626841 4.41872393,47.7692308 3.73892025,37.2667758 C3.1950773,28.4582651 8.97340859,19.5819967 21.7537178,18.7689034 C26.7162847,18.4301146 29.2315583,19.7175123 29.2315583,19.7175123 Z" fill="#000000"></path>
                    </g>
                </g>
                <g id="Group" transform="translate(96.532123, 18.294599)" fill="#9BABFF">
                    <path d="M21.0059337,35.5050736 C18.0827779,33.9466448 16.5872098,32.5914894 16.5872098,30.7620295 C16.5872098,28.4582651 18.6946012,26.9675941 21.9576589,26.9675941 C25.7645595,26.9675941 29.1635779,28.5260229 29.1635779,28.5260229 L31.8148123,20.39509 C31.8148123,20.39509 29.367519,18.4978723 22.1616,18.4978723 C12.1005055,18.4978723 5.09852761,24.2572831 5.09852761,32.3204583 C5.09852761,36.9279869 8.36158528,40.3836334 12.7123288,42.890671 C16.247308,44.8556465 17.4709546,46.2785597 17.4709546,48.3790507 C17.4709546,50.5472995 15.703465,52.3090016 12.4404074,52.3090016 C7.61380123,52.3090016 2.9911362,49.801964 2.9911362,49.801964 L0.135960736,57.9328969 C0.135960736,57.9328969 4.35074356,60.7787234 11.4886822,60.7787234 C21.8216982,60.7787234 29.2995387,55.6968903 29.2995387,46.5495908 C29.2315583,41.6032733 25.492638,38.0798691 21.0059337,35.5050736 Z" id="s_4_"></path>
                    <path d="M62.2020368,18.3623568 C57.1035092,18.3623568 53.0926675,20.8016367 50.0335509,24.4605565 L49.8975902,24.3927987 L54.3163141,1.35515548 L42.8276319,1.35515548 L31.6108712,60.0333879 L43.0995534,60.0333879 L46.906454,39.9770867 C48.4020221,32.388216 52.3448834,27.7129296 56.0158233,27.7129296 C58.5990773,27.7129296 59.6187828,29.4746318 59.6187828,31.9816694 C59.6187828,33.5400982 59.4828221,35.5050736 59.1429202,37.0635025 L54.7921767,60.0333879 L66.2808589,60.0333879 L70.7675632,36.3181669 C71.2434258,33.8111293 71.5833276,30.8297872 71.5833276,28.797054 C71.651308,22.2923077 68.2522896,18.3623568 62.2020368,18.3623568 Z" id="h_4_"></path>
                    <path d="M97.687789,18.3623568 C83.8197939,18.3623568 74.6424442,30.8297872 74.6424442,44.7201309 C74.6424442,53.5963993 80.148854,60.7787234 90.4818699,60.7787234 C104.077944,60.7787234 113.255293,48.6500818 113.255293,34.4209493 C113.323274,26.2222586 108.496667,18.3623568 97.687789,18.3623568 Z M92.0454184,52.0379705 C88.1025571,52.0379705 86.4710282,48.7178396 86.4710282,44.5168576 C86.4710282,37.9443535 89.8700466,27.2386252 96.1242405,27.2386252 C100.203063,27.2386252 101.56267,30.7620295 101.56267,34.1499182 C101.56267,41.1967267 98.0956712,52.0379705 92.0454184,52.0379705 Z" id="o_4_" fill-rule="nonzero"></path>
                    <path d="M142.758773,18.3623568 C135.009011,18.3623568 130.590287,25.205892 130.590287,25.205892 L130.454326,25.205892 L131.13413,19.0399345 L120.937075,19.0399345 C120.461212,23.1731588 119.509487,29.5423895 118.625742,34.2854337 L110.604059,76.2952537 L122.092741,76.2952537 L125.287818,59.2880524 L125.55974,59.2880524 C125.55974,59.2880524 127.939053,60.7787234 132.289796,60.7787234 C145.81789,60.7787234 154.655337,46.9561375 154.655337,32.998036 C154.655337,25.2736498 151.188339,18.3623568 142.758773,18.3623568 Z M131.745953,52.1734861 C128.754817,52.1734861 126.987328,50.4795417 126.987328,50.4795417 L128.890778,39.7738134 C130.250385,32.5914894 133.989306,27.8484452 138.000147,27.8484452 C141.535126,27.8484452 142.622812,31.1008183 142.622812,34.1499182 C142.622812,41.6032733 138.204088,52.1734861 131.745953,52.1734861 Z" id="p_4_" fill-rule="nonzero"></path>
                    <path d="M171.106587,1.89721768 C167.435647,1.89721768 164.512491,4.81080196 164.512491,8.53747954 C164.512491,11.9253682 166.687863,14.2968903 169.95092,14.2968903 L170.086881,14.2968903 C173.68984,14.2968903 176.748957,11.8576105 176.816937,7.65662848 C176.816937,4.33649755 174.573585,1.89721768 171.106587,1.89721768 Z" id="dot_4_"></path>
                    <polygon id="i_4_" points="154.995239 59.9656301 166.483921 59.9656301 174.301664 19.3109656 162.745001 19.3109656"></polygon>
                    <path d="M203.601202,19.2432079 L195.579519,19.2432079 L195.987401,17.3459902 C196.667205,13.4160393 198.978537,9.9603928 202.853418,9.9603928 C204.892829,9.9603928 206.524358,10.5702128 206.524358,10.5702128 L208.76771,1.55842881 C208.76771,1.55842881 206.79628,0.542062193 202.513517,0.542062193 C198.434694,0.542062193 194.355872,1.69394435 191.228775,4.33649755 C187.285914,7.65662848 185.450444,12.4674304 184.566699,17.3459902 L184.226798,19.2432079 L178.856348,19.2432079 L177.156839,27.9162029 L182.527288,27.9162029 L176.409055,60.0333879 L187.897737,60.0333879 L194.015971,27.9162029 L201.969674,27.9162029 L203.601202,19.2432079 Z" id="f_4_"></path>
                    <path d="M231.337193,19.3109656 C231.337193,19.3109656 224.131274,37.4022913 220.936196,47.2949264 L220.800236,47.2949264 C220.596294,44.110311 217.94506,19.3109656 217.94506,19.3109656 L205.844555,19.3109656 L212.778552,56.6454992 C212.914513,57.4585925 212.846533,58.0006547 212.506631,58.5427169 C211.147023,61.1175123 208.903671,63.6245499 206.252437,65.4540098 C204.077065,67.0124386 201.629772,68.0288052 199.726321,68.706383 L202.921399,78.4635025 C205.232731,77.989198 210.127318,76.0242226 214.20614,72.2297872 C219.440628,67.3512275 224.335215,59.7623568 229.297782,49.4631751 L243.369718,19.3109656 L231.337193,19.3109656 Z" id="y_4_"></path>
                </g>
            </g>
        </g>
    </g>
</svg>