<svg width="80" height="64" viewBox="0 0 80 64" fill="none" xmlns="http://www.w3.org/2000/svg">
<path d="M79.1499 7.5762C76.2524 8.86122 73.1385 9.72971 69.8702 10.1203C73.2062 8.12062 75.7679 4.9543 76.9742 1.18161C73.8526 3.03296 70.3947 4.37761 66.7145 5.10236C63.7671 1.96225 59.5681 0 54.9212 0C45.998 0 38.7637 7.23398 38.7637 16.1566C38.7637 17.4229 38.9069 18.656 39.1823 19.8385C25.7542 19.1647 13.8491 12.7324 5.88026 2.95748C4.48952 5.34375 3.69275 8.11918 3.69275 11.0801C3.69275 16.6854 6.54538 21.6308 10.8806 24.5281C8.23196 24.4443 5.74084 23.7175 3.56226 22.5074C3.56111 22.5748 3.56111 22.6425 3.56111 22.7104C3.56111 30.5387 9.13041 37.0689 16.5217 38.553C15.1658 38.9223 13.7385 39.1196 12.2648 39.1196C11.2237 39.1196 10.2115 39.0185 9.22518 38.8298C11.281 45.2489 17.2479 49.92 24.3179 50.0505C18.7884 54.3838 11.8217 56.9668 4.25216 56.9668C2.94812 56.9668 1.66194 56.8905 0.397949 56.7412C7.54811 61.3254 16.0409 64 25.1651 64C54.8834 64 71.1345 39.3806 71.1345 18.0301C71.1345 17.3295 71.1189 16.6327 71.0878 15.9399C74.2443 13.662 76.9837 10.8163 79.1499 7.5762Z" fill="#9BABFF"/>
</svg>
