<svg width="1716" height="379" viewBox="0 0 1716 379" fill="none" xmlns="http://www.w3.org/2000/svg">
<path d="M647.204 1L1 300" stroke="#2E1865"/>
<path d="M652.216 1.40015L33.5376 310.227" stroke="#2E1865"/>
<path d="M660.034 1.42505L33.2852 337.273" stroke="#2E1865"/>
<path d="M669.971 1.49829L45.5 363.5" stroke="#2E1865"/>
<path d="M679.766 1.53003L112.366 361.444" stroke="#2E1865"/>
<path d="M690.424 1.39014L171.366 361.775" stroke="#2E1865"/>
<path d="M700.17 1.70923L231.526 361.85" stroke="#2E1865"/>
<path d="M711.137 1.58887L293.599 361.823" stroke="#2E1865"/>
<path d="M721.22 1.72656L354.307 362.169" stroke="#2E1865"/>
<path d="M731.133 1.78223L415.25 362.73" stroke="#2E1865"/>
<path d="M741.218 1.78516L475.921 362.9" stroke="#2E1865"/>
<path d="M751.585 1.75806L536.359 361.99" stroke="#2E1865"/>
<path d="M769.591 1.85864L596.582 363.252" stroke="#2E1865"/>
<path d="M782.038 1.70166L657.344 363.247" stroke="#2E1865"/>
<path d="M792.624 2.17871L718.333 364.01" stroke="#2E1865"/>
<path d="M802.533 2.36621L779.67 363.598" stroke="#2E1865"/>
<path d="M813.913 2.35718L839.049 364.238" stroke="#2E1865"/>
<path d="M824.747 2.29443L898.617 364.304" stroke="#2E1865"/>
<path d="M834.551 2.36572L960.51 364.88" stroke="#2E1865"/>
<path d="M843.928 2.21631L1021.34 365.112" stroke="#2E1865"/>
<path d="M855.482 2.28247L1081.06 365.473" stroke="#2E1865"/>
<path d="M865.476 2.60986L1140.86 365.901" stroke="#2E1865"/>
<path d="M876.352 2.25342L1202.78 365.474" stroke="#2E1865"/>
<path d="M885.872 2.45972L1265.03 367.342" stroke="#2E1865"/>
<path d="M896.412 2.68604L1327.79 366.034" stroke="#2E1865"/>
<path d="M905.665 2.71313L1386.21 367.029" stroke="#2E1865"/>
<path d="M916.6 2.7915L1448.71 367.521" stroke="#2E1865"/>
<path d="M927.569 2.86157L1501.69 367.557" stroke="#2E1865"/>
<path d="M937.413 2.7981L1585.36 378.487" stroke="#2E1865"/>
<path d="M948 2.50366L1609.5 358" stroke="#2E1865"/>
<path d="M958.185 3.11157L1547.36 297.34" stroke="#2E1865"/>
<path d="M967.308 2.97778L1715.5 353" stroke="#2E1865"/>
<path d="M646.378 1.27222L967.683 3.0749" stroke="#2E1865"/>
<path d="M89.8521 307.467L1529.85 315.426" stroke="#2E1865"/>
<path d="M75.3521 361.253L1535.85 367.712" stroke="#2E1865"/>
<path d="M1529.85 266.145L89.8521 261.249" stroke="#2E1865"/>
<path d="M167.78 223.958L1453.52 229.537" stroke="#2E1865"/>
<path d="M1389.21 199.617L226.925 195.032" stroke="#2E1865"/>
<path d="M284.314 168.831L1338.67 175.569" stroke="#2E1865"/>
<path d="M327.495 150.244L1296.97 154.76" stroke="#2E1865"/>
<path d="M363.65 132.902L1256.48 137.209" stroke="#2E1865"/>
<path d="M392.306 118.712L1223.45 122.407" stroke="#2E1865"/>
<path d="M1195.61 109.301L419.824 107.365" stroke="#2E1865"/>
<path d="M1172.49 98.318L444.049 95.502" stroke="#2E1865"/>
<path d="M1150.6 88.8856L466.687 85.7341" stroke="#2E1865"/>
<path d="M1132 78.8638H479.116" stroke="#2E1865"/>
<path d="M1113.7 71.1423H494.207" stroke="#2E1865"/>
<path d="M1099.3 63.4756H509.688" stroke="#2E1865"/>
<path d="M1085.04 57.4978H524.428" stroke="#2E1865"/>
<path d="M1071.71 52.0745L542.031 49.0234" stroke="#2E1865"/>
<path d="M1060.68 46.7033L555.064 42.9539" stroke="#2E1865"/>
<path d="M1050.77 41.7816L566.213 37.9773" stroke="#2E1865"/>
<path d="M1040.46 36.9525L575.143 33.6489" stroke="#2E1865"/>
<path d="M1030.91 32.6693L583.144 30.0374" stroke="#2E1865"/>
<path d="M1022.77 28.7446L591.188 26.176" stroke="#2E1865"/>
<path d="M600.991 22.1829L1015.33 25.3001" stroke="#2E1865"/>
<path d="M1007.29 21.8116L607.153 18.6555" stroke="#2E1865"/>
<path d="M616.168 14.7534L1001.03 18.2868" stroke="#2E1865"/>
<path d="M993.111 14.7533L624.242 11.0049" stroke="#2E1865"/>
<path d="M631.316 8.26172L985.819 11.6432" stroke="#2E1865"/>
<path d="M978.809 8.58782L638.19 5.19482" stroke="#2E1865"/>
<path d="M642.699 2.71826L972.545 5.42269" stroke="#2E1865"/>
</svg>
