<?xml version="1.0" encoding="UTF-8"?>
<svg width="1878px" height="369px" viewBox="0 0 1878 369" version="1.1" xmlns="http://www.w3.org/2000/svg" xmlns:xlink="http://www.w3.org/1999/xlink">
    <!-- Generator: Sketch 52.1 (67048) - http://www.bohemiancoding.com/sketch -->
    <title>patty-patty</title>
    <desc>Created with Sketch.</desc>
    <g id="GraphQL-Conf-2019" stroke="none" stroke-width="1" fill="none" fill-rule="evenodd">
        <g id="Artboard" transform="translate(-190.000000, -165.000000)" fill-rule="nonzero" stroke="#2E1865">
            <g id="patty-patty" transform="translate(190.000000, 166.000000)">
                <polyline id="Path-58" points="774.351926 0.246710876 94.6571991 316.410654 1.89510287 364.227531"></polyline>
                <polyline id="Path-59" points="779.364234 0.646927994 163.104336 308.266527 42.9386004 365.186722"></polyline>
                <polyline id="Path-60" points="787.181548 0.671837311 162.353602 335.490783 103.772072 365.049846"></polyline>
                <path d="M797.118602,0.744931819 L171,365.287142" id="Path-61"></path>
                <path d="M806.913713,0.776673166 L233.132632,365.442824" id="Path-62"></path>
                <path d="M817.572037,0.63694645 L293.382791,365.006237" id="Path-63"></path>
                <path d="M827.317892,0.956006411 L354.461895,365.020903" id="Path-64"></path>
                <path d="M838.284892,0.835461715 L416.797742,364.881014" id="Path-65"></path>
                <path d="M848.368135,0.97315657 L477.063026,365.226223" id="Path-66"></path>
                <path d="M858.280823,1.02887176 L540.243249,365.036907" id="Path-67"></path>
                <path d="M868.365853,1.03194512 L600.859746,365.266835" id="Path-68"></path>
                <path d="M878.73267,1.00473123 L661.335982,365.449593" id="Path-69"></path>
                <path d="M896.739264,1.10526316 L723.118602,366.154676" id="Path-70"></path>
                <path d="M909.185862,0.94828808 L783,365.995538" id="Path-71"></path>
                <path d="M919.772456,1.42532253 L845.772456,365.091982" id="Path-72"></path>
                <path d="M929.680591,1.61285507 L906.928758,365.957287" id="Path-73"></path>
                <path d="M941.060677,1.6039108 L966.560025,366.32119" id="Path-74"></path>
                <path d="M951.89512,1.54102974 L1025.6932,365.934888" id="Path-75"></path>
                <path d="M961.698823,1.61245411 L1088,366.047567" id="Path-76"></path>
                <path d="M971.075932,1.46313566 L1150,365.920024" id="Path-77"></path>
                <path d="M982.630453,1.52907719 L1210,365.935404" id="Path-78"></path>
                <path d="M992.623388,1.85654953 L1268.82,366.036922" id="Path-79"></path>
                <path d="M1003.5,1.5 L1331,366.113551" id="Path-80"></path>
                <path d="M1013.01944,1.70633696 L1392.17825,366.58875" id="Path-81"></path>
                <path d="M1023.56002,1.93277347 L1456.35799,366.450852" id="Path-82"></path>
                <path d="M1032.81285,1.95982067 L1513.35799,366.27593" id="Path-83"></path>
                <path d="M1043.74775,2.03815854 L1575.85412,366.767271" id="Path-84"></path>
                <path d="M1054.71706,2.10824499 L1628.83684,366.803283" id="Path-85"></path>
                <path d="M1064.56087,2.04490021 L1692.38955,366.06827" id="Path-86"></path>
                <path d="M1074.24648,2.21442203 L1754.21845,365.908887" id="Path-87"></path>
                <polyline id="Path-88" points="1085.33315 2.35837574 1671.32355 294.997249 1820.12603 366.413605"></polyline>
                <polyline id="Path-89" points="1094.45566 2.22448091 1774.60959 319.047879 1877.52346 366.301053"></polyline>
                <path d="M773.525921,0.518927775 L1094.83067,2.32160715" id="Path-90"></path>
                <polyline id="Path-91" points="115.037848 306.732344 219.057858 306.732344 1779.10216 320.76029"></polyline>
                <path d="M0.911877248,365.229221 L1877.25003,366.564379" id="Path-91"></path>
                <path d="M1657,265.392143 L216,259.672996" id="Path-92"></path>
                <path d="M294.92776,223.204979 L1580.67213,228.784039" id="Path-93"></path>
                <path d="M1516.35563,198.863955 L354.073272,194.278597" id="Path-94"></path>
                <path d="M411.461895,168.077886 L1465.8139,174.815745" id="Path-95"></path>
                <path d="M454.64276,149.490364 L1424.11891,154.007191" id="Path-96"></path>
                <path d="M490.797742,132.148848 L1383.62454,136.45544" id="Path-97"></path>
                <path d="M519.453496,117.958962 L1350.59567,121.654178" id="Path-98"></path>
                <path d="M1322.75855,108.547567 L546.971508,106.611647" id="Path-99"></path>
                <path d="M1299.63849,97.5646484 L571.197265,94.7486097" id="Path-100"></path>
                <path d="M1277.75105,88.1323688 L593.834643,84.9809217" id="Path-101"></path>
                <path d="M1259.14572,78.1105924 L606.263653,78.1105924" id="Path-102"></path>
                <path d="M1240.85249,70.3891105 L621.355244,70.3891105" id="Path-103"></path>
                <path d="M1226.45273,62.7221896 L636.835309,62.7221896" id="Path-104"></path>
                <path d="M1212.18829,56.7444793 L651.575526,56.7444793" id="Path-105"></path>
                <path d="M1198.85356,51.3211095 L669.179108,48.2700547" id="Path-106"></path>
                <path d="M1187.82984,45.9500163 L682.21231,42.2005351" id="Path-107"></path>
                <path d="M1177.91456,41.0283007 L693.360662,37.2240224" id="Path-108"></path>
                <path d="M1167.61224,36.1991815 L702.290494,32.8956226" id="Path-109"></path>
                <path d="M1158.05352,31.9160714 L710.29124,29.2840938" id="Path-110"></path>
                <path d="M1149.91303,27.9913968 L718.335982,25.4228247" id="Path-111"></path>
                <path d="M728.139257,21.4295685 L1142.47905,24.5467928" id="Path-112"></path>
                <path d="M1134.44078,21.0581931 L734.301242,17.9021492" id="Path-113"></path>
                <path d="M743.316478,14 L1128.17398,17.5333617" id="Path-114"></path>
                <path d="M1120.25861,14 L751.390088,10.2515884" id="Path-115"></path>
                <path d="M758.464257,7.50837668 L1112.9672,10.8898264" id="Path-116"></path>
                <path d="M1105.95642,7.83449864 L765.338227,4.44149813" id="Path-117"></path>
                <path d="M769.846971,1.96489255 L1099.6932,4.66932551" id="Path-118"></path>
            </g>
        </g>
    </g>
</svg>