<svg width="282" height="80" viewBox="0 0 282 80" fill="none" xmlns="http://www.w3.org/2000/svg">
  <path d="M36.4352 28.7023C36.8392 28.7023 37.2172 28.9009 37.4455 29.2333L48.7741 45.7218L48.9885 46.4122V46.7637L51.5433 41.0307C51.7398 40.5896 52.1789 40.3053 52.6627 40.3053C53.1464 40.3053 53.5855 40.5896 53.782 41.0307L57.5615 49.5118L61.341 41.0307C61.5375 40.5896 61.9766 40.3053 62.4604 40.3053C62.9441 40.3053 63.3832 40.5896 63.5798 41.0307L68.4272 51.9084L68.5839 52.5191L66.1345 52.7783L66.1051 52.7128L62.4604 44.534L58.6809 53.0151H56.4421L52.6627 44.8855L48.9885 53.1298H46.5391V46.7905L36.4352 32.0845L26.3313 46.7905V53.1298H23.8819L20.2078 44.534L16.4281 53.0151H14.1898L10.4101 44.534L6.73592 52.7783L4.2865 52.5191L4.39207 52.023L9.29092 41.0307C9.48748 40.5896 9.92605 40.3053 10.4101 40.3053C10.8941 40.3053 11.3326 40.5896 11.5292 41.0307L15.3089 49.5118L19.0886 41.0307C19.2852 40.5896 19.7238 40.3053 20.2078 40.3053C20.6918 40.3053 21.1303 40.5896 21.3269 41.0307L23.8819 46.7637V46.4122L24.0963 45.7218L35.4249 29.2333C35.6532 28.9009 36.0312 28.7023 36.4352 28.7023Z" fill="#979797"/>
  <path d="M66.7469 58.626C69.7906 58.626 72.2581 56.1652 72.2581 53.1298C72.2581 50.0943 69.7906 47.6336 66.7469 47.6336C63.7031 47.6336 61.2356 50.0943 61.2356 53.1298C61.2356 56.1652 63.7031 58.626 66.7469 58.626Z" fill="#979797"/>
  <path d="M66.7469 31.7557C69.7906 31.7557 72.2581 29.295 72.2581 26.2595C72.2581 23.2241 69.7906 20.7634 66.7469 20.7634C63.7031 20.7634 61.2356 23.2241 61.2356 26.2595C61.2356 29.295 63.7031 31.7557 66.7469 31.7557Z" fill="#979797"/>
  <path d="M5.51121 31.7557C8.55496 31.7557 11.0224 29.295 11.0224 26.2595C11.0224 23.2241 8.55496 20.7634 5.51121 20.7634C2.46745 20.7634 0 23.2241 0 26.2595C0 29.295 2.46745 31.7557 5.51121 31.7557Z" fill="#979797"/>
  <path d="M36.129 10.9924C39.1728 10.9924 41.6402 8.53164 41.6402 5.49618C41.6402 2.46072 39.1728 0 36.129 0C33.0853 0 30.6178 2.46072 30.6178 5.49618C30.6178 8.53164 33.0853 10.9924 36.129 10.9924Z" fill="#979797"/>
  <path d="M36.129 80C39.1728 80 41.6402 77.5393 41.6402 74.5038C41.6402 71.4684 39.1728 69.0076 36.129 69.0076C33.0853 69.0076 30.6178 71.4684 30.6178 74.5038C30.6178 77.5393 33.0853 80 36.129 80Z" fill="#979797"/>
  <path d="M5.51121 58.626C8.55496 58.626 11.0224 56.1652 11.0224 53.1298C11.0224 50.0943 8.55496 47.6336 5.51121 47.6336C2.46745 47.6336 0 50.0943 0 53.1298C0 56.1652 2.46745 58.626 5.51121 58.626Z" fill="#979797"/>
  <path fill-rule="evenodd" clip-rule="evenodd" d="M67.7574 54.129L36.1255 76.3046L4.8022 54.1257L6.22022 52.1339L36.1325 73.3137L66.3487 52.1306L67.7574 54.129Z" fill="#979797"/>
  <path fill-rule="evenodd" clip-rule="evenodd" d="M36.4387 4.00076L67.762 26.1797L66.344 28.1715L36.4317 6.99161L6.21553 28.1748L4.80689 26.1764L36.4387 4.00076Z" fill="#979797"/>
  <path fill-rule="evenodd" clip-rule="evenodd" d="M4.2865 53.1298V26.2595H6.73592V53.1298H4.2865ZM65.5221 52.5121V26.2595H67.9716V52.5121H65.5221Z" fill="#979797"/>
  <path d="M105.724 39.8039V47.7935C104.898 48.2684 104.011 48.6503 103.061 48.9394C102.132 49.2077 101.141 49.3419 100.088 49.3419C98.5601 49.3419 97.1253 49.0529 95.7833 48.4748C94.4413 47.8968 93.2646 47.1123 92.2529 46.1213C91.2619 45.1097 90.4774 43.9329 89.8993 42.591C89.3213 41.249 89.0322 39.8142 89.0322 38.2865C89.0322 36.7587 89.3213 35.3239 89.8993 33.9819C90.4774 32.6194 91.2619 31.4426 92.2529 30.4516C93.2646 29.44 94.4413 28.6452 95.7833 28.0671C97.1253 27.4684 98.5601 27.169 100.088 27.169C101.141 27.169 102.132 27.3032 103.061 27.5716C104.011 27.84 104.909 28.2219 105.755 28.7174L104.331 30.7923C103.691 30.4206 103.02 30.1316 102.318 29.9252C101.616 29.7187 100.872 29.6155 100.088 29.6155C98.9111 29.6155 97.8066 29.8426 96.7743 30.2968C95.7627 30.751 94.8646 31.3807 94.08 32.1858C93.3162 32.9703 92.7071 33.889 92.2529 34.9419C91.8194 35.9948 91.6026 37.1097 91.6026 38.2865C91.6026 39.4632 91.8194 40.5781 92.2529 41.631C92.7071 42.6839 93.3162 43.6026 94.08 44.3871C94.8646 45.151 95.7627 45.76 96.7743 46.2142C97.8066 46.6684 98.9111 46.8955 100.088 46.8955C101.161 46.8955 102.183 46.7097 103.154 46.3381V42.2503H99.964V39.8039H105.724ZM107.903 46.5858H110.257V39.8658H108.213V37.4194H112.518V37.6981C112.559 38.1936 112.59 38.6478 112.611 39.0607C112.652 39.4529 112.693 39.8968 112.735 40.3923C112.982 39.8761 113.292 39.4219 113.664 39.0297C114.056 38.6168 114.458 38.2761 114.871 38.0077C115.305 37.7187 115.718 37.5019 116.11 37.3574C116.523 37.2129 116.884 37.1406 117.194 37.1406L117.008 39.68C115.749 39.68 114.737 40.031 113.973 40.7329C113.209 41.4348 112.827 42.3226 112.827 43.3961V46.5858H114.778V49.0323H107.903V46.5858ZM119.365 43.2413C119.365 42.4361 119.52 41.6619 119.83 40.9187C120.16 40.1755 120.604 39.5252 121.162 38.9677C121.719 38.4103 122.38 37.9665 123.143 37.6361C123.907 37.3058 124.723 37.1406 125.59 37.1406C126.147 37.1406 126.664 37.2232 127.138 37.3884C127.613 37.5536 128.026 37.7394 128.377 37.9458C128.728 38.1316 129.007 38.3174 129.213 38.5032C129.42 38.689 129.523 38.8129 129.523 38.8749C129.523 38.6478 129.544 38.4103 129.585 38.1626C129.626 37.9148 129.647 37.6671 129.647 37.4194H131.784V46.5858H134.137V49.0323H129.523V48.4129V47.7935C129.502 47.8555 129.399 47.969 129.213 48.1342C129.027 48.2994 128.759 48.4749 128.408 48.6607C128.078 48.8258 127.675 48.9703 127.2 49.0942C126.725 49.2387 126.189 49.311 125.59 49.311C124.723 49.311 123.907 49.1561 123.143 48.8465C122.38 48.5161 121.719 48.0723 121.162 47.5149C120.604 46.9574 120.16 46.3174 119.83 45.5948C119.52 44.8516 119.365 44.0671 119.365 43.2413ZM121.967 43.2103C121.967 44.2219 122.297 45.0787 122.958 45.7806C123.639 46.4619 124.516 46.8026 125.59 46.8026C126.664 46.8026 127.531 46.4619 128.191 45.7806C128.873 45.0787 129.213 44.2219 129.213 43.2103C129.213 42.1781 128.873 41.3316 128.191 40.671C127.531 39.9897 126.664 39.649 125.59 39.649C124.516 39.649 123.639 39.9897 122.958 40.671C122.297 41.3316 121.967 42.1781 121.967 43.2103ZM136.611 54.3278H138.686V39.8658H136.301V37.4194H140.822C140.822 37.6465 140.833 37.8942 140.853 38.1626C140.874 38.4103 140.905 38.6478 140.946 38.8749C140.967 38.8129 141.081 38.689 141.287 38.5032C141.514 38.2968 141.803 38.1007 142.154 37.9148C142.505 37.7084 142.908 37.5329 143.362 37.3884C143.837 37.2232 144.343 37.1406 144.879 37.1406C145.746 37.1406 146.562 37.3058 147.326 37.6361C148.09 37.9458 148.75 38.3794 149.308 38.9368C149.865 39.4942 150.299 40.1445 150.608 40.8878C150.939 41.6103 151.104 42.3845 151.104 43.2103C151.104 44.0361 150.939 44.8206 150.608 45.5639C150.299 46.3071 149.865 46.9574 149.308 47.5149C148.75 48.0723 148.09 48.5161 147.326 48.8465C146.562 49.1561 145.746 49.311 144.879 49.311C144.301 49.311 143.785 49.249 143.331 49.1252C142.877 49.0013 142.484 48.8568 142.154 48.6916C141.824 48.5264 141.555 48.3716 141.349 48.2271C141.163 48.0619 141.039 47.9381 140.977 47.8555C141.019 47.9587 141.06 48.0619 141.101 48.1652C141.163 48.2478 141.215 48.3407 141.256 48.4439V54.3278H143.486V56.7742H136.611V54.3278ZM148.503 43.2103C148.503 42.1781 148.162 41.3316 147.481 40.671C146.82 39.9897 145.953 39.649 144.879 39.649C143.806 39.649 142.928 39.9897 142.247 40.671C141.586 41.3316 141.256 42.1781 141.256 43.2103C141.256 44.2219 141.586 45.0787 142.247 45.7806C142.928 46.4619 143.806 46.8026 144.879 46.8026C145.953 46.8026 146.82 46.4619 147.481 45.7806C148.162 45.0787 148.503 44.2219 148.503 43.2103ZM162.186 46.5858H164.571V41.7858C164.529 41.2284 164.323 40.7536 163.951 40.3613C163.6 39.9484 163.032 39.7213 162.248 39.68C161.711 39.68 161.195 39.7729 160.7 39.9587C160.225 40.1445 159.801 40.4026 159.43 40.7329C159.058 41.0632 158.759 41.4555 158.532 41.9097C158.305 42.3639 158.191 42.8594 158.191 43.3961V46.5858H160.142V49.0323H153.267V46.5858H155.621V28.2529H153.267V25.8065H158.191V38.9987L158.098 40.3923C158.552 39.3807 159.213 38.6065 160.08 38.0697C160.947 37.5123 161.969 37.2026 163.146 37.1406C164.364 37.1406 165.324 37.4607 166.026 38.1007C166.728 38.7407 167.1 39.5768 167.141 40.609V46.5858H169.061V49.0323H162.186V46.5858ZM173.801 38.2245C173.801 39.4013 174.018 40.5161 174.452 41.569C174.906 42.6219 175.515 43.5407 176.279 44.3252C177.063 45.089 177.961 45.6981 178.973 46.1523C180.005 46.6065 181.11 46.8336 182.287 46.8336C183.464 46.8336 184.568 46.6065 185.6 46.1523C186.633 45.6981 187.531 45.089 188.295 44.3252C189.079 43.5407 189.698 42.6219 190.153 41.569C190.607 40.5161 190.834 39.4013 190.834 38.2245C190.834 37.0477 190.607 35.9329 190.153 34.88C189.698 33.8271 189.079 32.9084 188.295 32.1239C187.531 31.3187 186.633 30.689 185.6 30.2349C184.568 29.7807 183.464 29.5536 182.287 29.5536C181.11 29.5536 180.005 29.7807 178.973 30.2349C177.961 30.689 177.063 31.3187 176.279 32.1239C175.515 32.9084 174.906 33.8271 174.452 34.88C174.018 35.9329 173.801 37.0477 173.801 38.2245ZM171.231 38.2245C171.231 36.6968 171.52 35.2619 172.098 33.92C172.676 32.5574 173.461 31.3807 174.452 30.3897C175.463 29.3781 176.64 28.5832 177.982 28.0052C179.324 27.4065 180.759 27.1071 182.287 27.1071C183.814 27.1071 185.249 27.4065 186.591 28.0052C187.954 28.5832 189.131 29.3781 190.122 30.3897C191.133 31.3807 191.928 32.5574 192.506 33.92C193.105 35.2619 193.404 36.6968 193.404 38.2245C193.404 39.8968 193.053 41.4555 192.351 42.9007C191.649 44.3458 190.71 45.5742 189.533 46.5858H194.086V49.0323H184.578C183.794 49.1974 183.03 49.28 182.287 49.28C180.759 49.28 179.324 48.991 177.982 48.4129C176.64 47.8348 175.463 47.0503 174.452 46.0594C173.461 45.0477 172.676 43.871 172.098 42.529C171.52 41.1871 171.231 39.7523 171.231 38.2245ZM196.242 46.5858H197.976V29.8013H196.242V27.3548H203.116V29.8013H200.546V46.5858H209.31V44.2632H211.757V49.0323H196.242V46.5858ZM223.218 46.5858H225.757C227.181 43.1794 228.606 39.8142 230.031 36.4903C231.476 33.1458 232.911 29.7703 234.335 26.3639C235.76 29.7703 237.184 33.1458 238.609 36.4903C240.054 39.8142 241.489 43.1794 242.913 46.5858H245.453V49.0323H238.578V46.5858H240.312C239.878 45.5536 239.445 44.5316 239.011 43.52C238.598 42.5084 238.175 41.4865 237.742 40.4542H230.929L228.327 46.5858H230.092V49.0323H223.218V46.5858ZM234.614 33.0839L234.304 32.062C234.284 32.1032 234.263 32.1755 234.242 32.2787C234.222 32.3819 234.191 32.4955 234.149 32.6194C234.108 32.7639 234.056 32.9187 233.994 33.0839C233.726 33.6826 233.478 34.271 233.251 34.849C233.045 35.3445 232.828 35.8813 232.601 36.4594C232.374 37.0374 232.167 37.5535 231.982 38.0077H236.689L234.614 33.0839ZM250.286 45.3161V46.5239C250.534 46.6271 250.772 46.6994 250.999 46.7406C251.246 46.7613 251.546 46.7716 251.897 46.7716C251.917 46.7716 251.99 46.7716 252.113 46.7716C252.258 46.751 252.413 46.7097 252.578 46.6477C252.743 46.5652 252.888 46.4516 253.012 46.3071C253.156 46.1626 253.239 45.9458 253.259 45.6568C253.28 45.2852 253.177 45.0064 252.95 44.8206C252.723 44.6142 252.423 44.449 252.052 44.3252C251.701 44.1807 251.308 44.0464 250.875 43.9226C250.441 43.7781 250.028 43.5923 249.636 43.3652C249.264 43.1174 248.955 42.7768 248.707 42.3432C248.459 41.9097 248.335 41.3316 248.335 40.609C248.335 39.969 248.459 39.4323 248.707 38.9987C248.955 38.5652 249.264 38.2142 249.636 37.9458C250.008 37.6568 250.41 37.4503 250.844 37.3264C251.277 37.2026 251.67 37.1406 252.021 37.1406C252.227 37.1406 252.475 37.1613 252.764 37.2026C253.074 37.2439 253.383 37.3161 253.693 37.4194C254.003 37.5226 254.302 37.6568 254.591 37.8219C254.901 37.9871 255.169 38.1936 255.396 38.4413V41.1355H253.104V39.8039C252.795 39.7007 252.485 39.649 252.175 39.649C251.721 39.649 251.391 39.7523 251.184 39.9587C250.978 40.1445 250.895 40.4026 250.937 40.7329C250.978 40.9806 251.133 41.1871 251.401 41.3523C251.67 41.4968 251.979 41.6413 252.33 41.7858C252.702 41.9303 253.094 42.0955 253.507 42.2813C253.92 42.4671 254.302 42.7045 254.653 42.9936C255.004 43.262 255.293 43.6129 255.52 44.0465C255.747 44.4594 255.861 44.9858 255.861 45.6258C255.861 45.9148 255.799 46.2658 255.675 46.6787C255.572 47.0916 255.375 47.4942 255.086 47.8865C254.797 48.2787 254.395 48.609 253.879 48.8774C253.363 49.1458 252.692 49.28 251.866 49.28C251.102 49.28 250.369 49.1871 249.667 49.0013C248.965 48.7948 248.408 48.4645 247.995 48.0103V45.3161H250.286ZM257.906 46.5858H260.074V39.8658H257.906V37.4194H262.644V46.5858H264.781V49.0323H257.906V46.5858ZM259.795 32.929C259.795 32.4542 259.96 32.0619 260.29 31.7523C260.621 31.4426 260.992 31.2877 261.405 31.2877C261.798 31.2877 262.159 31.4426 262.489 31.7523C262.819 32.0619 262.985 32.4542 262.985 32.929C262.985 33.4039 262.819 33.7961 262.489 34.1058C262.159 34.3949 261.798 34.5394 261.405 34.5394C260.992 34.5394 260.621 34.3949 260.29 34.1058C259.96 33.7961 259.795 33.4039 259.795 32.929ZM266.949 43.2413C266.949 42.4361 267.103 41.6619 267.413 40.9187C267.743 40.1755 268.187 39.5252 268.745 38.9677C269.302 38.4103 269.963 37.9665 270.727 37.6361C271.491 37.3058 272.306 37.1406 273.173 37.1406C273.731 37.1406 274.247 37.2232 274.722 37.3884C275.196 37.5536 275.609 37.7394 275.96 37.9458C276.311 38.1316 276.59 38.3174 276.796 38.5032C277.003 38.689 277.106 38.8129 277.106 38.8749C277.106 38.6478 277.127 38.4103 277.168 38.1626C277.209 37.9148 277.23 37.6671 277.23 37.4194H279.367V46.5858H281.72V49.0323H277.106V48.4129V47.7935C277.085 47.8555 276.982 47.969 276.796 48.1342C276.611 48.2994 276.342 48.4749 275.991 48.6607C275.661 48.8258 275.258 48.9703 274.784 49.0942C274.309 49.2387 273.772 49.311 273.173 49.311C272.306 49.311 271.491 49.1561 270.727 48.8465C269.963 48.5161 269.302 48.0723 268.745 47.5149C268.187 46.9574 267.743 46.3174 267.413 45.5948C267.103 44.8516 266.949 44.0671 266.949 43.2413ZM269.55 43.2103C269.55 44.2219 269.88 45.0787 270.541 45.7806C271.222 46.4619 272.1 46.8026 273.173 46.8026C274.247 46.8026 275.114 46.4619 275.775 45.7806C276.456 45.0787 276.796 44.2219 276.796 43.2103C276.796 42.1781 276.456 41.3316 275.775 40.671C275.114 39.9897 274.247 39.649 273.173 39.649C272.1 39.649 271.222 39.9897 270.541 40.671C269.88 41.3316 269.55 42.1781 269.55 43.2103Z" fill="#979797"/>
</svg>