<svg width="138" height="44" viewBox="0 0 138 44" fill="none" xmlns="http://www.w3.org/2000/svg">
<path d="M62.264 2.2C63.752 2.2 65.04 2.448 66.128 2.944C67.232 3.44 68.08 4.144 68.672 5.056C69.264 5.968 69.56 7.048 69.56 8.296C69.56 9.528 69.264 10.608 68.672 11.536C68.08 12.448 67.232 13.152 66.128 13.648C65.04 14.128 63.752 14.368 62.264 14.368H58.88V19H54.992V2.2H62.264ZM62.048 11.2C63.216 11.2 64.104 10.952 64.712 10.456C65.32 9.944 65.624 9.224 65.624 8.296C65.624 7.352 65.32 6.632 64.712 6.136C64.104 5.624 63.216 5.368 62.048 5.368H58.88V11.2H62.048ZM75.1678 7.792C75.6158 7.168 76.2158 6.696 76.9678 6.376C77.7358 6.056 78.6158 5.896 79.6078 5.896V9.352C79.1918 9.32 78.9118 9.304 78.7678 9.304C77.6958 9.304 76.8558 9.608 76.2478 10.216C75.6398 10.808 75.3358 11.704 75.3358 12.904V19H71.5918V6.088H75.1678V7.792ZM81.3539 6.088H85.0979V19H81.3539V6.088ZM83.2259 4.288C82.5379 4.288 81.9779 4.088 81.5459 3.688C81.1139 3.288 80.8979 2.792 80.8979 2.2C80.8979 1.608 81.1139 1.112 81.5459 0.711999C81.9779 0.311999 82.5379 0.111999 83.2259 0.111999C83.9139 0.111999 84.4739 0.303999 84.9059 0.688C85.3379 1.072 85.5539 1.552 85.5539 2.128C85.5539 2.752 85.3379 3.272 84.9059 3.688C84.4739 4.088 83.9139 4.288 83.2259 4.288ZM92.4367 19.192C91.3647 19.192 90.3167 19.064 89.2927 18.808C88.2687 18.536 87.4527 18.2 86.8447 17.8L88.0927 15.112C88.6687 15.48 89.3647 15.784 90.1807 16.024C90.9967 16.248 91.7967 16.36 92.5807 16.36C94.1647 16.36 94.9567 15.968 94.9567 15.184C94.9567 14.816 94.7407 14.552 94.3087 14.392C93.8767 14.232 93.2127 14.096 92.3167 13.984C91.2607 13.824 90.3887 13.64 89.7007 13.432C89.0127 13.224 88.4127 12.856 87.9007 12.328C87.4047 11.8 87.1567 11.048 87.1567 10.072C87.1567 9.256 87.3887 8.536 87.8527 7.912C88.3327 7.272 89.0207 6.776 89.9167 6.424C90.8287 6.072 91.9007 5.896 93.1327 5.896C94.0447 5.896 94.9487 6 95.8447 6.208C96.7567 6.4 97.5087 6.672 98.1007 7.024L96.8527 9.688C95.7167 9.048 94.4767 8.728 93.1327 8.728C92.3327 8.728 91.7327 8.84 91.3327 9.064C90.9327 9.288 90.7327 9.576 90.7327 9.928C90.7327 10.328 90.9487 10.608 91.3807 10.768C91.8127 10.928 92.5007 11.08 93.4447 11.224C94.5007 11.4 95.3647 11.592 96.0367 11.8C96.7087 11.992 97.2927 12.352 97.7887 12.88C98.2847 13.408 98.5327 14.144 98.5327 15.088C98.5327 15.888 98.2927 16.6 97.8127 17.224C97.3327 17.848 96.6287 18.336 95.7007 18.688C94.7887 19.024 93.7007 19.192 92.4367 19.192ZM116.899 5.896C118.515 5.896 119.795 6.376 120.739 7.336C121.699 8.28 122.179 9.704 122.179 11.608V19H118.435V12.184C118.435 11.16 118.219 10.4 117.787 9.904C117.371 9.392 116.771 9.136 115.987 9.136C115.107 9.136 114.411 9.424 113.899 10C113.387 10.56 113.131 11.4 113.131 12.52V19H109.387V12.184C109.387 10.152 108.571 9.136 106.939 9.136C106.075 9.136 105.387 9.424 104.875 10C104.363 10.56 104.107 11.4 104.107 12.52V19H100.363V6.088H103.939V7.576C104.419 7.032 105.003 6.616 105.691 6.328C106.395 6.04 107.163 5.896 107.995 5.896C108.907 5.896 109.731 6.08 110.467 6.448C111.203 6.8 111.795 7.32 112.243 8.008C112.771 7.336 113.435 6.816 114.235 6.448C115.051 6.08 115.939 5.896 116.899 5.896ZM130.263 5.896C132.263 5.896 133.799 6.376 134.871 7.336C135.943 8.28 136.479 9.712 136.479 11.632V19H132.975V17.392C132.271 18.592 130.959 19.192 129.039 19.192C128.047 19.192 127.183 19.024 126.447 18.688C125.727 18.352 125.175 17.888 124.791 17.296C124.407 16.704 124.215 16.032 124.215 15.28C124.215 14.08 124.663 13.136 125.559 12.448C126.471 11.76 127.871 11.416 129.759 11.416H132.735C132.735 10.6 132.487 9.976 131.991 9.544C131.495 9.096 130.751 8.872 129.759 8.872C129.071 8.872 128.391 8.984 127.719 9.208C127.063 9.416 126.503 9.704 126.039 10.072L124.695 7.456C125.399 6.96 126.239 6.576 127.215 6.304C128.207 6.032 129.223 5.896 130.263 5.896ZM129.975 16.672C130.615 16.672 131.183 16.528 131.679 16.24C132.175 15.936 132.527 15.496 132.735 14.92V13.6H130.167C128.631 13.6 127.863 14.104 127.863 15.112C127.863 15.592 128.047 15.976 128.415 16.264C128.799 16.536 129.319 16.672 129.975 16.672ZM54.992 22.2H62.624C64.448 22.2 66.056 22.552 67.448 23.256C68.856 23.944 69.944 24.92 70.712 26.184C71.496 27.448 71.888 28.92 71.888 30.6C71.888 32.28 71.496 33.752 70.712 35.016C69.944 36.28 68.856 37.264 67.448 37.968C66.056 38.656 64.448 39 62.624 39H54.992V22.2ZM62.432 35.808C64.112 35.808 65.448 35.344 66.44 34.416C67.448 33.472 67.952 32.2 67.952 30.6C67.952 29 67.448 27.736 66.44 26.808C65.448 25.864 64.112 25.392 62.432 25.392H58.88V35.808H62.432ZM79.2841 25.896C81.2841 25.896 82.8201 26.376 83.8921 27.336C84.9641 28.28 85.5001 29.712 85.5001 31.632V39H81.9961V37.392C81.2921 38.592 79.9801 39.192 78.0601 39.192C77.0681 39.192 76.2041 39.024 75.4681 38.688C74.7481 38.352 74.1961 37.888 73.8121 37.296C73.4281 36.704 73.2361 36.032 73.2361 35.28C73.2361 34.08 73.6841 33.136 74.5801 32.448C75.4921 31.76 76.8921 31.416 78.7801 31.416H81.7561C81.7561 30.6 81.5081 29.976 81.0121 29.544C80.5161 29.096 79.7721 28.872 78.7801 28.872C78.0921 28.872 77.4121 28.984 76.7401 29.208C76.0841 29.416 75.5241 29.704 75.0601 30.072L73.7161 27.456C74.4201 26.96 75.2601 26.576 76.2361 26.304C77.2281 26.032 78.2441 25.896 79.2841 25.896ZM78.9961 36.672C79.6361 36.672 80.2041 36.528 80.7001 36.24C81.1961 35.936 81.5481 35.496 81.7561 34.92V33.6H79.1881C77.6521 33.6 76.8841 34.104 76.8841 35.112C76.8841 35.592 77.0681 35.976 77.4361 36.264C77.8201 36.536 78.3401 36.672 78.9961 36.672ZM100.99 26.088L95.1583 39.792C94.5663 41.28 93.8303 42.328 92.9503 42.936C92.0863 43.544 91.0383 43.848 89.8063 43.848C89.1343 43.848 88.4703 43.744 87.8143 43.536C87.1583 43.328 86.6223 43.04 86.2063 42.672L87.5743 40.008C87.8623 40.264 88.1903 40.464 88.5583 40.608C88.9423 40.752 89.3183 40.824 89.6863 40.824C90.1983 40.824 90.6143 40.696 90.9343 40.44C91.2543 40.2 91.5423 39.792 91.7983 39.216L91.8463 39.096L86.2543 26.088H90.1183L93.7423 34.848L97.3903 26.088H100.99Z" fill="white"/>
<path fill-rule="evenodd" clip-rule="evenodd" d="M32.9083 30.4747L19.1514 1.26147C18.8064 0.531155 18.0864 0.0486535 17.2704 0.0039659C16.4333 -0.0447842 15.6832 0.358967 15.2601 1.04616L0.340086 25.2118C-0.122103 25.965 -0.11304 26.8937 0.366336 27.6378L7.65948 38.9353C8.09417 39.6097 8.84729 40 9.63011 40C9.85198 40 10.0751 39.9688 10.2945 39.9038L31.4645 33.6425C32.113 33.4506 32.6433 32.9919 32.9208 32.3837C33.1974 31.7753 33.193 31.079 32.9083 30.4747ZM29.8275 31.7276L11.8653 37.0401C11.3166 37.2026 10.7906 36.728 10.9059 36.1745L17.3228 5.4435C17.4428 4.86881 18.2372 4.77756 18.4878 5.30975L30.3691 30.5398C30.5932 31.0158 30.3375 31.577 29.8275 31.7276Z" fill="white"/>
</svg>
