<svg width="185" height="69" viewBox="0 0 185 69" fill="none" xmlns="http://www.w3.org/2000/svg">
  <path d="M55.0003 0.210185C59.323 0.202989 63.641 0.0422644 67.9638 0.00628139C68.5299 -0.0536903 69.132 0.320533 69.1656 0.925048C69.3215 2.52749 69.0601 4.13713 69.0313 5.74198C68.8897 10.782 68.9881 15.8316 68.5875 20.862C67.7551 27.6964 65.5625 34.3341 62.3816 40.4296C58.0708 48.7129 51.8482 55.9311 44.5604 61.7388C41.4347 64.2504 38.0979 66.4837 34.6507 68.5276C27.0319 64.0753 20.0392 58.4619 14.397 51.6539C7.17404 42.9748 2.13402 32.3502 0.665909 21.1115C0.118967 15.0352 0.450011 8.92288 0.0374059 2.84174C0.0374059 1.99974 -0.171296 1.0186 0.397236 0.303741C1.38317 0.0206746 2.42668 0.234174 3.439 0.195792C20.6245 0.243769 37.8124 0.270157 55.0003 0.210185ZM20.8332 5.39654C19.6074 6.24814 18.8997 7.66347 18.6334 9.10279C17.9426 12.4564 18.2976 15.9252 18.9981 19.2476C16.1938 19.8113 13.5119 20.9724 11.2041 22.666C9.57531 23.8438 8.20795 25.5278 7.81934 27.5381C7.58425 28.8455 8.05682 30.1793 8.89163 31.182C11.3289 34.3701 15.1023 36.1596 18.8349 37.3591C18.2472 39.3213 17.9186 41.3628 17.8994 43.4114C17.9618 45.5584 18.2328 47.8277 19.5522 49.6029C20.4374 51.0374 22.1502 51.9034 23.8342 51.6779C28.0178 51.2389 31.7433 48.8401 34.6723 45.9302C37.2079 48.4538 40.2161 50.6896 43.7544 51.5172C45.9038 51.9898 48.6433 51.5724 49.8067 49.4805C51.7378 45.7911 51.438 41.3988 50.5648 37.4526C53.3211 36.5243 56.0246 35.3104 58.3779 33.5808C59.8916 32.4054 61.494 30.8365 61.4652 28.7711C61.5444 26.8304 60.2706 25.156 58.8097 24.019C56.2621 22.0063 53.3259 20.4758 50.2169 19.5403C50.8382 16.5777 51.1693 13.5287 50.891 10.5061C50.6511 8.92767 50.3129 7.23887 49.1758 6.03704C47.8661 4.68168 45.7694 4.29546 43.9991 4.852C40.4823 5.88111 37.371 7.96573 34.6315 10.355C33.4441 9.24912 32.1199 8.30157 30.7645 7.41639C28.7974 6.12819 26.6577 4.99113 24.3116 4.61931C23.1049 4.43459 21.8263 4.66968 20.8332 5.39654Z" fill="#979797"/>
  <path d="M21.6057 8.07368C22.5052 6.81907 24.2708 6.89823 25.5902 7.31803C28.3969 8.27278 30.7789 10.1487 32.8827 12.1925C31.3283 13.9101 29.8866 15.7309 28.4256 17.5228C26.0412 17.933 23.6231 18.1945 21.2482 18.6911C20.982 17.2757 20.7013 15.8628 20.6317 14.4211C20.4182 12.2909 20.2983 9.90162 21.6057 8.07368Z" fill="#979797"/>
  <path d="M42.447 7.77381C43.6272 7.14531 45.0258 6.88143 46.3403 7.1693C47.5062 7.53632 48.1515 8.71657 48.413 9.83684C49.1374 12.857 48.4945 15.9803 47.7485 18.931C45.5031 18.3768 43.2122 18.0434 40.9213 17.7459C39.5204 15.7405 38.0283 13.7902 36.3299 12.0294C38.1482 10.3214 40.2376 8.92047 42.447 7.77381Z" fill="#979797"/>
  <path d="M158.209 12.0174C159.785 10.7124 161.944 10.427 163.923 10.5781C165.559 10.7076 167.265 11.2978 168.323 12.6147C168.951 13.3632 169.246 14.3155 169.479 15.2487C168.258 15.3806 167.039 15.5126 165.821 15.6421C165.619 14.944 165.355 14.1716 164.645 13.8406C163.496 13.2624 161.98 13.272 160.913 14.0301C159.92 14.7138 160.028 16.4361 161.179 16.9015C163.547 17.9762 166.543 17.6979 168.496 19.6338C169.983 21.1331 170.048 23.604 169.186 25.4391C168.323 27.2287 166.289 28.0347 164.415 28.205C162.225 28.3993 159.793 28.2098 158.01 26.7873C156.818 25.8373 156.331 24.3164 156.144 22.8555C157.35 22.7356 158.559 22.618 159.769 22.5005C159.898 23.0714 159.929 23.7167 160.344 24.1749C161.357 25.3959 163.189 25.5327 164.614 25.0817C165.586 24.7914 166.289 23.7575 166.042 22.7404C165.902 21.9415 165.135 21.4882 164.437 21.2339C162.913 20.7205 161.309 20.4854 159.792 19.9457C158.636 19.5331 157.6 18.7103 157.087 17.5804C156.247 15.7501 156.621 13.332 158.209 12.0174Z" fill="#979797"/>
  <path d="M76.0768 11.0147C78.977 11.077 81.8796 10.9331 84.7775 11.0483C86.4926 11.1106 88.3422 11.9814 88.9635 13.6798C89.532 15.2919 89.4217 17.2805 88.3062 18.6383C87.7377 19.3436 86.8693 19.6938 86.0225 19.9361C86.8261 20.2191 87.469 20.8165 87.8384 21.5817C88.9251 23.6831 89.7023 25.9284 90.7674 28.0418C89.3833 28.0418 88.0015 28.0418 86.6198 28.0418C86.2288 26.3387 85.5931 24.7002 84.9022 23.0978C84.5232 22.215 83.8275 21.3346 82.8152 21.2051C81.7693 21.0947 80.7138 21.1763 79.6655 21.1499C79.6871 23.4456 79.5671 25.7533 79.8238 28.0418C78.5764 28.0418 77.3266 28.0418 76.0792 28.0418C76.3814 24.8561 76.1823 21.6489 76.2399 18.4536C76.2039 15.9731 76.3454 13.4855 76.0768 11.0147ZM79.6607 13.9149C79.6583 15.3446 79.6607 16.7744 79.6607 18.2065C80.8001 18.2041 81.9396 18.2113 83.0815 18.2089C83.6788 18.2065 84.3169 18.1609 84.823 17.8059C85.7514 17.1894 85.9601 15.846 85.5043 14.8793C85.1589 14.1668 84.3121 13.9341 83.5804 13.9245C82.2754 13.8957 80.9681 13.9245 79.6607 13.9149Z" fill="#979797"/>
  <path d="M150.144 11.0099C151.42 11.0099 152.697 11.0099 153.973 11.0099C153.663 14.2772 153.875 17.5684 153.812 20.8477C153.798 22.8435 154.064 25.1872 152.524 26.7393C150.871 28.3273 148.314 28.5049 146.172 28.0683C144.248 27.7036 142.809 26.142 142.182 24.3452C143.295 23.947 144.413 23.5608 145.526 23.1626C145.809 23.911 146.153 24.7554 146.961 25.0697C147.863 25.3959 149.026 25.4199 149.775 24.7338C150.456 24.019 150.267 22.9443 150.307 22.0447C150.233 18.3672 150.461 14.6778 150.144 11.0099Z" fill="#979797"/>
  <path d="M135.144 12.3317C136.336 12.3341 137.529 12.3341 138.721 12.3317C138.603 13.4063 138.56 14.4882 138.555 15.5701C139.524 15.5749 140.494 15.5605 141.463 15.479C141.46 16.4457 141.46 17.4125 141.463 18.3792C140.501 18.2665 139.529 18.2545 138.56 18.2593C138.563 20.164 138.555 22.0663 138.56 23.971C138.589 24.4555 138.541 25.0912 139.028 25.3767C139.808 25.7245 140.676 25.4607 141.424 25.1584C141.532 26.0652 141.645 26.9744 141.755 27.8835C140.203 28.3393 138.488 28.4712 136.936 27.9579C135.861 27.6077 135.314 26.461 135.324 25.3911C135.274 23.0138 135.319 20.6365 135.302 18.2593C134.417 18.2545 133.53 18.2737 132.652 18.3768C132.654 17.4053 132.654 16.4313 132.652 15.4598C133.534 15.5581 134.422 15.5773 135.31 15.5701C135.305 14.4882 135.262 13.4063 135.144 12.3317Z" fill="#979797"/>
  <path d="M34.4827 13.8214C35.6558 14.9512 36.6801 16.2202 37.6876 17.4964C35.6486 17.2518 33.5952 17.187 31.5465 17.2805C32.4749 16.0859 33.456 14.932 34.4827 13.8214Z" fill="#979797"/>
  <path d="M121.408 16.9759C123.203 15.0088 126.271 14.6634 128.674 15.5797C130.258 16.1747 131.359 17.6164 131.836 19.1996C130.79 19.4371 129.747 19.6698 128.701 19.9049C128.475 19.346 128.281 18.7366 127.808 18.336C126.707 17.3597 124.795 17.602 123.929 18.7798C123.282 19.6458 123.109 20.7613 123.109 21.8168C123.119 22.9107 123.346 24.0741 124.078 24.9281C125.05 26.0916 127.048 26.1971 128.111 25.1056C128.492 24.7386 128.646 24.2205 128.83 23.7407C129.879 23.9326 130.927 24.1221 131.978 24.314C131.551 25.6622 130.781 26.9744 129.512 27.6796C127.664 28.7207 125.34 28.7423 123.37 28.0419C121.607 27.411 120.415 25.7413 120.002 23.9614C119.434 21.5961 119.755 18.8518 121.408 16.9759Z" fill="#979797"/>
  <path d="M93.8164 16.9519C95.5028 15.3255 98.1199 14.98 100.3 15.6613C101.812 16.1219 103.042 17.3117 103.642 18.763C104.23 20.02 104.275 21.4258 104.371 22.7859C101.306 22.7883 98.2375 22.7787 95.1693 22.7907C95.2965 23.6087 95.486 24.4915 96.1385 25.0625C97.6498 26.5114 100.55 25.9668 101.226 23.9038C102.215 24.2157 103.213 24.5059 104.206 24.801C103.515 26.5402 101.997 27.9171 100.152 28.3081C98.2495 28.6944 96.1169 28.5648 94.4641 27.4637C92.7848 26.3219 91.9884 24.2492 91.926 22.2798C91.8277 20.3559 92.3866 18.3072 93.8164 16.9519ZM96.6542 18.312C95.8746 18.7246 95.498 19.5643 95.2269 20.3583C97.17 20.3703 99.1155 20.3703 101.059 20.3559C100.859 19.7394 100.675 19.0653 100.157 18.6311C99.209 17.8203 97.7409 17.7387 96.6542 18.312Z" fill="#979797"/>
  <path d="M109.423 15.7261C111.307 15.2031 113.377 15.1695 115.241 15.7812C116.505 16.1818 117.527 17.3141 117.584 18.6695C117.764 21.7904 117.481 24.9257 117.784 28.0418C116.658 28.0418 115.533 28.0418 114.406 28.0418C114.406 27.6868 114.408 27.3342 114.411 26.9815C112.712 28.3129 110.369 28.584 108.334 27.9843C106.936 27.5501 105.914 26.1707 105.926 24.7026C105.835 23.3401 106.629 22.0303 107.804 21.3706C109.798 20.188 112.194 20.2815 114.427 20.1448C114.411 19.4083 114.495 18.4128 113.677 18.0578C112.228 17.5108 110.062 17.7195 109.503 19.4155C108.404 19.2356 107.308 19.0605 106.211 18.871C106.684 17.3597 107.888 16.1459 109.423 15.7261ZM109.934 23.2249C109.078 23.7239 108.941 25.228 109.927 25.6598C111.297 26.1467 112.955 25.6598 113.919 24.5875C114.456 23.9926 114.399 23.1458 114.427 22.4021C112.919 22.5268 111.28 22.4213 109.934 23.2249Z" fill="#979797"/>
  <path d="M29.6227 19.9313C32.8731 19.7322 36.1476 19.5643 39.3909 19.9577C39.6787 20.128 39.8347 20.447 40.0338 20.7061C41.5091 22.9395 42.922 25.2208 44.155 27.5981C44.4333 27.9891 44.1142 28.3921 43.9655 28.7615C42.6965 31.2707 41.2812 33.7008 39.7531 36.0589C39.4988 36.4307 39.2421 36.9105 38.7144 36.8649C35.8573 37.004 32.9859 37.0016 30.1264 36.8505C28.169 34.0918 26.3626 31.2204 24.8657 28.1834C26.2523 25.3263 27.7923 22.5341 29.6227 19.9313ZM33.0291 23.6159C30.1288 24.2301 28.951 27.9867 30.2968 30.4263C31.4938 32.6741 34.6027 33.5976 36.8505 32.4246C38.0307 31.7961 38.9471 30.6878 39.3621 29.4188C39.8083 27.6436 39.4077 25.4727 37.8532 24.3476C36.481 23.3545 34.6363 23.2369 33.0291 23.6159Z" fill="#979797"/>
  <path d="M21.8935 20.9076C23.4504 20.6701 25 20.3775 26.5713 20.2311C25.4462 21.8456 24.5059 23.5704 23.4887 25.2496C22.9082 23.8199 22.3469 22.3829 21.8935 20.9076Z" fill="#979797"/>
  <path d="M42.6653 20.3343C44.1718 20.4375 45.6591 20.7397 47.1176 21.1259C46.6282 22.5173 46.194 23.9374 45.5248 25.2568C44.6372 23.58 43.6848 21.9368 42.6653 20.3343Z" fill="#979797"/>
  <path d="M13.4567 24.1533C15.4213 23.033 17.5012 22.0903 19.6841 21.4833C20.3918 23.7191 21.3346 25.8685 22.191 28.0419C21.2938 30.3208 20.3054 32.5709 19.5786 34.917C16.9086 34.2429 14.2603 33.1538 12.2572 31.2084C11.2113 30.2296 10.1534 28.8719 10.4149 27.351C10.9259 25.9165 12.1997 24.9257 13.4567 24.1533Z" fill="#979797"/>
  <path d="M49.5908 21.7784C52.148 22.5844 54.6069 23.7359 56.8186 25.2544C57.9485 26.1443 59.1264 27.4421 58.9009 28.9966C58.7066 30.1984 57.7566 31.0884 56.8498 31.8201C54.782 33.3937 52.3136 34.3485 49.8259 35.025C49.1111 32.8372 48.2235 30.7094 47.228 28.6368C47.0456 28.3321 46.9977 27.9723 47.2016 27.6628C48.1155 25.7509 48.9096 23.7839 49.5908 21.7784Z" fill="#979797"/>
  <path d="M171.82 24.434C173.022 24.434 174.224 24.434 175.428 24.434C175.428 25.6358 175.428 26.8376 175.428 28.0419C174.224 28.0419 173.022 28.0419 171.82 28.0419C171.818 26.8376 171.818 25.6358 171.82 24.434Z" fill="#979797"/>
  <path d="M45.2561 31.4506C45.388 31.2563 45.4768 30.9781 45.7382 30.9277C46.4219 32.4366 46.9113 34.0222 47.463 35.5815C45.7574 36.1021 43.9751 36.294 42.2119 36.5338C43.2698 34.8642 44.3133 33.1874 45.2561 31.4506Z" fill="#979797"/>
  <path d="M21.7903 35.3992C22.4165 33.9191 22.8818 32.3742 23.6039 30.9349C24.6258 32.8228 25.6573 34.7107 26.8592 36.4955C25.1608 36.2052 23.3784 36.1045 21.7903 35.3992Z" fill="#979797"/>
  <path d="M81.1528 32.1199C82.6425 32.1199 84.1346 32.1175 85.6243 32.1223C86.5022 35.0178 87.6921 37.8077 88.7044 40.6575C89.7743 43.493 90.7746 46.3572 91.9549 49.1519C90.5803 49.1519 89.2034 49.1519 87.8288 49.1519C87.5745 47.691 87.0684 46.2925 86.5694 44.9011C84.468 44.9011 82.369 44.9011 80.2676 44.9011C79.783 46.2997 79.2313 47.6862 78.9842 49.1519C77.612 49.1519 76.2399 49.1519 74.8677 49.1519C76.391 45.7575 77.5041 42.1952 78.845 38.7264C79.6199 36.5267 80.5482 34.3773 81.1528 32.1199ZM81.1456 41.9553C82.6616 41.9553 84.1777 41.9553 85.6962 41.9553C84.931 39.6572 84.1513 37.3663 83.4005 35.0658C82.6808 37.3711 81.894 39.6572 81.1456 41.9553Z" fill="#979797"/>
  <path d="M130.118 32.12C131.306 32.12 132.493 32.12 133.681 32.12C133.386 34.9866 133.563 37.8748 133.515 40.7511C133.561 43.5506 133.391 46.362 133.681 49.1519C132.544 49.1519 131.409 49.1519 130.272 49.1495C130.279 48.6626 130.291 48.1732 130.318 47.6862C129.444 48.6002 128.279 49.2671 126.995 49.3294C125.078 49.5477 122.884 49.1183 121.619 47.5447C120.158 45.6376 119.969 43.0252 120.492 40.7511C120.854 39.0695 122.013 37.539 123.634 36.8985C125.844 36.0181 128.641 36.3779 130.32 38.1483C130.226 36.1405 130.363 34.1206 130.118 32.12ZM125.875 39.2158C123.474 39.9163 123.073 43.1332 124.057 45.1098C125.035 47.1441 128.199 47.1681 129.449 45.4001C130.349 44.0951 130.464 42.272 129.739 40.8638C129.039 39.4965 127.331 38.8608 125.875 39.2158Z" fill="#979797"/>
  <path d="M94.5504 38.0763C96.3496 36.114 99.4201 35.7734 101.821 36.697C103.397 37.2943 104.489 38.7288 104.969 40.3073C103.925 40.5472 102.879 40.7798 101.833 41.0149C101.61 40.4584 101.416 39.8515 100.946 39.4485C99.84 38.4673 97.9185 38.712 97.0573 39.8995C96.4144 40.7631 96.2416 41.8761 96.2416 42.9268C96.2512 44.0231 96.4815 45.189 97.218 46.0454C98.1895 47.2016 100.181 47.3048 101.241 46.2181C101.622 45.8487 101.781 45.3329 101.963 44.8507C103.011 45.0426 104.06 45.2322 105.11 45.4241C104.683 46.7818 103.904 48.0988 102.623 48.8017C100.778 49.8308 98.4606 49.85 96.5007 49.1495C94.74 48.5186 93.5501 46.8538 93.1351 45.0762C92.5666 42.7061 92.888 39.9546 94.5504 38.0763Z" fill="#979797"/>
  <path d="M110.249 36.7354C112.144 36.3252 114.214 36.2772 116.032 37.0208C117.165 37.4598 117.997 38.5513 118.064 39.7747C118.244 42.8957 117.961 46.0334 118.263 49.1519C117.138 49.1519 116.013 49.1519 114.886 49.1519C114.886 48.7969 114.888 48.4442 114.89 48.0916C113.192 49.423 110.848 49.6941 108.814 49.0943C107.32 48.6385 106.288 47.1009 106.406 45.5464C106.403 44.1383 107.365 42.8933 108.601 42.3007C110.546 41.3052 112.784 41.3796 114.905 41.2596C114.888 40.5256 114.979 39.5372 114.168 39.175C112.715 38.6161 110.544 38.832 109.973 40.5304C108.879 40.3409 107.785 40.1705 106.691 39.981C107.188 38.3402 108.581 37.0976 110.249 36.7354ZM110.431 44.323C109.56 44.8124 109.411 46.3356 110.409 46.7698C111.729 47.2472 113.31 46.7938 114.291 45.8175C114.919 45.2226 114.89 44.3086 114.905 43.5122C113.406 43.6369 111.777 43.5338 110.431 44.323Z" fill="#979797"/>
  <path d="M137.341 38.1939C139.021 36.4571 141.729 36.0685 143.97 36.7738C145.483 37.2367 146.711 38.4338 147.309 39.8875C147.892 41.1421 147.935 42.543 148.031 43.896C144.965 43.8984 141.897 43.8888 138.829 43.9008C138.958 44.714 139.141 45.592 139.788 46.1653C141.292 47.619 144.209 47.0865 144.879 45.0163C145.872 45.3209 146.87 45.616 147.868 45.9134C147.215 47.5039 145.903 48.8281 144.229 49.303C142.362 49.8188 140.258 49.7348 138.527 48.8257C136.831 47.8925 135.861 46.0142 135.648 44.1407C135.379 42.0513 135.825 39.7388 137.341 38.1939ZM140.292 39.4365C139.524 39.8491 139.155 40.6839 138.886 41.4683C140.829 41.4779 142.775 41.4827 144.718 41.4659C144.519 40.847 144.332 40.1729 143.814 39.7364C142.856 38.9255 141.379 38.8464 140.292 39.4365Z" fill="#979797"/>
  <path d="M153.419 38.1627C155.225 35.9461 159.341 35.6966 160.901 38.3138C162.458 36.3755 165.418 35.8886 167.57 37.0688C168.702 37.6973 169.27 39.0095 169.338 40.2593C169.474 43.2195 169.239 46.1941 169.522 49.1519C168.311 49.1519 167.104 49.1519 165.895 49.1519C166.152 46.9186 166.032 44.6684 166.066 42.4255C166.008 41.5547 166.188 40.528 165.571 39.8131C164.859 39.1318 163.688 39.2614 162.913 39.7651C161.985 40.4032 161.345 41.5259 161.4 42.6654C161.429 44.8267 161.335 46.9953 161.548 49.1519C160.339 49.1519 159.13 49.1519 157.924 49.1519C158.183 46.8442 158.051 44.5197 158.089 42.2024C158.068 41.4179 158.149 40.516 157.602 39.8755C157.13 39.3189 156.297 39.2662 155.647 39.4989C154.549 39.8875 153.781 40.931 153.474 42.0201C153.447 44.3949 153.383 46.7818 153.596 49.1519C152.399 49.1519 151.205 49.1519 150.007 49.1519C150.262 47.0025 150.154 44.8339 150.178 42.6774C150.154 40.6767 150.257 38.6664 150.012 36.6778C151.161 36.6778 152.31 36.6754 153.459 36.6802C153.45 37.1743 153.438 37.6685 153.419 38.1627Z" fill="#979797"/>
  <path d="M170.796 36.6778C172.067 36.6778 173.339 36.6754 174.613 36.6802C175.287 39.4389 176.645 41.9649 177.664 44.6036C178.633 41.9649 179.9 39.4197 180.6 36.6898C181.867 36.6682 183.133 36.6802 184.4 36.6778C182.344 41.2572 180.435 45.9014 178.417 50.5001C178 51.4356 177.263 52.2608 176.292 52.6303C174.814 53.206 173.193 52.9613 171.674 52.7094C171.818 51.7427 171.976 50.7807 172.125 49.814C172.905 50.1042 173.807 50.4161 174.608 50.0155C175.342 49.6269 175.546 48.7489 175.908 48.0676C174.224 44.263 172.54 40.456 170.796 36.6778Z" fill="#979797"/>
  <path d="M21.1498 37.9132C23.6638 38.5033 26.2402 38.7 28.783 39.0958C30.0472 40.8638 31.5441 42.4495 32.9283 44.1143C30.5942 46.6379 27.5668 48.7369 24.074 49.1279C22.9682 49.1543 21.6848 48.7681 21.1714 47.6934C20.1495 45.5344 20.3438 43.0564 20.6485 40.7559C20.7444 39.7963 20.9003 38.844 21.1498 37.9132Z" fill="#979797"/>
  <path d="M40.4248 39.1294C42.9964 39.0263 45.58 38.7144 48.0796 38.0907C49.0175 40.9142 49.1855 44.0711 48.2019 46.9042C47.7941 47.9213 47.0553 49.0535 45.8846 49.2215C44.3349 49.3918 42.8332 48.7681 41.5139 48.0148C39.6547 46.9497 37.906 45.6927 36.3275 44.2414C37.7932 42.6198 39.1222 40.883 40.4248 39.1294Z" fill="#979797"/>
  <path d="M31.9376 39.2326C33.7463 39.3669 35.5599 39.3021 37.371 39.3165C36.5242 40.432 35.5743 41.4611 34.6219 42.483C33.6888 41.4323 32.7364 40.3912 31.9376 39.2326Z" fill="#979797"/>
</svg>