<svg width="236" height="64" viewBox="0 0 236 64" fill="none" xmlns="http://www.w3.org/2000/svg">
  <path fill-rule="evenodd" clip-rule="evenodd" d="M85.6061 24.4926C85.7024 24.7157 85.871 24.8272 86.1117 24.8272H89.41C89.6668 24.8272 89.7952 24.7236 89.7952 24.5165L89.7471 24.3252L86.6654 17.967C86.6173 17.8554 86.6494 17.7757 86.7617 17.7279C87.6927 17.3774 88.4189 16.8116 88.9406 16.0308C89.4622 15.25 89.723 14.3337 89.723 13.2819C89.723 12.2621 89.5023 11.3577 89.0609 10.5689C88.6196 9.7801 87.9976 9.17058 87.1951 8.74032C86.3926 8.31005 85.4617 8.09493 84.4024 8.09493H77.3964C77.268 8.09493 77.1637 8.13477 77.0835 8.21444C77.0032 8.29412 76.9631 8.3977 76.9631 8.52519V24.3969C76.9631 24.5244 77.0032 24.628 77.0835 24.7077C77.1637 24.7874 77.268 24.8272 77.3964 24.8272H80.5262C80.6546 24.8272 80.759 24.7874 80.8392 24.7077C80.9195 24.628 80.9596 24.5244 80.9596 24.3969V18.3255C80.9596 18.214 81.0158 18.1582 81.1281 18.1582H82.6208C82.7171 18.1582 82.7813 18.198 82.8134 18.2777L85.6061 24.4926ZM80.9596 11.6565C80.9596 11.545 81.0158 11.4892 81.1281 11.4892H83.7523C84.3462 11.4892 84.8277 11.6565 85.1969 11.9912C85.566 12.3258 85.7506 12.772 85.7506 13.3297C85.7506 13.8716 85.566 14.3058 85.1969 14.6325C84.8277 14.9591 84.3462 15.1225 83.7523 15.1225H81.1281C81.0158 15.1225 80.9596 15.0667 80.9596 14.9552V11.6565Z" fill="#979797"/>
  <path fill-rule="evenodd" clip-rule="evenodd" d="M99.2207 21.421C98.7954 21.5724 98.334 21.6481 97.8364 21.6481C97.2586 21.6481 96.7691 21.5405 96.3678 21.3254C95.9665 21.1102 95.6857 20.8115 95.5252 20.429L95.3807 19.9509C95.3647 19.8872 95.3767 19.8394 95.4168 19.8075C95.457 19.7757 95.5011 19.7597 95.5492 19.7597H102.82C103.109 19.7597 103.253 19.6163 103.253 19.3295C103.221 18.8036 103.173 18.3176 103.109 17.8714C102.804 16.1025 102.158 14.7241 101.171 13.7361C100.184 12.7481 98.8877 12.2541 97.2827 12.2541C95.9023 12.2541 94.6986 12.6326 93.6714 13.3895C92.6442 14.1464 91.954 15.1464 91.6009 16.3894C91.4243 17.0587 91.3361 17.7757 91.3361 18.5406C91.3361 20.2617 91.7774 21.6799 92.6602 22.7954C93.2059 23.4966 93.9001 24.0424 94.7427 24.4328C95.5854 24.8232 96.5524 25.0184 97.6438 25.0184C98.5908 25.0184 99.4815 24.8591 100.316 24.5404C101.151 24.2217 101.841 23.7755 102.387 23.2018C102.483 23.1062 102.531 23.0026 102.531 22.891C102.531 22.7954 102.483 22.6918 102.387 22.5803L100.894 20.8115C100.798 20.6999 100.701 20.6441 100.605 20.6441C100.493 20.6441 100.388 20.6999 100.292 20.8115C100.003 21.0664 99.6461 21.2696 99.2207 21.421ZM95.5492 16.8435C95.8382 16.0627 96.3919 15.6723 97.2104 15.6723C97.6599 15.6723 98.029 15.7798 98.3179 15.995C98.6068 16.2101 98.8155 16.5089 98.9439 16.8913L99.0402 17.2021C99.0562 17.2499 99.0522 17.2937 99.0281 17.3335C99.0041 17.3734 98.9599 17.3933 98.8957 17.3933H95.5974C95.485 17.3933 95.4289 17.3455 95.4289 17.2499V17.2021C95.4449 17.1224 95.485 17.0029 95.5492 16.8435Z" fill="#979797"/>
  <path fill-rule="evenodd" clip-rule="evenodd" d="M112.98 12.8158C112.113 12.4573 111.15 12.278 110.091 12.278C109.08 12.278 108.169 12.4374 107.358 12.7561C106.548 13.0748 105.894 13.509 105.396 14.0588C104.898 14.6086 104.61 15.2261 104.529 15.9113C104.497 16.1025 104.626 16.2141 104.915 16.2459L108.141 16.6523C108.253 16.6682 108.345 16.6483 108.418 16.5925C108.49 16.5368 108.566 16.4531 108.646 16.3415C108.759 16.1344 108.947 15.971 109.212 15.8515C109.477 15.732 109.794 15.6723 110.163 15.6723C110.677 15.6723 111.074 15.7958 111.355 16.0428C111.636 16.2898 111.776 16.6284 111.776 17.0586V17.465C111.776 17.5766 111.72 17.6323 111.607 17.6323H109.32C107.699 17.6323 106.459 17.967 105.601 18.6363C104.742 19.3056 104.313 20.2537 104.313 21.4807C104.313 22.644 104.69 23.5245 105.444 24.1221C106.199 24.7196 107.21 25.0184 108.478 25.0184C109.906 25.0184 110.941 24.628 111.583 23.8472C111.632 23.7834 111.676 23.7595 111.716 23.7755C111.756 23.7914 111.776 23.8392 111.776 23.9189V24.3969C111.776 24.5244 111.816 24.628 111.896 24.7077C111.977 24.7874 112.081 24.8272 112.209 24.8272H115.339C115.468 24.8272 115.572 24.7874 115.652 24.7077C115.732 24.628 115.773 24.5244 115.773 24.3969V16.3894C115.773 15.6244 115.524 14.9273 115.026 14.2978C114.529 13.6684 113.847 13.1744 112.98 12.8158ZM111.186 21.7078C110.793 22.0186 110.291 22.1739 109.681 22.1739C109.248 22.1739 108.911 22.0704 108.67 21.8632C108.43 21.656 108.309 21.3772 108.309 21.0266C108.309 20.6123 108.474 20.3015 108.803 20.0944C109.132 19.8872 109.601 19.7836 110.211 19.7836H111.607C111.72 19.7836 111.776 19.8394 111.776 19.9509V20.4768C111.776 20.9868 111.579 21.3971 111.186 21.7078Z" fill="#979797"/>
  <path d="M120.022 24.0384C121.009 24.6918 122.16 25.0184 123.477 25.0184C124.793 25.0184 125.952 24.7077 126.956 24.0862C127.959 23.4647 128.653 22.5962 129.038 21.4807C129.086 21.3373 129.126 21.1381 129.158 20.8832C129.207 20.6123 129.086 20.4529 128.797 20.4051L125.716 19.927C125.603 19.9111 125.495 19.947 125.391 20.0346C125.286 20.1222 125.226 20.2059 125.21 20.2856L125.186 20.4051C125.042 20.8035 124.821 21.1063 124.524 21.3134C124.227 21.5206 123.87 21.6242 123.453 21.6242C122.618 21.6242 122.048 21.2178 121.743 20.4051C121.583 19.8952 121.502 19.2976 121.502 18.6124C121.502 17.8475 121.591 17.2419 121.767 16.7957C122.04 16.0467 122.602 15.6723 123.453 15.6723C123.886 15.6723 124.263 15.7838 124.584 16.0069C124.905 16.23 125.114 16.5168 125.21 16.8674L125.306 17.2021C125.338 17.3933 125.459 17.4889 125.667 17.4889L125.788 17.465L128.845 17.0108C129.102 16.963 129.231 16.8356 129.231 16.6284V16.5328C129.199 16.2619 129.134 15.9989 129.038 15.744C128.685 14.74 128.003 13.9114 126.992 13.258C125.98 12.6047 124.809 12.278 123.477 12.278C122.16 12.278 121.005 12.5927 120.01 13.2222C119.015 13.8516 118.316 14.7241 117.915 15.8396C117.61 16.6045 117.458 17.5208 117.458 18.5885C117.458 19.6561 117.61 20.5724 117.915 21.3373C118.333 22.4847 119.035 23.385 120.022 24.0384Z" fill="#979797"/>
  <path d="M138.403 15.5288C138.484 15.4492 138.524 15.3456 138.524 15.2181V12.8995C138.524 12.772 138.484 12.6684 138.403 12.5887C138.323 12.5091 138.219 12.4692 138.09 12.4692H136.092C135.98 12.4692 135.924 12.4134 135.924 12.3019V9.60083C135.924 9.47335 135.883 9.36977 135.803 9.29009C135.723 9.21041 135.619 9.17057 135.49 9.17057H132.529C132.401 9.17057 132.296 9.21041 132.216 9.29009C132.136 9.36977 132.096 9.47335 132.096 9.60083V12.3019C132.096 12.4134 132.039 12.4692 131.927 12.4692H130.747C130.619 12.4692 130.515 12.5091 130.434 12.5887C130.354 12.6684 130.314 12.772 130.314 12.8995V15.2181C130.314 15.3456 130.354 15.4492 130.434 15.5288C130.515 15.6085 130.619 15.6484 130.747 15.6484H131.927C132.039 15.6484 132.096 15.7041 132.096 15.8157V21.6242C132.112 22.8353 132.457 23.6639 133.131 24.1101C133.805 24.5563 134.84 24.7794 136.237 24.7794C136.542 24.7794 137.063 24.7635 137.801 24.7316C138.074 24.6997 138.211 24.5563 138.211 24.3013V21.7915C138.211 21.664 138.171 21.5604 138.09 21.4807C138.01 21.4011 137.906 21.3612 137.777 21.3612H137.031C136.293 21.3612 135.924 20.9071 135.924 19.9987V15.8157C135.924 15.7041 135.98 15.6484 136.092 15.6484H138.09C138.219 15.6484 138.323 15.6085 138.403 15.5288Z" fill="#979797"/>
  <path d="M147.925 24.2535C148.896 24.7635 150.024 25.0184 151.308 25.0184C152.592 25.0184 153.719 24.7714 154.69 24.2774C155.661 23.7834 156.416 23.0823 156.953 22.1739C157.491 21.2656 157.76 20.2139 157.76 19.0187V15.9113C157.76 15.7838 157.72 15.6802 157.64 15.6005C157.559 15.5209 157.455 15.481 157.327 15.481H151.452C151.324 15.481 151.219 15.5209 151.139 15.6005C151.059 15.6802 151.019 15.7838 151.019 15.9113V18.2538C151.019 18.3813 151.059 18.4849 151.139 18.5646C151.219 18.6442 151.324 18.6841 151.452 18.6841H153.667C153.779 18.6841 153.836 18.7398 153.836 18.8514V19.4729C153.836 20.1422 153.619 20.6641 153.186 21.0385C152.752 21.413 152.182 21.6003 151.476 21.6003C150.722 21.6003 150.096 21.3612 149.598 20.8832C149.101 20.4051 148.852 19.7836 148.852 19.0187V13.8795C148.852 13.1146 149.077 12.4931 149.526 12.0151C149.976 11.537 150.569 11.298 151.308 11.298C152.062 11.298 152.66 11.5171 153.101 11.9553C153.543 12.3935 153.763 12.9234 153.763 13.5449V13.6883C153.763 13.7839 153.908 13.8317 154.197 13.8317H157.327C157.615 13.8317 157.76 13.6963 157.76 13.4254C157.76 12.4055 157.491 11.4733 156.953 10.6287C156.416 9.78409 155.657 9.11879 154.678 8.63275C153.699 8.14672 152.576 7.9037 151.308 7.9037C150.024 7.9037 148.896 8.15867 147.925 8.66861C146.954 9.17855 146.2 9.89165 145.662 10.8079C145.124 11.7242 144.856 12.7879 144.856 13.999V18.8992C144.856 20.1103 145.124 21.178 145.662 22.1022C146.2 23.0265 146.954 23.7436 147.925 24.2535Z" fill="#979797"/>
  <path d="M167.462 12.5648C167.141 12.3895 166.724 12.3019 166.21 12.3019C165.215 12.3019 164.397 12.7003 163.755 13.4971C163.723 13.5608 163.686 13.5847 163.646 13.5688C163.606 13.5528 163.586 13.505 163.586 13.4254V12.8995C163.586 12.772 163.546 12.6684 163.466 12.5887C163.386 12.5091 163.281 12.4692 163.153 12.4692H160.023C159.895 12.4692 159.79 12.5091 159.71 12.5887C159.63 12.6684 159.59 12.772 159.59 12.8995V24.3969C159.59 24.5244 159.63 24.628 159.71 24.7077C159.79 24.7874 159.895 24.8272 160.023 24.8272H163.153C163.281 24.8272 163.386 24.7874 163.466 24.7077C163.546 24.628 163.586 24.5244 163.586 24.3969V18.2538C163.586 17.7279 163.759 17.3057 164.104 16.9869C164.449 16.6682 164.87 16.477 165.368 16.4133C165.496 16.3814 165.689 16.3655 165.946 16.3655C166.234 16.3655 166.475 16.3894 166.668 16.4372C166.716 16.4531 166.78 16.4611 166.86 16.4611C167.053 16.4611 167.157 16.3575 167.173 16.1503L167.703 13.0907C167.751 12.8517 167.671 12.6764 167.462 12.5648Z" fill="#979797"/>
  <path fill-rule="evenodd" clip-rule="evenodd" d="M177.092 12.8158C176.226 12.4573 175.263 12.278 174.203 12.278C173.192 12.278 172.281 12.4374 171.471 12.7561C170.66 13.0748 170.006 13.509 169.509 14.0588C169.011 14.6086 168.722 15.2261 168.642 15.9113C168.61 16.1025 168.738 16.2141 169.027 16.2459L172.253 16.6523C172.366 16.6682 172.458 16.6483 172.53 16.5925C172.602 16.5368 172.679 16.4531 172.759 16.3415C172.871 16.1344 173.06 15.971 173.325 15.8515C173.589 15.732 173.906 15.6723 174.276 15.6723C174.789 15.6723 175.186 15.7958 175.467 16.0428C175.748 16.2898 175.889 16.6284 175.889 17.0586V17.465C175.889 17.5766 175.832 17.6323 175.72 17.6323H173.433C171.812 17.6323 170.572 17.967 169.713 18.6363C168.855 19.3056 168.425 20.2537 168.425 21.4807C168.425 22.644 168.802 23.5245 169.557 24.1221C170.311 24.7196 171.322 25.0184 172.59 25.0184C174.019 25.0184 175.054 24.628 175.696 23.8472C175.744 23.7834 175.788 23.7595 175.828 23.7755C175.869 23.7914 175.889 23.8392 175.889 23.9189V24.3969C175.889 24.5244 175.929 24.628 176.009 24.7077C176.089 24.7874 176.194 24.8272 176.322 24.8272H179.452C179.58 24.8272 179.685 24.7874 179.765 24.7077C179.845 24.628 179.885 24.5244 179.885 24.3969V16.3894C179.885 15.6244 179.636 14.9273 179.139 14.2978C178.641 13.6684 177.959 13.1744 177.092 12.8158ZM175.299 21.7078C174.906 22.0186 174.404 22.1739 173.794 22.1739C173.361 22.1739 173.024 22.0704 172.783 21.8632C172.542 21.656 172.422 21.3772 172.422 21.0266C172.422 20.6123 172.586 20.3015 172.915 20.0944C173.244 19.8872 173.714 19.7836 174.324 19.7836H175.72C175.832 19.7836 175.889 19.8394 175.889 19.9509V20.4768C175.889 20.9868 175.692 21.3971 175.299 21.7078Z" fill="#979797"/>
  <path fill-rule="evenodd" clip-rule="evenodd" d="M193.945 18.708C193.945 17.6562 193.817 16.7399 193.56 15.9591C193.239 14.8755 192.637 13.9911 191.754 13.3058C190.871 12.6206 189.909 12.278 188.865 12.278C187.645 12.278 186.731 12.7003 186.121 13.5449C186.072 13.6086 186.028 13.6325 185.988 13.6166C185.948 13.6006 185.928 13.5528 185.928 13.4732V12.8995C185.928 12.772 185.888 12.6684 185.808 12.5887C185.727 12.5091 185.623 12.4692 185.495 12.4692H182.365C182.236 12.4692 182.132 12.5091 182.052 12.5887C181.972 12.6684 181.932 12.772 181.932 12.8995V28.7712C181.932 28.8987 181.972 29.0023 182.052 29.082C182.132 29.1617 182.236 29.2015 182.365 29.2015H185.495C185.623 29.2015 185.727 29.1617 185.808 29.082C185.888 29.0023 185.928 28.8987 185.928 28.7712V24.0145C185.928 23.9348 185.948 23.887 185.988 23.8711C186.028 23.8551 186.072 23.879 186.121 23.9428C186.731 24.6758 187.645 25.0423 188.865 25.0423C189.892 25.0423 190.819 24.7356 191.646 24.1221C192.473 23.5085 193.07 22.7078 193.44 21.7198C193.777 20.8433 193.945 19.8394 193.945 18.708ZM189.66 18.6363C189.66 19.4968 189.515 20.19 189.226 20.7158C188.889 21.2736 188.408 21.5525 187.782 21.5525C187.188 21.5525 186.723 21.2816 186.385 20.7397C186.097 20.2139 185.952 19.5127 185.952 18.6363C185.952 17.8395 186.089 17.1861 186.361 16.6762C186.698 16.0706 187.172 15.7679 187.782 15.7679C188.424 15.7679 188.913 16.0627 189.25 16.6523C189.523 17.1622 189.66 17.8235 189.66 18.6363Z" fill="#979797"/>
  <path d="M205.513 13.4612C204.719 12.6724 203.696 12.278 202.444 12.278C201.192 12.278 200.237 12.7322 199.579 13.6405C199.547 13.7042 199.511 13.7281 199.47 13.7122C199.43 13.6963 199.41 13.6485 199.41 13.5688V8.52519C199.41 8.3977 199.37 8.29412 199.29 8.21444C199.21 8.13477 199.105 8.09493 198.977 8.09493H195.847C195.719 8.09493 195.614 8.13477 195.534 8.21444C195.454 8.29412 195.414 8.3977 195.414 8.52519V24.3969C195.414 24.5244 195.454 24.628 195.534 24.7077C195.614 24.7874 195.719 24.8272 195.847 24.8272H198.977C199.105 24.8272 199.21 24.7874 199.29 24.7077C199.37 24.628 199.41 24.5244 199.41 24.3969V17.5367C199.41 16.979 199.563 16.5288 199.868 16.1862C200.173 15.8436 200.574 15.6723 201.071 15.6723C201.569 15.6723 201.966 15.8436 202.263 16.1862C202.56 16.5288 202.709 16.979 202.709 17.5367V24.3969C202.709 24.5244 202.749 24.628 202.829 24.7077C202.909 24.7874 203.013 24.8272 203.142 24.8272H206.272C206.4 24.8272 206.504 24.7874 206.585 24.7077C206.665 24.628 206.705 24.5244 206.705 24.3969V16.6762C206.705 15.3217 206.308 14.25 205.513 13.4612Z" fill="#979797"/>
  <path fill-rule="evenodd" clip-rule="evenodd" d="M218.189 8.68056C217.226 8.16265 216.11 7.9037 214.843 7.9037C213.591 7.9037 212.483 8.16265 211.52 8.68056C210.557 9.19846 209.811 9.92751 209.281 10.8677C208.751 11.8079 208.487 12.8915 208.487 14.1185V19.1143C208.487 20.5326 208.864 21.7357 209.618 22.7237C210.373 23.7117 211.408 24.381 212.724 24.7316C212.82 24.7794 212.868 24.8431 212.868 24.9228V26.596C212.868 26.7235 212.908 26.8271 212.989 26.9068C213.069 26.9865 213.173 27.0263 213.302 27.0263H216.431C216.56 27.0263 216.664 26.9865 216.744 26.9068C216.825 26.8271 216.865 26.7235 216.865 26.596V24.9228C216.865 24.8431 216.913 24.7794 217.009 24.7316C218.325 24.3651 219.357 23.6878 220.103 22.6998C220.849 21.7118 221.222 20.5167 221.222 19.1143V14.1185C221.222 12.8915 220.958 11.8079 220.428 10.8677C219.898 9.92751 219.152 9.19846 218.189 8.68056ZM216.576 12.0151C217.009 12.4931 217.226 13.1226 217.226 13.9034V19.0187C217.226 19.7996 217.009 20.429 216.576 20.9071C216.143 21.3851 215.565 21.6242 214.843 21.6242C214.136 21.6242 213.567 21.3851 213.133 20.9071C212.7 20.429 212.483 19.7996 212.483 19.0187V13.9034C212.483 13.1226 212.7 12.4931 213.133 12.0151C213.567 11.537 214.136 11.298 214.843 11.298C215.565 11.298 216.143 11.537 216.576 12.0151Z" fill="#979797"/>
  <path d="M223.389 24.7077C223.47 24.7874 223.574 24.8272 223.702 24.8272H234.921C235.05 24.8272 235.154 24.7874 235.234 24.7077C235.315 24.628 235.355 24.5244 235.355 24.3969V21.8632C235.355 21.7357 235.315 21.6321 235.234 21.5525C235.154 21.4728 235.05 21.4329 234.921 21.4329H227.434C227.322 21.4329 227.265 21.3772 227.265 21.2656V8.52519C227.265 8.3977 227.225 8.29412 227.145 8.21444C227.065 8.13477 226.96 8.09493 226.832 8.09493H223.702C223.574 8.09493 223.47 8.13477 223.389 8.21444C223.309 8.29412 223.269 8.3977 223.269 8.52519V24.3969C223.269 24.5244 223.309 24.628 223.389 24.7077Z" fill="#979797"/>
  <path fill-rule="evenodd" clip-rule="evenodd" d="M87.6044 50.2106C87.6686 50.4497 87.8291 50.5692 88.0859 50.5692H91.4805C91.7373 50.5692 91.8657 50.4656 91.8657 50.2584C91.8657 50.1787 91.8577 50.123 91.8416 50.0911L86.7617 34.1954C86.6975 33.9564 86.529 33.8369 86.2562 33.8369H81.9948C81.738 33.8369 81.5695 33.9564 81.4892 34.1954L76.4334 50.0911C76.3853 50.2345 76.3933 50.3501 76.4575 50.4377C76.5217 50.5253 76.6341 50.5692 76.7946 50.5692H80.1892C80.446 50.5692 80.6065 50.4497 80.6707 50.2106L81.2244 48.2506C81.2565 48.1549 81.3207 48.1071 81.417 48.1071H86.8581C86.9704 48.1071 87.0346 48.1549 87.0507 48.2506L87.6044 50.2106ZM82.356 45.0475C82.2597 45.0475 82.2115 44.9997 82.2115 44.9041V44.8563L84.0412 38.498C84.0733 38.4183 84.1095 38.3785 84.1496 38.3785C84.1897 38.3785 84.2178 38.4183 84.2338 38.498L86.0636 44.8563C86.0796 44.9041 86.0756 44.9479 86.0515 44.9878C86.0275 45.0276 85.9833 45.0475 85.9191 45.0475H82.356Z" fill="#979797"/>
  <path d="M95.778 49.7804C96.7651 50.4337 97.9166 50.7604 99.2328 50.7604C100.549 50.7604 101.709 50.4497 102.712 49.8282C103.715 49.2067 104.409 48.3382 104.794 47.2227C104.842 47.0793 104.882 46.8801 104.915 46.6251C104.963 46.3542 104.842 46.1949 104.553 46.1471L101.472 45.669C101.359 45.6531 101.251 45.6889 101.147 45.7766C101.042 45.8642 100.982 45.9479 100.966 46.0275L100.942 46.1471C100.798 46.5455 100.577 46.8482 100.28 47.0554C99.9831 47.2626 99.626 47.3661 99.2087 47.3661C98.3741 47.3661 97.8043 46.9598 97.4993 46.1471C97.3388 45.6371 97.2586 45.0396 97.2586 44.3543C97.2586 43.5894 97.3469 42.9839 97.5234 42.5377C97.7963 41.7887 98.358 41.4142 99.2087 41.4142C99.6421 41.4142 100.019 41.5258 100.34 41.7489C100.661 41.972 100.87 42.2588 100.966 42.6094L101.062 42.944C101.095 43.1353 101.215 43.2309 101.424 43.2309L101.544 43.207L104.602 42.7528C104.858 42.705 104.987 42.5775 104.987 42.3704V42.2747C104.955 42.0038 104.89 41.7409 104.794 41.4859C104.441 40.482 103.759 39.6534 102.748 39C101.737 38.3466 100.565 38.02 99.2328 38.02C97.9166 38.02 96.761 38.3347 95.7659 38.9641C94.7708 39.5936 94.0726 40.4661 93.6714 41.5815C93.3664 42.3465 93.2139 43.2627 93.2139 44.3304C93.2139 45.3981 93.3664 46.3144 93.6714 47.0793C94.0887 48.2267 94.7909 49.127 95.778 49.7804Z" fill="#979797"/>
  <path fill-rule="evenodd" clip-rule="evenodd" d="M114.713 38.5578C113.846 38.1992 112.883 38.02 111.824 38.02C110.813 38.02 109.902 38.1793 109.092 38.498C108.281 38.8167 107.627 39.251 107.129 39.8008C106.632 40.3505 106.343 40.968 106.263 41.6533C106.231 41.8445 106.359 41.956 106.648 41.9879L109.874 42.3943C109.986 42.4102 110.079 42.3903 110.151 42.3345C110.223 42.2787 110.299 42.1951 110.38 42.0835C110.492 41.8764 110.681 41.713 110.945 41.5935C111.21 41.474 111.527 41.4142 111.896 41.4142C112.41 41.4142 112.807 41.5377 113.088 41.7847C113.369 42.0317 113.509 42.3704 113.509 42.8006V43.207C113.509 43.3185 113.453 43.3743 113.341 43.3743H111.054C109.433 43.3743 108.193 43.7089 107.334 44.3782C106.475 45.0475 106.046 45.9957 106.046 47.2227C106.046 48.386 106.423 49.2664 107.178 49.864C107.932 50.4616 108.943 50.7604 110.211 50.7604C111.64 50.7604 112.675 50.37 113.317 49.5891C113.365 49.5254 113.409 49.5015 113.449 49.5174C113.489 49.5334 113.509 49.5812 113.509 49.6608V50.1389C113.509 50.2664 113.55 50.37 113.63 50.4497C113.71 50.5293 113.814 50.5692 113.943 50.5692H117.073C117.201 50.5692 117.305 50.5293 117.386 50.4497C117.466 50.37 117.506 50.2664 117.506 50.1389V42.1313C117.506 41.3664 117.257 40.6692 116.76 40.0398C116.262 39.4103 115.58 38.9163 114.713 38.5578ZM112.92 47.4498C112.526 47.7605 112.025 47.9159 111.415 47.9159C110.982 47.9159 110.644 47.8123 110.404 47.6052C110.163 47.398 110.043 47.1191 110.043 46.7686C110.043 46.3542 110.207 46.0435 110.536 45.8363C110.865 45.6292 111.335 45.5256 111.945 45.5256H113.341C113.453 45.5256 113.509 45.5814 113.509 45.6929V46.2188C113.509 46.7287 113.313 47.139 112.92 47.4498Z" fill="#979797"/>
  <path fill-rule="evenodd" clip-rule="evenodd" d="M127.064 33.9564C126.984 34.0361 126.943 34.1397 126.943 34.2671V39.0239C126.943 39.1036 126.923 39.1514 126.883 39.1673C126.843 39.1833 126.799 39.1594 126.751 39.0956C126.141 38.3626 125.226 37.9961 124.006 37.9961C122.979 37.9961 122.052 38.3028 121.226 38.9163C120.399 39.5299 119.801 40.3306 119.432 41.3186C119.095 42.1951 118.926 43.199 118.926 44.3304C118.926 45.3822 119.055 46.2984 119.312 47.0793C119.633 48.1629 120.234 49.0473 121.117 49.7326C122 50.4178 122.963 50.7604 124.006 50.7604C125.226 50.7604 126.141 50.3381 126.751 49.4935C126.799 49.4298 126.843 49.4059 126.883 49.4218C126.923 49.4378 126.943 49.4856 126.943 49.5652V50.1389C126.943 50.2664 126.984 50.37 127.064 50.4497C127.144 50.5293 127.248 50.5692 127.377 50.5692H130.507C130.635 50.5692 130.739 50.5293 130.82 50.4497C130.9 50.37 130.94 50.2664 130.94 50.1389V34.2671C130.94 34.1397 130.9 34.0361 130.82 33.9564C130.739 33.8767 130.635 33.8369 130.507 33.8369H127.377C127.248 33.8369 127.144 33.8767 127.064 33.9564ZM126.919 44.4021C126.919 45.1989 126.783 45.8523 126.51 46.3622C126.173 46.9677 125.7 47.2705 125.09 47.2705C124.448 47.2705 123.958 46.9757 123.621 46.3861C123.348 45.8762 123.212 45.2148 123.212 44.4021C123.212 43.5416 123.356 42.8484 123.645 42.3225C123.982 41.7648 124.464 41.4859 125.09 41.4859C125.684 41.4859 126.149 41.7568 126.486 42.2986C126.775 42.8245 126.919 43.5257 126.919 44.4021Z" fill="#979797"/>
  <path fill-rule="evenodd" clip-rule="evenodd" d="M140.654 47.163C140.229 47.3143 139.768 47.39 139.27 47.39C138.692 47.39 138.203 47.2825 137.801 47.0673C137.4 46.8522 137.119 46.5534 136.959 46.171L136.814 45.6929C136.798 45.6292 136.81 45.5814 136.85 45.5495C136.891 45.5176 136.935 45.5017 136.983 45.5017H144.254C144.543 45.5017 144.687 45.3583 144.687 45.0714C144.655 44.5455 144.607 44.0595 144.543 43.6133C144.238 41.8445 143.592 40.4661 142.604 39.4781C141.617 38.4901 140.321 37.9961 138.716 37.9961C137.336 37.9961 136.132 38.3745 135.105 39.1315C134.078 39.8884 133.388 40.8883 133.035 42.1313C132.858 42.8006 132.77 43.5177 132.77 44.2826C132.77 46.0037 133.211 47.4219 134.094 48.5374C134.64 49.2386 135.334 49.7843 136.176 50.1748C137.019 50.5652 137.986 50.7604 139.077 50.7604C140.024 50.7604 140.915 50.601 141.75 50.2823C142.584 49.9636 143.275 49.5174 143.82 48.9437C143.917 48.8481 143.965 48.7446 143.965 48.633C143.965 48.5374 143.917 48.4338 143.82 48.3223L142.328 46.5534C142.231 46.4419 142.135 46.3861 142.039 46.3861C141.926 46.3861 141.822 46.4419 141.726 46.5534C141.437 46.8084 141.08 47.0116 140.654 47.163ZM136.983 42.5855C137.272 41.8046 137.826 41.4142 138.644 41.4142C139.093 41.4142 139.463 41.5218 139.752 41.7369C140.04 41.952 140.249 42.2508 140.378 42.6333L140.474 42.944C140.49 42.9918 140.486 43.0357 140.462 43.0755C140.438 43.1153 140.394 43.1353 140.329 43.1353H137.031C136.919 43.1353 136.863 43.0875 136.863 42.9918V42.944C136.879 42.8644 136.919 42.7448 136.983 42.5855Z" fill="#979797"/>
  <path d="M163.538 39.1673C162.832 38.4024 161.853 38.02 160.601 38.02C159.028 38.02 157.904 38.6813 157.23 40.0039C157.198 40.0677 157.162 40.1035 157.122 40.1115C157.082 40.1195 157.046 40.0916 157.014 40.0278C156.677 39.3745 156.207 38.8765 155.605 38.5339C155.003 38.1913 154.309 38.02 153.523 38.02C152.142 38.02 151.131 38.5219 150.489 39.5259C150.441 39.5896 150.397 39.6175 150.357 39.6095C150.317 39.6016 150.297 39.5577 150.297 39.4781V38.6414C150.297 38.514 150.256 38.4104 150.176 38.3307C150.096 38.251 149.992 38.2112 149.863 38.2112H146.733C146.605 38.2112 146.501 38.251 146.42 38.3307C146.34 38.4104 146.3 38.514 146.3 38.6414V50.1389C146.3 50.2664 146.34 50.37 146.42 50.4497C146.501 50.5293 146.605 50.5692 146.733 50.5692H149.863C149.992 50.5692 150.096 50.5293 150.176 50.4497C150.256 50.37 150.297 50.2664 150.297 50.1389V42.8962C150.361 42.45 150.537 42.0915 150.826 41.8206C151.115 41.5497 151.476 41.4142 151.91 41.4142C152.375 41.4142 152.756 41.5855 153.053 41.9281C153.35 42.2708 153.499 42.713 153.499 43.2548V50.1389C153.499 50.2664 153.539 50.37 153.619 50.4497C153.699 50.5293 153.804 50.5692 153.932 50.5692H157.062C157.19 50.5692 157.294 50.5293 157.375 50.4497C157.455 50.37 157.495 50.2664 157.495 50.1389V43.2548C157.495 42.697 157.644 42.2508 157.94 41.9162C158.237 41.5815 158.619 41.4142 159.084 41.4142C159.55 41.4142 159.923 41.5855 160.204 41.9281C160.484 42.2708 160.625 42.713 160.625 43.2548V50.1389C160.625 50.2664 160.665 50.37 160.745 50.4497C160.826 50.5293 160.93 50.5692 161.058 50.5692H164.164C164.292 50.5692 164.397 50.5293 164.477 50.4497C164.557 50.37 164.597 50.2664 164.597 50.1389V42.3943C164.597 41.0079 164.244 39.9322 163.538 39.1673Z" fill="#979797"/>
  <path d="M166.523 55.2064C166.555 55.2861 166.596 55.3259 166.644 55.3259H166.812C168.369 55.3259 169.569 55.1785 170.411 54.8837C171.254 54.5889 171.896 54.1347 172.338 53.5212C172.779 52.9077 173.2 52.0034 173.601 50.8082L177.598 38.6893C177.646 38.5458 177.638 38.4303 177.574 38.3427C177.51 38.255 177.397 38.2112 177.237 38.2112H173.89C173.762 38.2112 173.654 38.247 173.565 38.3188C173.477 38.3905 173.425 38.4821 173.409 38.5936L171.892 44.8324C171.876 44.8961 171.848 44.928 171.808 44.928C171.768 44.928 171.732 44.8961 171.7 44.8324L170.135 38.5936C170.119 38.4821 170.066 38.3905 169.978 38.3188C169.89 38.247 169.782 38.2112 169.653 38.2112H166.283C166.042 38.2112 165.921 38.3148 165.921 38.5219C165.921 38.5857 165.929 38.6414 165.946 38.6893L169.749 50.4736C169.765 50.5532 169.765 50.6249 169.749 50.6887C169.637 51.2624 169.364 51.6368 168.931 51.8121C168.498 51.9874 167.767 52.0751 166.74 52.0751H166.62C166.588 52.0751 166.555 52.1149 166.523 52.1946C166.491 52.2743 166.475 52.3778 166.475 52.5053V54.8957C166.475 55.0231 166.491 55.1267 166.523 55.2064Z" fill="#979797"/>
  <path d="M20.4841 21.1838C20.5715 21.0048 20.6455 20.8181 20.7051 20.625C20.7398 20.7759 20.7761 20.9278 20.8141 21.0807C20.7032 21.1146 20.5932 21.1489 20.4841 21.1838Z" fill="#979797"/>
  <path d="M14.9127 27.6313C14.9127 26.9728 15.2271 26.3229 15.8075 25.7054V29.5573C15.2271 28.9398 14.9127 28.2898 14.9127 27.6313Z" fill="#979797"/>
  <path d="M21.3 22.8085C19.8529 23.2485 18.6002 23.771 17.597 24.3488V30.9138C18.5273 31.4496 19.672 31.9378 20.9874 32.3569C21.4497 30.6695 22.1009 28.8806 22.9277 27.0503C22.2727 25.6005 21.728 24.1766 21.3 22.8085Z" fill="#979797"/>
  <path d="M23.4129 41.7731C22.6919 41.3568 22.2368 40.5074 22.0402 39.3353L26.1264 41.7738C25.0486 42.1601 24.1158 42.1789 23.4129 41.7731Z" fill="#979797"/>
  <path d="M21.9414 37.2794L27.9442 40.8617C28.8033 40.3217 29.7129 39.6109 30.6426 38.7498C29.7194 37.7798 28.8026 36.6912 27.9117 35.5018C25.9006 35.3239 24.0074 35.0133 22.2903 34.5885C22.096 35.5551 21.9793 36.4584 21.9414 37.2794Z" fill="#979797"/>
  <path d="M31.9131 40.1423C31.8625 40.1423 31.8121 40.1433 31.762 40.1453C31.8123 40.0993 31.8627 40.0529 31.9131 40.0062C31.9635 40.0529 32.0139 40.0993 32.0643 40.1453C32.0142 40.1433 31.9637 40.1423 31.9131 40.1423Z" fill="#979797"/>
  <path d="M40.4133 41.7731C39.7763 42.1409 38.9503 42.1599 37.9986 41.8725L41.7257 39.6484C41.5041 40.659 41.0685 41.3948 40.4133 41.7731Z" fill="#979797"/>
  <path d="M36.1109 41.0022L41.8946 37.5507C41.872 36.6588 41.7519 35.6627 41.536 34.5885C39.8189 35.0133 37.9257 35.3239 35.9145 35.5018C35.0236 36.6912 34.1069 37.7798 33.1837 38.7498C34.1963 39.6878 35.1852 40.4474 36.1109 41.0022Z" fill="#979797"/>
  <path d="M48.9135 27.6313C48.9135 28.2898 48.5992 28.9398 48.0188 29.5573V25.7054C48.5992 26.3229 48.9135 26.9728 48.9135 27.6313Z" fill="#979797"/>
  <path d="M46.2293 30.9138V24.3488C45.226 23.771 43.9734 23.2485 42.5263 22.8085C42.0983 24.1766 41.5535 25.6005 40.8986 27.0503C41.7254 28.8805 42.3766 30.6695 42.8389 32.3568C44.1542 31.9378 45.299 31.4496 46.2293 30.9138Z" fill="#979797"/>
  <path d="M40.4133 12.3275C41.1417 12.7481 41.5987 13.6105 41.792 14.8012L37.6661 12.3391C38.7582 11.941 39.7032 11.9175 40.4133 12.3275Z" fill="#979797"/>
  <path d="M41.8834 16.8527L35.8557 13.2556C35.0044 13.7935 34.1038 14.4986 33.1837 15.3508C34.4218 16.6517 35.6482 18.1657 36.8163 19.8503C38.3981 20.0246 39.8985 20.2822 41.2876 20.6138C41.6295 19.2404 41.8292 17.9709 41.8834 16.8527Z" fill="#979797"/>
  <path d="M31.9131 13.7803C32.0359 13.7803 32.1573 13.7745 32.2772 13.7633C32.1559 13.8715 32.0345 13.9819 31.9131 14.0945C31.7917 13.9819 31.6703 13.8715 31.5491 13.7633C31.6689 13.7745 31.7904 13.7803 31.9131 13.7803Z" fill="#979797"/>
  <path d="M30.6426 15.3508C29.6925 14.4708 28.7633 13.7478 27.8876 13.2036L21.9384 16.7539C21.9854 17.8958 22.1866 19.1998 22.5387 20.6138C23.9278 20.2822 25.4282 20.0246 27.0099 19.8503C28.1781 18.1657 29.4045 16.6517 30.6426 15.3508Z" fill="#979797"/>
  <path d="M22.0536 14.6882L26.0535 12.3012C25.0065 11.9399 24.0999 11.9309 23.4129 12.3275C22.7078 12.7346 22.257 13.5559 22.0536 14.6882Z" fill="#979797"/>
  <path d="M33.5338 35.6475C32.9995 35.6661 32.4589 35.6755 31.9131 35.6755C31.3673 35.6755 30.8268 35.6661 30.2924 35.6475C30.8308 36.306 31.373 36.922 31.9131 37.4915C32.4533 36.922 32.9954 36.306 33.5338 35.6475Z" fill="#979797"/>
  <path d="M29.3481 19.6576C30.1871 19.6111 31.0435 19.5871 31.9131 19.5871C32.7828 19.5871 33.6391 19.6111 34.4782 19.6576C33.6335 18.5348 32.7708 17.5135 31.9131 16.6091C31.0555 17.5135 30.1927 18.5348 29.3481 19.6576Z" fill="#979797"/>
  <path fill-rule="evenodd" clip-rule="evenodd" d="M34.9658 33.7807C35.7724 32.6612 36.5581 31.4502 37.302 30.1616C37.9043 29.1184 38.449 28.0769 38.935 27.0503C38.449 26.0238 37.9043 24.9823 37.302 23.939C36.8233 23.1098 36.3272 22.3126 35.8194 21.5513C34.5662 21.4363 33.2586 21.3747 31.9131 21.3747C30.5677 21.3747 29.26 21.4363 28.0069 21.5513C27.4991 22.3126 27.003 23.1098 26.5242 23.939C25.9219 24.9823 25.3773 26.0238 24.8913 27.0503C25.3773 28.0769 25.9219 29.1184 26.5242 30.1616C27.2682 31.4502 28.0538 32.6612 28.8605 33.7807C29.8501 33.8509 30.8703 33.8879 31.9131 33.8879C32.956 33.8879 33.9761 33.8509 34.9658 33.7807ZM31.9131 29.4877C30.382 29.4877 29.1408 28.241 29.1408 26.7031C29.1408 25.1653 30.382 23.9186 31.9131 23.9186C33.4442 23.9186 34.6854 25.1653 34.6854 26.7031C34.6854 28.241 33.4442 29.4877 31.9131 29.4877Z" fill="#979797"/>
  <path d="M37.2929 33.5486C38.6536 33.3725 39.9366 33.1326 41.1183 32.8407C40.7983 31.6764 40.3809 30.4458 39.8679 29.1762C39.545 29.7997 39.2027 30.4252 38.8417 31.0505C38.3423 31.9156 37.8245 32.7497 37.2929 33.5486Z" fill="#979797"/>
  <path d="M25.7142 21.8291C24.7749 21.9717 23.8768 22.1449 23.0284 22.3446C23.2919 23.1797 23.602 24.0426 23.9584 24.9245C24.2813 24.301 24.6235 23.6754 24.9845 23.0501C25.2237 22.6359 25.4671 22.2287 25.7142 21.8291Z" fill="#979797"/>
  <path d="M22.708 32.8407C23.8896 33.1326 25.1727 33.3725 26.5333 33.5486C26.0017 32.7497 25.484 31.9156 24.9845 31.0505C24.6235 30.4252 24.2813 29.7997 23.9584 29.1762C23.4453 30.4458 23.0279 31.6764 22.708 32.8407Z" fill="#979797"/>
  <path d="M40.7979 22.3446C39.9494 22.1449 39.0514 21.9717 38.1121 21.8291C38.3592 22.2287 38.6026 22.6359 38.8417 23.0501C39.2027 23.6754 39.545 24.301 39.8679 24.9245C40.2242 24.0426 40.5344 23.1797 40.7979 22.3446Z" fill="#979797"/>
  <path fill-rule="evenodd" clip-rule="evenodd" d="M62.9894 1.69457L62.8927 0H0.14023L0.080892 1.73573C-0.413053 16.1843 1.35315 27.5224 5.43335 35.7626C9.49998 43.9755 17.831 53.0711 30.423 63.1186L31.5276 64L32.6387 63.127C46.1702 52.4951 54.8213 43.4093 58.6076 35.7626C62.412 28.0794 63.8477 16.7363 62.9894 1.69457ZM15.8075 23.1786C14.2498 22.6732 13.1232 21.2048 13.1232 19.4721C13.1232 17.3213 14.8591 15.5777 17.0005 15.5777C17.8598 15.5777 18.6537 15.8584 19.2965 16.3336L20.171 15.8117C20.2626 13.4374 21.0193 11.6431 22.5182 10.7778C23.9844 9.93124 25.8653 10.1442 27.9142 11.1909L28.2025 11.0188C28.0941 10.6603 28.0358 10.2799 28.0358 9.88586C28.0358 7.73504 29.7718 5.99146 31.9131 5.99146C34.0545 5.99146 35.7904 7.73504 35.7904 9.88586C35.7904 10.3114 35.7225 10.721 35.5969 11.1042L35.8209 11.2379C37.9051 10.1507 39.8202 9.9187 41.3081 10.7778C42.8287 11.6557 43.5855 13.4896 43.6589 15.9153L44.1307 16.1969C44.7356 15.8051 45.456 15.5777 46.2293 15.5777C48.3706 15.5777 50.1066 17.3213 50.1066 19.4721C50.1066 20.9745 49.2595 22.2783 48.0188 22.9278V23.3928C49.7217 24.6009 50.7031 26.0413 50.7031 27.6313C50.7031 29.2213 49.7217 30.6617 48.0188 31.8698V32.1931C49.2595 32.8426 50.1066 34.1463 50.1066 35.6488C50.1066 37.7996 48.3706 39.5432 46.2293 39.5432C45.2353 39.5432 44.3286 39.1675 43.6424 38.5498C43.5067 40.7946 42.7516 42.4895 41.3081 43.3229C39.8872 44.1432 38.0769 43.9686 36.1017 43.0045L35.709 43.2389C35.7624 43.4964 35.7904 43.7633 35.7904 44.0367C35.7904 46.1876 34.0545 47.9311 31.9131 47.9311C29.7718 47.9311 28.0358 46.1876 28.0358 44.0367C28.0358 43.6765 28.0845 43.3278 28.1756 42.9967L27.9764 42.8778C25.9034 43.952 23.9992 44.178 22.5182 43.3229C21.0747 42.4895 20.3195 40.7946 20.1838 38.5498C19.4976 39.1675 18.591 39.5432 17.597 39.5432C15.4556 39.5432 13.7197 37.7996 13.7197 35.6488C13.7197 34.1463 14.5668 32.8426 15.8075 32.1931V31.8698C14.1046 30.6617 13.1232 29.2213 13.1232 27.6313C13.1232 26.0413 14.1046 24.6009 15.8075 23.3928V23.1786Z" fill="#979797"/>
</svg>